SplineFontDB: 3.0
FontName: BattletechOldStyle
FullName: Battletech Oldstyle
FamilyName: Battletech Oldstyle
Weight: Book
Copyright: Typeface (c) <your company>. 2004. All Rights Reserved
Version: 1.0 February 24, 2004, initial release
ItalicAngle: 0
UnderlinePosition: -292
UnderlineWidth: 150
Ascent: 1638
Descent: 410
InvalidEm: 0
sfntRevision: 0x00010000
LayerCount: 2
Layer: 0 1 "+BBcEMAQ0BD0EVgQ5 +BD8EOwQwBD0A" 1
Layer: 1 1 "+BB8ENQRABDUENAQ9BFYEOQAA +BD8EOwQwBD0A" 0
XUID: [1021 523 1288949365 5644662]
StyleMap: 0x0040
FSType: 8
OS2Version: 1
OS2_WeightWidthSlopeOnly: 0
OS2_UseTypoMetrics: 0
CreationTime: 1077595323
ModificationTime: 1585997647
PfmFamily: 17
TTFWeight: 400
TTFWidth: 5
LineGap: 67
VLineGap: 0
Panose: 2 0 0 0 0 0 0 0 0 0
OS2TypoAscent: 1491
OS2TypoAOffset: 0
OS2TypoDescent: -431
OS2TypoDOffset: 0
OS2TypoLinegap: 307
OS2WinAscent: 1854
OS2WinAOffset: 0
OS2WinDescent: 434
OS2WinDOffset: 0
HheadAscent: 1854
HheadAOffset: 0
HheadDescent: -434
HheadDOffset: 0
OS2SubXSize: 1434
OS2SubYSize: 1331
OS2SubXOff: 0
OS2SubYOff: 283
OS2SupXSize: 1434
OS2SupYSize: 1331
OS2SupXOff: 0
OS2SupYOff: 977
OS2StrikeYSize: 102
OS2StrikeYPos: 530
OS2Vendor: 'HL  '
OS2CodePages: 4000001f.00000000
OS2UnicodeRanges: 00000287.00000000.00000000.00000000
Lookup: 258 0 0 "'kern' Horizontal Kerning lookup 0" { "'kern' Horizontal Kerning lookup 0 subtable"  } ['kern' ('DFLT' <'dflt' > ) ]
DEI: 91125
ShortTable: maxp 16
  1
  0
  653
  432
  28
  0
  0
  2
  16
  47
  66
  0
  1036
  0
  0
  0
EndShort
LangName: 1033 "Typeface +AKkA <your company>. 2004. All Rights Reserved" "" "Oldstyle" "Battletech Oldstyle Version 1.00" "" "Version 1.0 February 24, 2004, initial release" "" "Battletech+AK4A Wizkids" "" "" "This font was created using the Font Creator Program 4.1 from High-Logic.com"
LangName: 1027 "" "" "Normal"
LangName: 1029 "" "" "oby+AQ0A-ejn+AOkA"
LangName: 1030 "" "" "normal"
LangName: 1031 "" "" "Standard"
LangName: 1032 "" "" "+A5oDsQO9A78DvQO5A7oDrAAA"

StartChar: .notdef
Encoding: 65536 -1 0
Width: 1536
Flags: W
LayerCount: 2
Fore
SplineSet
256 0 m 1,0,-1
 256 1280 l 1,1,-1
 1280 1280 l 1,2,-1
 1280 0 l 1,3,-1
 256 0 l 1,0,-1
288 32 m 1,4,-1
 1248 32 l 1,5,-1
 1248 1248 l 1,6,-1
 288 1248 l 1,7,-1
 288 32 l 1,4,-1
EndSplineSet
EndChar

StartChar: exclam
Encoding: 33 33 4
Width: 1650
Flags: W
LayerCount: 2
Fore
SplineSet
851 1495.5 m 128,-1,1
 879 1491 879 1491 952.5 1469.5 c 128,-1,2
 1026 1448 1026 1448 1099.5 1407.5 c 128,-1,3
 1173 1367 1173 1367 1211 1336.5 c 128,-1,4
 1249 1306 1249 1306 1296.5 1251.5 c 128,-1,5
 1344 1197 1344 1197 1379.5 1140 c 128,-1,6
 1415 1083 1415 1083 1441.5 1012 c 128,-1,7
 1468 941 1468 941 1479.5 860 c 128,-1,8
 1491 779 1491 779 1479.5 667.5 c 128,-1,9
 1468 556 1468 556 1434.5 475.5 c 128,-1,10
 1401 395 1401 395 1349 319.5 c 128,-1,11
 1297 244 1297 244 1254 203.5 c 128,-1,12
 1211 163 1211 163 1173.5 137 c 128,-1,13
 1136 111 1136 111 1081 85 c 128,-1,14
 1026 59 1026 59 971.5 40 c 128,-1,15
 917 21 917 21 839 11.5 c 128,-1,16
 761 2 761 2 668.5 11.5 c 128,-1,17
 576 21 576 21 478.5 59 c 128,-1,18
 381 97 381 97 312.5 146.5 c 128,-1,19
 244 196 244 196 218 222 c 128,-1,20
 192 248 192 248 158.5 291 c 128,-1,21
 125 334 125 334 89.5 400 c 128,-1,22
 54 466 54 466 28 566 c 128,-1,23
 2 666 2 666 2 748.5 c 128,-1,24
 2 831 2 831 14 895.5 c 128,-1,25
 26 960 26 960 45 1012 c 128,-1,26
 64 1064 64 1064 102 1130.5 c 128,-1,27
 140 1197 140 1197 194.5 1256 c 128,-1,28
 249 1315 249 1315 298.5 1353 c 128,-1,29
 348 1391 348 1391 374 1405 c 128,-1,30
 400 1419 400 1419 481 1450 c 128,-1,31
 562 1481 562 1481 626 1490.5 c 128,-1,32
 690 1500 690 1500 756.5 1500 c 128,-1,0
 823 1500 823 1500 851 1495.5 c 128,-1,1
429 1389 m 128,-1,34
 339 1344 339 1344 313 1325 c 128,-1,35
 287 1306 287 1306 232 1249 c 128,-1,36
 177 1192 177 1192 156 1158.5 c 128,-1,37
 135 1125 135 1125 109 1073 c 128,-1,38
 83 1021 83 1021 71 988 c 128,-1,39
 59 955 59 955 45 894 c 128,-1,40
 31 833 31 833 31.5 735 c 128,-1,41
 32 637 32 637 53.5 563.5 c 128,-1,42
 75 490 75 490 98 442.5 c 128,-1,43
 121 395 121 395 166 331.5 c 128,-1,44
 211 268 211 268 266.5 218.5 c 128,-1,45
 322 169 322 169 406.5 123.5 c 128,-1,46
 491 78 491 78 552.5 61 c 128,-1,47
 614 44 614 44 649.5 39.5 c 128,-1,48
 685 35 685 35 749 33.5 c 128,-1,49
 813 32 813 32 877.5 43 c 128,-1,50
 942 54 942 54 998.5 80 c 128,-1,51
 1055 106 1055 106 1105 134.5 c 128,-1,52
 1155 163 1155 163 1204.5 203.5 c 128,-1,53
 1254 244 1254 244 1280 273 c 128,-1,54
 1306 302 1306 302 1338.5 348 c 128,-1,55
 1371 394 1371 394 1398 456.5 c 128,-1,56
 1425 519 1425 519 1437 561.5 c 128,-1,57
 1449 604 1449 604 1457.5 691.5 c 128,-1,58
 1466 779 1466 779 1452.5 857.5 c 128,-1,59
 1439 936 1439 936 1406 1016.5 c 128,-1,60
 1373 1097 1373 1097 1335 1152 c 128,-1,61
 1297 1207 1297 1207 1240 1261 c 128,-1,62
 1183 1315 1183 1315 1145 1343.5 c 128,-1,63
 1107 1372 1107 1372 1029 1405 c 128,-1,64
 951 1438 951 1438 901 1450 c 128,-1,65
 851 1462 851 1462 763 1464.5 c 128,-1,66
 675 1467 675 1467 597 1450.5 c 128,-1,33
 519 1434 519 1434 429 1389 c 128,-1,34
909 1434 m 128,-1,68
 979 1415 979 1415 1031 1391 c 128,-1,69
 1083 1367 1083 1367 1154.5 1315 c 128,-1,70
 1226 1263 1226 1263 1266 1218 c 128,-1,71
 1306 1173 1306 1173 1356.5 1082.5 c 128,-1,72
 1407 992 1407 992 1429 907 c 128,-1,73
 1451 822 1451 822 1444.5 731.5 c 128,-1,74
 1438 641 1438 641 1422 577.5 c 128,-1,75
 1406 514 1406 514 1380 457 c 128,-1,76
 1354 400 1354 400 1322 354.5 c 128,-1,77
 1290 309 1290 309 1231.5 250 c 128,-1,78
 1173 191 1173 191 1126.5 165.5 c 128,-1,79
 1080 140 1080 140 1025 111 c 128,-1,80
 970 82 970 82 931.5 70.5 c 128,-1,81
 893 59 893 59 807 52 c 128,-1,82
 721 45 721 45 648.5 56.5 c 128,-1,83
 576 68 576 68 482 105 c 128,-1,84
 388 142 388 142 321.5 197 c 128,-1,85
 255 252 255 252 225.5 283.5 c 128,-1,86
 196 315 196 315 158.5 366.5 c 128,-1,87
 121 418 121 418 97 480 c 128,-1,88
 73 542 73 542 59 615.5 c 128,-1,89
 45 689 45 689 47 753 c 128,-1,90
 49 817 49 817 58.5 881 c 128,-1,91
 68 945 68 945 101.5 1023.5 c 128,-1,92
 135 1102 135 1102 194 1177.5 c 128,-1,93
 253 1253 253 1253 312.5 1300.5 c 128,-1,94
 372 1348 372 1348 433.5 1379 c 128,-1,95
 495 1410 495 1410 568.5 1431 c 128,-1,96
 642 1452 642 1452 740.5 1452.5 c 128,-1,67
 839 1453 839 1453 909 1434 c 128,-1,68
524 1403 m 128,-1,98
 453 1377 453 1377 393.5 1343.5 c 128,-1,99
 334 1310 334 1310 253.5 1228 c 128,-1,100
 173 1146 173 1146 130 1057.5 c 128,-1,101
 87 969 87 969 74 891 c 128,-1,102
 61 813 61 813 62.5 718 c 128,-1,103
 64 623 64 623 90 542.5 c 128,-1,104
 116 462 116 462 139.5 419 c 128,-1,105
 163 376 163 376 199 336 c 1,106,-1
 197 335 l 1,107,-1
 543 756 l 1,108,-1
 547 775 l 1,109,-1
 69 608 l 1,110,-1
 528 813 l 1,111,-1
 523 821 l 1,112,-1
 68 607 l 1,113,-1
 486 841 l 1,114,-1
 514 865 l 1,115,-1
 74 902 l 1,116,-1
 509 901 l 1,117,-1
 510 915 l 1,118,-1
 74 904 l 1,119,-1
 509 955 l 1,120,-1
 514 969 l 1,121,-1
 202 1167 l 1,122,-1
 524 1007 l 1,123,-1
 528 1016 l 1,124,-1
 202 1169 l 1,125,-1
 562 1050 l 1,126,-1
 377 1332 l 1,127,-1
 588 1084 l 1,128,-1
 595 1090 l 1,129,-1
 379 1335 l 1,130,-1
 638 1116 l 1,131,-1
 571 1419 l 1,132,-1
 666 1130 l 1,133,-1
 675 1135 l 1,134,-1
 570 1422 l 1,135,-1
 704 1149 l 1,136,-1
 704 1121 l 1,137,138
 685 1121 685 1121 654 1106.5 c 128,-1,139
 623 1092 623 1092 599.5 1071 c 128,-1,140
 576 1050 576 1050 559.5 1026 c 128,-1,141
 543 1002 543 1002 533.5 973.5 c 128,-1,142
 524 945 524 945 524 907 c 128,-1,143
 524 869 524 869 538 831.5 c 128,-1,144
 552 794 552 794 580.5 760.5 c 128,-1,145
 609 727 609 727 635 713 c 128,-1,146
 661 699 661 699 699 689 c 1,147,-1
 704 694 l 1,148,-1
 704 656 l 1,149,-1
 463 122 l 1,150,-1
 666 685 l 1,151,-1
 657 685 l 1,152,-1
 464 128 l 1,153,-1
 619 685 l 1,154,-1
 619 703 l 1,155,-1
 609 703 l 1,156,-1
 604 689 l 1,157,-1
 595 689 l 1,158,-1
 595 680 l 1,159,-1
 538 637 l 1,160,-1
 197 333 l 1,161,162
 295 233 295 233 330.5 205 c 128,-1,163
 366 177 366 177 419.5 149 c 128,-1,164
 473 121 473 121 512.5 109 c 128,-1,165
 552 97 552 97 616 80 c 128,-1,166
 680 63 680 63 755.5 65.5 c 128,-1,167
 831 68 831 68 876.5 75.5 c 128,-1,168
 922 83 922 83 972.5 102 c 128,-1,169
 1023 121 1023 121 1109.5 174 c 128,-1,170
 1196 227 1196 227 1261 299.5 c 128,-1,171
 1326 372 1326 372 1362 449.5 c 128,-1,172
 1398 527 1398 527 1413.5 606 c 128,-1,173
 1429 685 1429 685 1429.5 772.5 c 128,-1,174
 1430 860 1430 860 1414 901 c 1,175,-1
 989 865 l 1,176,-1
 979 855 l 1,177,-1
 1416 616 l 1,178,-1
 965 817 l 1,179,-1
 960 808 l 1,180,-1
 974 808 l 1,181,-1
 1416 613 l 1,182,-1
 936 775 l 1,183,-1
 1297 340 l 1,184,-1
 908 741 l 1,185,-1
 932 703 l 1,186,-1
 1295 338 l 1,187,-1
 913 675 l 1,188,-1
 870 703 l 1,189,-1
 1033 129 l 1,190,-1
 965 305 l 1,191,-1
 827 685 l 1,192,-1
 818 685 l 1,193,-1
 1031 129 l 1,194,-1
 846 519 l 1,195,-1
 785 685 l 1,196,-1
 785 1102 l 1,197,198
 823 1092 823 1092 844 1080.5 c 128,-1,199
 865 1069 865 1069 886.5 1047.5 c 128,-1,200
 908 1026 908 1026 924.5 982 c 128,-1,201
 941 938 941 938 940 897.5 c 128,-1,202
 939 857 939 857 926.5 828 c 128,-1,203
 914 799 914 799 881 765.5 c 128,-1,204
 848 732 848 732 789 713 c 1,205,-1
 789 689 l 1,206,207
 889 730 889 730 919 773 c 128,-1,208
 949 816 949 816 954.5 845 c 128,-1,209
 960 874 960 874 960 914.5 c 128,-1,210
 960 955 960 955 936.5 1002.5 c 128,-1,211
 913 1050 913 1050 888 1073 c 128,-1,212
 863 1096 863 1096 785 1121 c 1,213,-1
 785 1154 l 1,214,-1
 912 1422 l 1,215,-1
 814 1138 l 1,216,-1
 823 1135 l 1,217,-1
 915 1422 l 1,218,-1
 851 1121 l 1,219,-1
 856 1111 l 1,220,-1
 870 1116 l 1,221,-1
 1112 1333 l 1,222,-1
 893 1090 l 1,223,-1
 903 1083 l 1,224,-1
 1114 1333 l 1,225,-1
 927 1050 l 1,226,-1
 1003 1069 l 1,227,-1
 1289 1164 l 1,228,-1
 1192 1121 l 1,229,-1
 952 1016 l 1,230,-1
 955 1007 l 1,231,-1
 1290 1161 l 1,232,-1
 998 978 l 1,233,234
 977 978 977 978 974 955 c 1,235,-1
 1416 907 l 1,236,-1
 983 908 l 1,237,-1
 983 902 l 1,238,-1
 1414 905 l 1,239,240
 1398 962 1398 962 1369 1028 c 128,-1,241
 1340 1094 1340 1094 1280.5 1173.5 c 128,-1,242
 1221 1253 1221 1253 1154.5 1303 c 128,-1,243
 1088 1353 1088 1353 1012 1386 c 128,-1,244
 936 1419 936 1419 867.5 1431 c 128,-1,245
 799 1443 799 1443 747 1443 c 1,246,-1
 770 1259 l 1,247,-1
 771 388 l 1,248,-1
 724 389 l 1,249,-1
 723 1258 l 1,250,-1
 742 1444 l 1,251,252
 694 1443 694 1443 644.5 1436 c 128,-1,97
 595 1429 595 1429 524 1403 c 128,-1,98
704 1102 m 1,253,-1
 704 708 l 1,254,255
 639 729 639 729 610 756.5 c 128,-1,256
 581 784 581 784 566.5 810 c 128,-1,257
 552 836 552 836 547.5 869.5 c 128,-1,258
 543 903 543 903 545 931.5 c 128,-1,259
 547 960 547 960 562 991.5 c 128,-1,260
 577 1023 577 1023 605 1049.5 c 128,-1,261
 633 1076 633 1076 704 1102 c 1,253,-1
571 737 m 1,262,-1
 200 338 l 1,263,-1
 581 730 l 1,264,-1
 571 737 l 1,262,-1
595 357 m 1,265,-1
 642 357 l 1,266,267
 643 338 643 338 661 338 c 2,268,-1
 828 338 l 2,269,270
 847 338 847 338 846 357 c 1,271,-1
 889 357 l 1,272,-1
 889 346 l 1,273,274
 885 314 885 314 838 315 c 2,275,-1
 649 315 l 2,276,277
 598 315 598 315 595 348 c 2,278,-1
 595 357 l 1,265,-1
729 284 m 2,280,-1
 765 284 l 2,281,282
 775 286 775 286 775 274 c 2,283,-1
 776 137 l 2,284,285
 776 122 776 122 756 121 c 1,286,-1
 756 110 l 1,287,-1
 765 111 l 2,288,289
 775 110 775 110 775 101 c 2,290,-1
 776 86 l 2,291,292
 776 68 776 68 747 68 c 128,-1,293
 718 68 718 68 718 85 c 2,294,-1
 718 101 l 2,295,296
 718 111 718 111 728 111 c 2,297,-1
 738 111 l 1,298,-1
 737 121 l 1,299,300
 718 122 718 122 717 137 c 2,301,-1
 718 273 l 2,302,279
 718 284 718 284 729 284 c 2,280,-1
718 305 m 1,303,-1
 718 289 l 2,304,305
 720 294 720 294 728 295 c 2,306,-1
 765 294 l 2,307,308
 773 294 773 294 775 289 c 2,309,-1
 775 305 l 1,310,-1
 718 305 l 1,303,-1
713 357 m 1,311,-1
 713 347 l 1,312,-1
 781 347 l 1,313,-1
 781 357 l 1,314,-1
 713 357 l 1,311,-1
723 378 m 1,315,-1
 723 367 l 1,316,-1
 770 367 l 1,317,-1
 770 378 l 1,318,-1
 723 378 l 1,315,-1
EndSplineSet
EndChar

StartChar: quotedbl
Encoding: 34 34 5
Width: 1024
Flags: W
LayerCount: 2
Fore
SplineSet
48 1466 m 1,0,-1
 454 1466 l 1,1,-1
 454 1224 l 1,2,-1
 390 927 l 1,3,-1
 114 927 l 1,4,-1
 48 1224 l 1,5,-1
 48 1466 l 1,0,-1
569 1466 m 1,6,-1
 975 1466 l 1,7,-1
 975 1224 l 1,8,-1
 911 927 l 1,9,-1
 635 927 l 1,10,-1
 569 1224 l 1,11,-1
 569 1466 l 1,6,-1
EndSplineSet
EndChar

StartChar: numbersign
Encoding: 35 35 6
Width: 1550
Flags: W
LayerCount: 2
Fore
SplineSet
10 1500 m 2,1,-1
 1440 1500 l 2,2,3
 1451 1500 1451 1500 1451 1490 c 2,4,-1
 1450 120 l 1,5,-1
 1302 113 l 1,6,-1
 1302 43 l 1,7,-1
 1219 42 l 1,8,-1
 1219 18 l 1,9,-1
 1183 18 l 1,10,-1
 1183 0 l 1,11,-1
 226 0 l 1,12,-1
 226 48 l 1,13,-1
 137 48 l 1,14,-1
 137 113 l 1,15,-1
 0 119 l 1,16,-1
 0 1490 l 2,17,0
 0 1500 0 1500 10 1500 c 2,1,-1
20 1480 m 1,18,-1
 20 131 l 1,19,-1
 137 131 l 1,20,21
 128 245 128 245 262 279 c 1,22,-1
 274 279 l 1,23,24
 267 334 267 334 301.5 355.5 c 128,-1,25
 336 377 336 377 353.5 381.5 c 128,-1,26
 371 386 371 386 370.5 405.5 c 128,-1,27
 370 425 370 425 398 434 c 0,28,29
 427 442 427 442 328 566 c 128,-1,30
 229 690 229 690 195 811.5 c 128,-1,31
 161 933 161 933 142.5 1047.5 c 128,-1,32
 124 1162 124 1162 274 1165 c 1,33,34
 280 1213 280 1213 294.5 1236.5 c 128,-1,35
 309 1260 309 1260 342 1269 c 128,-1,36
 375 1278 375 1278 410.5 1272 c 128,-1,37
 446 1266 446 1266 505 1231 c 1,38,39
 506 1253 506 1253 523 1248 c 1,40,41
 527 1288 527 1288 581.5 1280 c 128,-1,42
 636 1272 636 1272 663 1263 c 128,-1,43
 690 1254 690 1254 731 1225 c 1,44,45
 753 1246 753 1246 774.5 1250 c 128,-1,46
 796 1254 796 1254 851 1251.5 c 128,-1,47
 906 1249 906 1249 957 1213 c 1,48,49
 975 1231 975 1231 1008.5 1234.5 c 128,-1,50
 1042 1238 1042 1238 1111 1204 c 128,-1,51
 1180 1170 1180 1170 1166 1070 c 1,52,53
 1201 1017 1201 1017 1210 984 c 128,-1,54
 1219 951 1219 951 1219.5 895 c 128,-1,55
 1220 839 1220 839 1211 770 c 128,-1,56
 1202 701 1202 701 1159 602 c 128,-1,57
 1116 503 1116 503 1110.5 489 c 128,-1,58
 1105 475 1105 475 1112 461.5 c 128,-1,59
 1119 448 1119 448 1215 360.5 c 128,-1,60
 1311 273 1311 273 1302 181 c 1,61,-1
 1302 130 l 1,62,-1
 1430 131 l 1,63,-1
 1430 1479 l 1,64,-1
 20 1480 l 1,18,-1
308 1183 m 1,65,66
 336 1193 336 1193 397 1196.5 c 128,-1,67
 458 1200 458 1200 463 1213.5 c 128,-1,68
 468 1227 468 1227 450.5 1237 c 128,-1,69
 433 1247 433 1247 377.5 1245.5 c 128,-1,70
 322 1244 322 1244 308 1183 c 1,65,66
523 1207 m 1,72,73
 565 1195 565 1195 571 1183 c 128,-1,74
 577 1171 577 1171 574 1147.5 c 128,-1,75
 571 1124 571 1124 541 1095 c 128,-1,76
 511 1066 511 1066 523 1026.5 c 128,-1,77
 535 987 535 987 553.5 976 c 128,-1,78
 572 965 572 965 589.5 964.5 c 128,-1,79
 607 964 607 964 633.5 1008 c 128,-1,80
 660 1052 660 1052 678.5 1097.5 c 128,-1,81
 697 1143 697 1143 681.5 1184 c 128,-1,82
 666 1225 666 1225 611.5 1233 c 128,-1,83
 557 1241 557 1241 546 1238.5 c 128,-1,71
 535 1236 535 1236 523 1207 c 1,72,73
752.5 1188.5 m 128,-1,85
 739 1163 739 1163 734.5 1077 c 128,-1,86
 730 991 730 991 744.5 961 c 128,-1,87
 759 931 759 931 788 933.5 c 128,-1,88
 817 936 817 936 839.5 973.5 c 128,-1,89
 862 1011 862 1011 868 1040.5 c 128,-1,90
 874 1070 874 1070 893 1219 c 1,91,92
 791 1231 791 1231 778.5 1222.5 c 128,-1,84
 766 1214 766 1214 752.5 1188.5 c 128,-1,85
986 1195 m 128,-1,94
 977 1180 977 1180 975 1135 c 2,95,-1
 969 939 l 1,96,97
 1007 937 1007 937 1028 979 c 1,98,99
 1068 990 1068 990 1059 1064 c 1,100,101
 1107 1166 1107 1166 1080 1186.5 c 128,-1,102
 1053 1207 1053 1207 1024 1208.5 c 128,-1,93
 995 1210 995 1210 986 1195 c 128,-1,94
250 1135 m 1,104,105
 321 1076 321 1076 371 1069.5 c 128,-1,106
 421 1063 421 1063 460 1073.5 c 128,-1,107
 499 1084 499 1084 500 1112 c 1,108,109
 533 1118 533 1118 529 1153 c 1,110,111
 556 1181 556 1181 536 1189 c 128,-1,112
 516 1197 516 1197 500 1183 c 1,113,103
 356 1183 356 1183 250 1135 c 1,104,105
184 1105 m 128,-1,115
 188 1092 188 1092 225.5 1089 c 128,-1,116
 263 1086 263 1086 311 1032 c 1,117,118
 312 1072 312 1072 274 1082 c 1,119,120
 265 1115 265 1115 230.5 1119.5 c 128,-1,121
 196 1124 196 1124 188 1121 c 128,-1,114
 180 1118 180 1118 184 1105 c 128,-1,115
178 1070 m 1,122,123
 190 969 190 969 226 921.5 c 128,-1,124
 262 874 262 874 286 802.5 c 128,-1,125
 310 731 310 731 372 769.5 c 128,-1,126
 434 808 434 808 428.5 847.5 c 128,-1,127
 423 887 423 887 408 924.5 c 128,-1,128
 393 962 393 962 357 975 c 1,129,130
 345 1011 345 1011 303 999 c 1,131,132
 285 1040 285 1040 243.5 1055 c 128,-1,133
 202 1070 202 1070 178 1070 c 1,122,123
410 981 m 1,134,-1
 434 951 l 1,135,-1
 452 993 l 1,136,137
 427 1020 427 1020 410 981 c 1,134,-1
541 904 m 1,138,139
 511 853 511 853 578 831 c 128,-1,140
 645 809 645 809 692 874 c 1,141,142
 615 865 615 865 594.5 887 c 128,-1,143
 574 909 574 909 541 904 c 1,138,139
934 892 m 1,144,145
 900 826 900 826 1029 844 c 1,146,147
 956 900 956 900 934 892 c 1,144,145
1118 892 m 1,148,149
 1039 770 1039 770 981 808 c 1,150,151
 859 755 859 755 844 808 c 1,152,153
 728 749 728 749 702 803 c 1,154,155
 562 741 562 741 523 797 c 1,156,157
 511 763 511 763 488 767 c 1,158,159
 481 709 481 709 441 673 c 1,160,161
 371 657 371 657 380 601 c 1,162,163
 501 543 501 543 682.5 549 c 128,-1,164
 864 555 864 555 951.5 589.5 c 128,-1,165
 1039 624 1039 624 1124 803 c 1,166,-1
 1148 862 l 1,167,168
 1147 889 1147 889 1118 892 c 1,148,149
726 886 m 1,169,170
 696 822 696 822 771.5 828.5 c 128,-1,171
 847 835 847 835 856 862 c 1,172,173
 817 854 817 854 779.5 878 c 128,-1,174
 742 902 742 902 726 886 c 1,169,170
434 797 m 1,175,176
 398 731 398 731 372.5 698 c 128,-1,177
 347 665 347 665 310 653 c 1,178,179
 301 625 301 625 322.5 624 c 128,-1,180
 344 623 344 623 353.5 647.5 c 128,-1,181
 363 672 363 672 410.5 705 c 128,-1,182
 458 738 458 738 460 776 c 128,-1,183
 462 814 462 814 434 797 c 1,175,176
428 482 m 1,185,186
 714 510 714 510 952 493 c 1,187,188
 973 514 973 514 944.5 522.5 c 128,-1,189
 916 531 916 531 708 531 c 0,190,184
 452 527 452 527 428 482 c 1,185,186
398 386 m 1,192,193
 558 404 558 404 612 311 c 128,-1,194
 666 218 666 218 746 223.5 c 128,-1,195
 826 229 826 229 884 291 c 128,-1,196
 942 353 942 353 922 470 c 1,197,198
 815 491 815 491 631 476.5 c 128,-1,191
 447 462 447 462 398 386 c 1,192,193
993 368 m 2,199,200
 977 369 977 369 955 326 c 1,201,202
 877 207 877 207 758.5 196.5 c 128,-1,203
 640 186 640 186 602.5 250 c 128,-1,204
 565 314 565 314 502 336 c 128,-1,205
 439 358 439 358 378 351.5 c 128,-1,206
 317 345 317 345 309 304 c 1,207,208
 478 339 478 339 544 260 c 128,-1,209
 610 181 610 181 683 170 c 128,-1,210
 756 159 756 159 831 183 c 128,-1,211
 906 207 906 207 941 247.5 c 128,-1,212
 976 288 976 288 989.5 314 c 128,-1,213
 1003 340 1003 340 1021 340 c 2,214,-1
 1189 339 l 1,215,216
 1179 367 1179 367 1150 368 c 2,217,-1
 993 368 l 2,199,200
901 141 m 1,219,-1
 578 141 l 1,220,221
 512 272 512 272 426.5 279.5 c 128,-1,222
 341 287 341 287 299 262.5 c 128,-1,223
 257 238 257 238 256 196 c 2,224,-1
 256 36 l 1,225,226
 922 15 922 15 1028.5 41.5 c 128,-1,227
 1135 68 1135 68 1161.5 158 c 128,-1,228
 1188 248 1188 248 1177 303 c 1,229,218
 998 323 998 323 901 141 c 1,219,-1
1226 198 m 1,230,231
 1303 114 1303 114 1275 231 c 0,232,233
 1257 293 1257 293 1215 327 c 1,234,-1
 1226 198 l 1,230,231
155 71 m 1,236,-1
 227 70 l 1,237,-1
 238 238 l 1,238,235
 146 194 146 194 155 71 c 1,236,-1
EndSplineSet
EndChar

StartChar: dollar
Encoding: 36 36 7
Width: 2079
Flags: W
LayerCount: 2
Fore
SplineSet
1061 1363 m 128,-1,1
 1099 1358 1099 1358 1117 1354 c 128,-1,2
 1135 1350 1135 1350 1168 1339 c 128,-1,3
 1201 1328 1201 1328 1222 1318 c 128,-1,4
 1243 1308 1243 1308 1278 1287 c 128,-1,5
 1313 1266 1313 1266 1355 1232 c 1,6,-1
 1403 1232 l 1,7,-1
 1437 1204 l 1,8,-1
 1557 1204 l 1,9,-1
 1515 1148 l 1,10,-1
 1517 1144 l 1,11,-1
 1609 1086 l 1,12,-1
 1477 1082 l 1,13,-1
 1491 1052 l 1,14,-1
 1975 1052 l 1,15,16
 1992 1038 1992 1038 1952.5 1001 c 128,-1,17
 1913 964 1913 964 1887 970 c 1,18,19
 1844 897 1844 897 1791 898 c 1,20,21
 1754 838 1754 838 1693 828 c 1,22,23
 1666 744 1666 744 1535 748 c 1,24,25
 1521 682 1521 682 1508 647 c 128,-1,26
 1495 612 1495 612 1476 577 c 128,-1,27
 1457 542 1457 542 1441 519 c 128,-1,28
 1425 496 1425 496 1413 482 c 128,-1,29
 1401 468 1401 468 1359 428.5 c 128,-1,30
 1317 389 1317 389 1235 344 c 1,31,-1
 1235 334 l 1,32,-1
 1249 304 l 1,33,-1
 971 128 l 1,34,-1
 947 142 l 1,35,-1
 715 328 l 1,36,-1
 709 338 l 1,37,-1
 719 352 l 1,38,-1
 719 360 l 1,39,40
 645 408 645 408 626 425 c 128,-1,41
 607 442 607 442 586 464 c 128,-1,42
 565 486 565 486 542 519 c 128,-1,43
 519 552 519 552 502 583 c 128,-1,44
 485 614 485 614 474 644 c 128,-1,45
 463 674 463 674 445 756 c 1,46,47
 335 761 335 761 279 836 c 1,48,49
 230 839 230 839 183 910 c 1,50,51
 143 911 143 911 101 974 c 1,52,53
 69 976 69 976 11 1052 c 1,54,-1
 13 1056 l 1,55,-1
 493 1052 l 1,56,57
 497 1066 497 1066 503 1078 c 1,58,-1
 389 1080 l 1,59,-1
 473 1150 l 1,60,-1
 416 1201 l 1,61,-1
 577 1202 l 1,62,-1
 599 1230 l 1,63,-1
 629 1230 l 1,64,-1
 638 1241 l 2,65,66
 643 1244 643 1244 671 1265 c 128,-1,67
 699 1286 699 1286 731 1303 c 128,-1,68
 763 1320 763 1320 797 1333 c 128,-1,69
 831 1346 831 1346 872.5 1354.5 c 128,-1,70
 914 1363 914 1363 935 1365 c 128,-1,71
 956 1367 956 1367 989.5 1367.5 c 128,-1,0
 1023 1368 1023 1368 1061 1363 c 128,-1,1
801 1314 m 128,-1,73
 773 1303 773 1303 737 1283 c 128,-1,74
 701 1263 701 1263 667 1237 c 1,75,-1
 1322 1235 l 1,76,-1
 1317 1241 l 1,77,78
 1273 1271 1273 1271 1236 1290 c 128,-1,79
 1199 1309 1199 1309 1164 1321 c 128,-1,80
 1129 1333 1129 1333 1094 1340 c 128,-1,81
 1059 1347 1059 1347 1004 1348 c 128,-1,82
 949 1349 949 1349 889 1337 c 128,-1,72
 829 1325 829 1325 801 1314 c 128,-1,73
743 1219 m 1,83,-1
 743 1141 l 1,84,-1
 769 1141 l 1,85,-1
 769 1189 l 1,86,-1
 795 1141 l 1,87,-1
 818 1141 l 1,88,-1
 843 1187 l 1,89,-1
 843 1141 l 1,90,-1
 870 1141 l 1,91,-1
 869 1219 l 1,92,-1
 831 1219 l 1,93,-1
 805 1173 l 1,94,-1
 781 1219 l 1,95,-1
 743 1219 l 1,83,-1
918 1220 m 1,96,-1
 877 1141 l 1,97,-1
 905 1141 l 1,98,-1
 935 1201 l 1,99,-1
 965 1141 l 1,100,-1
 989 1141 l 1,101,-1
 949 1220 l 1,102,-1
 918 1220 l 1,96,-1
997 1219 m 1,103,-1
 997 1203 l 1,104,-1
 1061 1204 l 2,105,106
 1071 1202 1071 1202 1071 1193 c 0,107,108
 1071 1185 1071 1185 1061 1183 c 2,109,-1
 997 1183 l 1,110,-1
 997 1141 l 1,111,-1
 1021 1141 l 1,112,-1
 1021 1167 l 1,113,-1
 1062 1167 l 2,114,115
 1070 1166 1070 1166 1071 1157 c 2,116,-1
 1071 1141 l 1,117,-1
 1097 1141 l 1,118,-1
 1097 1168 l 2,119,120
 1097 1174 1097 1174 1089 1177 c 1,121,122
 1097 1181 1097 1181 1097 1197 c 0,123,124
 1096 1219 1096 1219 1079 1219 c 2,125,-1
 997 1219 l 1,103,-1
1107 1219 m 1,126,-1
 1107 1141 l 1,127,-1
 1131 1141 l 1,128,-1
 1131 1219 l 1,129,-1
 1107 1219 l 1,126,-1
1143 1219 m 1,130,-1
 1143 1141 l 1,131,-1
 1167 1141 l 1,132,-1
 1167 1173 l 1,133,-1
 1209 1141 l 1,134,-1
 1239 1141 l 1,135,-1
 1179 1189 l 1,136,-1
 1167 1189 l 1,137,-1
 1167 1219 l 1,138,-1
 1143 1219 l 1,130,-1
1183 1195 m 1,139,-1
 1197 1185 l 1,140,-1
 1237 1219 l 1,141,-1
 1211 1219 l 1,142,-1
 1183 1195 l 1,139,-1
538 1092 m 128,-1,144
 521 1065 521 1065 521 1053 c 1,145,-1
 793 1051 l 1,146,-1
 871 955 l 1,147,-1
 895 957 l 1,148,149
 921 1097 921 1097 953 1097 c 2,150,-1
 1021 1097 l 2,151,152
 1039 1097 1039 1097 1047 1069 c 1,153,154
 1089 1070 1089 1070 1093 1053 c 1,155,-1
 1091 1017 l 1,156,157
 1081 1036 1081 1036 1051 1023 c 1,158,-1
 1049 999 l 1,159,-1
 1061 953 l 1,160,-1
 1087 951 l 1,161,-1
 1179 1055 l 1,162,-1
 1467 1057 l 1,163,-1
 1429 1125 l 1,164,-1
 565 1127 l 1,165,143
 555 1119 555 1119 538 1092 c 128,-1,144
991 1063 m 1,166,-1
 1003 1059 l 1,167,-1
 1005 1073 l 1,168,-1
 987 1079 l 1,169,-1
 991 1063 l 1,166,-1
88.5 1006.5 m 128,-1,171
 106 994 106 994 154 997 c 1,172,173
 117 1021 117 1021 124 1040 c 1,174,175
 97 1035 97 1035 44 1048 c 1,176,170
 71 1019 71 1019 88.5 1006.5 c 128,-1,171
1850 1035 m 1,177,178
 1848 1009 1848 1009 1820 990 c 1,179,180
 1916 979 1916 979 1947 1037 c 1,181,182
 1885 1025 1885 1025 1850 1035 c 1,177,178
131 978 m 1,183,-1
 143 965 l 1,184,185
 171 924 171 924 242 928 c 1,186,187
 193 951 193 951 203 972 c 1,188,189
 160 969 160 969 131 978 c 1,183,-1
1767 973 m 1,190,191
 1779 947 1779 947 1737 923 c 1,192,193
 1831 913 1831 913 1858 969 c 1,194,195
 1801 965 1801 965 1767 973 c 1,190,191
215 911 m 1,196,197
 244 848 244 848 331 860 c 1,198,199
 275 880 275 880 278 911 c 1,200,201
 243 905 243 905 215 911 c 1,196,197
1647 903 m 1,202,203
 1671 879 1671 879 1619 851 c 1,204,205
 1738 847 1738 847 1762 900 c 1,206,207
 1689 895 1689 895 1647 903 c 1,202,203
311 840 m 1,208,209
 339 790 339 790 443 777 c 1,210,211
 373 817 373 817 369 837 c 1,212,213
 354 832 354 832 311 840 c 1,208,209
1543 775 m 1,215,216
 1587 774 1587 774 1620 786.5 c 128,-1,217
 1653 799 1653 799 1665 829 c 1,218,219
 1624 821 1624 821 1586 832 c 1,220,214
 1604 805 1604 805 1543 775 c 1,215,216
473 755 m 1,221,222
 475 727 475 727 488 685 c 128,-1,223
 501 643 501 643 511 621 c 128,-1,224
 521 599 521 599 537 572 c 128,-1,225
 553 545 553 545 572 520 c 128,-1,226
 591 495 591 495 620 466 c 128,-1,227
 649 437 649 437 672 420 c 128,-1,228
 695 403 695 403 731 383 c 1,229,-1
 807 527 l 1,230,231
 751 549 751 549 713 570 c 128,-1,232
 675 591 675 591 643 616.5 c 128,-1,233
 611 642 611 642 588.5 667 c 128,-1,234
 566 692 566 692 556 705.5 c 128,-1,235
 546 719 546 719 521 755 c 1,236,-1
 477 757 l 1,237,-1
 473 755 l 1,221,222
1344 647 m 128,-1,239
 1313 617 1313 617 1275 592 c 128,-1,240
 1237 567 1237 567 1208 553 c 128,-1,241
 1179 539 1179 539 1155 531 c 1,242,-1
 1225 367 l 1,243,244
 1245 375 1245 375 1283 400 c 128,-1,245
 1321 425 1321 425 1353 455 c 128,-1,246
 1385 485 1385 485 1415.5 527 c 128,-1,247
 1446 569 1446 569 1466 611.5 c 128,-1,248
 1486 654 1486 654 1511 745 c 1,249,-1
 1437 751 l 1,250,238
 1375 677 1375 677 1344 647 c 128,-1,239
743 354 m 1,251,252
 743 324 743 324 779 306 c 1,253,-1
 777 327 l 1,254,255
 758 331 758 331 743 354 c 1,251,252
1187 304 m 1,257,-1
 1185 282 l 1,258,259
 1219 299 1219 299 1220 324 c 1,260,256
 1201 302 1201 302 1187 304 c 1,257,-1
1119 267 m 1,262,-1
 1119 248 l 1,263,264
 1175 267 1175 267 1170 299 c 1,265,261
 1158 277 1158 277 1119 267 c 1,262,-1
792 321 m 1,266,267
 791 280 791 280 835 260 c 1,268,-1
 834 280 l 1,269,270
 815 287 815 287 792 321 c 1,266,267
899 211 m 1,272,-1
 897 241 l 1,273,274
 870 251 870 251 851 269 c 1,275,271
 849 242 849 242 899 211 c 1,272,-1
1057 233 m 1,277,-1
 1055 209 l 1,278,279
 1104 228 1104 228 1104 261 c 1,280,276
 1075 234 1075 234 1057 233 c 1,277,-1
963 169 m 1,282,-1
 965 209 l 1,283,284
 940 208 940 208 914 230 c 1,285,281
 908 193 908 193 963 169 c 1,282,-1
990 209 m 1,287,-1
 990 168 l 1,288,289
 1045 194 1045 194 1039 225 c 1,290,286
 1015 208 1015 208 990 209 c 1,287,-1
EndSplineSet
EndChar

StartChar: percent
Encoding: 37 37 8
Width: 1516
Flags: W
LayerCount: 2
Fore
SplineSet
1240 1469 m 1,1,2
 1206 1458 1206 1458 1138.5 1422 c 128,-1,3
 1071 1386 1071 1386 927 1302 c 1,4,-1
 791 1212 l 1,5,-1
 1395 1211 l 1,6,-1
 681 0 l 1,7,-1
 438 435 l 1,8,9
 435 450 435 450 420 456 c 1,10,-1
 356 507 l 1,11,-1
 343 512 l 1,12,-1
 346 538 l 1,13,-1
 320 576 l 1,14,-1
 318 622 l 1,15,-1
 305 622 l 1,16,-1
 233 651 l 1,17,-1
 233 646 l 1,18,-1
 210 646 l 1,19,-1
 154 689 l 1,20,-1
 156 725 l 1,21,-1
 146 733 l 1,22,-1
 138 753 l 1,23,-1
 159 822 l 2,24,25
 164 834 164 834 179 840 c 1,26,-1
 187 858 l 1,27,-1
 187 871 l 1,28,-1
 -5 1217 l 1,29,-1
 653 1217 l 1,30,31
 750 1288 750 1288 879 1368 c 1,32,33
 1009 1440 1009 1440 1068 1468 c 256,34,35
 1127 1496 1127 1496 1141 1496 c 128,-1,0
 1155 1496 1155 1496 1240 1469 c 1,1,2
1043.5 1447.5 m 128,-1,37
 978 1414 978 1414 870.5 1348.5 c 128,-1,38
 763 1283 763 1283 648 1198.5 c 128,-1,39
 533 1114 533 1114 365 960 c 1,40,41
 389 948 389 948 415 971 c 0,42,43
 588 1123 588 1123 718 1212 c 128,-1,44
 848 1301 848 1301 933.5 1353.5 c 128,-1,45
 1019 1406 1019 1406 1163 1478 c 1,46,47
 1135 1486 1135 1486 1122 1483.5 c 128,-1,36
 1109 1481 1109 1481 1043.5 1447.5 c 128,-1,37
44 1189 m 1,48,-1
 197 907 l 1,49,-1
 207 897 l 1,50,-1
 228 899 l 1,51,-1
 231 909 l 2,52,53
 235 931 235 931 251 943 c 2,54,-1
 271 958 l 1,55,-1
 318 963 l 1,56,-1
 333 955 l 1,57,-1
 343 955 l 1,58,59
 469 1079 469 1079 616 1189 c 1,60,-1
 44 1189 l 1,48,-1
745 1181 m 1,61,62
 603 1079 603 1079 433 917 c 1,63,-1
 420 897 l 1,64,-1
 441 871 l 1,65,-1
 446 807 l 1,66,-1
 476 809 l 1,67,-1
 517 827 l 1,68,-1
 586 815 l 1,69,-1
 704 730 l 1,70,-1
 712 717 l 1,71,-1
 835 625 l 1,72,-1
 840 610 l 1,73,-1
 1040 669 l 2,74,75
 1054 674 1054 674 1058 692 c 1,76,-1
 1063 694 l 1,77,-1
 1339 1181 l 1,78,-1
 745 1181 l 1,61,62
300 930 m 1,79,-1
 374 876 l 1,80,-1
 374 886 l 1,81,-1
 346 915 l 1,82,-1
 333 917 l 1,83,-1
 312 930 l 1,84,-1
 300 930 l 1,79,-1
410 886 m 1,85,86
 412 870 412 870 428 866 c 1,87,88
 421 882 421 882 410 886 c 1,85,86
305 853 m 1,89,-1
 325 827 l 1,90,-1
 330 827 l 1,91,92
 330 842 330 842 318 850 c 2,93,-1
 259 879 l 1,94,-1
 305 853 l 1,89,-1
210 825 m 1,95,-1
 210 820 l 1,96,-1
 269 794 l 1,97,-1
 295 771 l 1,98,-1
 282 794 l 1,99,-1
 218 822 l 1,100,-1
 210 825 l 1,95,-1
425 825 m 1,101,-1
 410 792 l 1,102,-1
 430 817 l 1,103,-1
 430 825 l 1,104,-1
 425 825 l 1,101,-1
579 802 m 1,105,-1
 574 794 l 1,106,-1
 579 794 l 1,107,-1
 612 766 l 1,108,-1
 622 766 l 1,109,-1
 622 761 l 1,110,-1
 627 761 l 1,111,-1
 779 640 l 1,112,-1
 812 620 l 1,113,-1
 814 628 l 1,114,-1
 791 646 l 1,115,-1
 786 646 l 1,116,-1
 674 740 l 1,117,-1
 594 794 l 1,118,-1
 589 802 l 1,119,-1
 579 802 l 1,105,-1
505 794 m 1,120,-1
 471 740 l 1,121,-1
 481 745 l 1,122,-1
 512 781 l 1,123,-1
 530 786 l 1,124,-1
 558 766 l 1,125,-1
 561 756 l 1,126,-1
 528 707 l 1,127,-1
 530 692 l 1,128,-1
 525 679 l 1,129,-1
 502 653 l 1,130,-1
 502 648 l 1,131,-1
 497 648 l 1,132,-1
 474 615 l 1,133,-1
 451 612 l 1,134,-1
 441 607 l 1,135,-1
 410 571 l 1,136,137
 398 566 398 566 397 553 c 1,138,-1
 394 551 l 1,139,-1
 402 548 l 1,140,-1
 443 602 l 1,141,-1
 474 610 l 1,142,-1
 522 663 l 1,143,-1
 525 671 l 1,144,-1
 530 671 l 1,145,-1
 538 694 l 1,146,-1
 535 704 l 1,147,-1
 563 743 l 1,148,-1
 584 748 l 1,149,-1
 837 566 l 1,150,-1
 840 571 l 1,151,-1
 546 786 l 1,152,-1
 540 794 l 1,153,-1
 530 797 l 1,154,-1
 505 794 l 1,120,-1
190 771 m 1,155,-1
 190 766 l 1,156,-1
 213 758 l 1,157,-1
 261 720 l 1,158,159
 261 735 261 735 243 743 c 1,160,-1
 233 753 l 1,161,-1
 195 771 l 1,162,-1
 190 771 l 1,155,-1
612 687 m 1,163,-1
 489 541 l 1,164,-1
 489 533 l 1,165,-1
 494 533 l 1,166,-1
 612 669 l 1,167,-1
 625 669 l 1,168,-1
 799 541 l 1,169,-1
 786 507 l 1,170,-1
 809 538 l 1,171,-1
 807 546 l 1,172,-1
 802 546 l 1,173,-1
 781 569 l 1,174,-1
 712 622 l 1,175,-1
 630 676 l 1,176,177
 624 686 624 686 612 687 c 1,163,-1
1022 651 m 1,178,-1
 922 615 l 1,179,180
 905 614 905 614 904 605 c 1,181,-1
 925 612 l 1,182,-1
 940 612 l 1,183,-1
 1032 643 l 1,184,-1
 1032 651 l 1,185,-1
 1022 651 l 1,178,-1
927 576 m 1,186,-1
 940 497 l 1,187,-1
 945 497 l 1,188,-1
 945 525 l 1,189,-1
 935 569 l 1,190,-1
 986 581 l 2,191,192
 999 582 999 582 1001 597 c 1,193,-1
 989 597 l 1,194,-1
 927 576 l 1,186,-1
725 484 m 1,195,-1
 727 407 l 1,196,197
 735 407 735 407 738 418 c 1,198,-1
 784 469 l 1,199,-1
 794 487 l 1,200,-1
 799 487 l 1,201,-1
 799 497 l 1,202,-1
 725 484 l 1,195,-1
784 484 m 1,203,-1
 781 476 l 1,204,-1
 748 438 l 1,205,-1
 748 433 l 1,206,-1
 735 428 l 1,207,-1
 732 474 l 1,208,-1
 738 479 l 1,209,-1
 784 484 l 1,203,-1
684 59 m 1,210,-1
 794 238 l 1,211,-1
 789 251 l 1,212,-1
 661 256 l 1,213,-1
 643 310 l 1,214,-1
 546 387 l 1,215,-1
 466 441 l 1,216,-1
 684 59 l 1,210,-1
EndSplineSet
EndChar

StartChar: ampersand
Encoding: 38 38 9
Width: 1821
Flags: W
LayerCount: 2
Fore
SplineSet
1307 713 m 1,0,-1
 1625 642 l 1,1,2
 1600 554 1600 554 1577 501 c 128,-1,3
 1554 448 1554 448 1512 376 c 1,4,-1
 1665 271 l 2,5,6
 1693 253 1693 253 1737 228 c 1,7,-1
 1518 -24 l 1,8,9
 1458 8 1458 8 1393.5 50 c 128,-1,10
 1329 92 1329 92 1278 122 c 1,11,12
 1172 52 1172 52 1066 20 c 0,13,14
 919 -24 919 -24 732 -24 c 0,15,16
 439 -24 439 -24 296 98 c 128,-1,17
 153 220 153 220 153 394 c 0,18,19
 153 519 153 519 237 630.5 c 128,-1,20
 321 742 321 742 512 819 c 1,21,22
 432 916 432 916 402 987.5 c 128,-1,23
 372 1059 372 1059 372 1133 c 0,24,25
 372 1289 372 1289 491 1390 c 128,-1,26
 610 1491 610 1491 852 1491 c 0,27,28
 1099 1491 1099 1491 1215 1395 c 128,-1,29
 1331 1299 1331 1299 1331 1165 c 0,30,31
 1331 1090 1331 1090 1295.5 1021 c 128,-1,32
 1260 952 1260 952 1210 909 c 128,-1,33
 1160 866 1160 866 1031 781 c 1,34,35
 1138 674 1138 674 1254 582 c 1,36,37
 1285 644 1285 644 1307 713 c 1,0,-1
839 970 m 1,38,39
 918 1013 918 1013 961 1063.5 c 128,-1,40
 1004 1114 1004 1114 1004 1159 c 0,41,42
 1004 1206 1004 1206 968 1238.5 c 128,-1,43
 932 1271 932 1271 869 1271 c 0,44,45
 807 1271 807 1271 768 1235 c 128,-1,46
 729 1199 729 1199 729 1150 c 0,47,48
 729 1088 729 1088 839 970 c 1,38,39
694 614 m 1,49,50
 610 555 610 555 582.5 513 c 128,-1,51
 555 471 555 471 555 424 c 0,52,53
 555 351 555 351 618 294 c 128,-1,54
 681 237 681 237 782 237 c 0,55,56
 891 237 891 237 1027 322 c 1,57,58
 897 422 897 422 694 614 c 1,49,50
EndSplineSet
EndChar

StartChar: quotesingle
Encoding: 39 39 10
Width: 569
Flags: W
LayerCount: 2
Fore
SplineSet
85 1466 m 1,0,-1
 491 1466 l 1,1,-1
 491 1224 l 1,2,-1
 427 927 l 1,3,-1
 151 927 l 1,4,-1
 85 1224 l 1,5,-1
 85 1466 l 1,0,-1
EndSplineSet
EndChar

StartChar: parenleft
Encoding: 40 40 11
Width: 797
Flags: W
LayerCount: 2
Fore
SplineSet
463 1491 m 1,0,-1
 717 1491 l 1,1,2
 586 1201 586 1201 528 955 c 0,3,4
 479 746 479 746 479 509 c 0,5,6
 479 52 479 52 717 -431 c 1,7,-1
 463 -431 l 1,8,9
 269 -156 269 -156 190.5 66.5 c 128,-1,10
 112 289 112 289 112 533 c 0,11,12
 112 786 112 786 194.5 1014 c 128,-1,13
 277 1242 277 1242 463 1491 c 1,0,-1
EndSplineSet
EndChar

StartChar: parenright
Encoding: 41 41 12
Width: 797
Flags: W
LayerCount: 2
Fore
SplineSet
334 1491 m 1,0,-1
 80 1491 l 1,1,2
 211 1201 211 1201 269 955 c 0,3,4
 318 746 318 746 318 509 c 0,5,6
 318 52 318 52 80 -431 c 1,7,-1
 334 -431 l 1,8,9
 528 -156 528 -156 606.5 66.5 c 128,-1,10
 685 289 685 289 685 533 c 0,11,12
 685 786 685 786 602.5 1014 c 128,-1,13
 520 1242 520 1242 334 1491 c 1,0,-1
EndSplineSet
EndChar

StartChar: asterisk
Encoding: 42 42 13
Width: 1139
Flags: W
LayerCount: 2
Fore
SplineSet
453 1491 m 1,0,-1
 674 1491 l 1,1,-1
 656 1340 l 2,2,3
 650 1285 650 1285 631 1215 c 1,4,5
 669 1234 669 1234 681 1241 c 0,6,7
 723 1264 723 1264 745 1274 c 2,8,-1
 884 1340 l 1,9,-1
 953 1129 l 1,10,-1
 799 1097 l 2,11,12
 757 1089 757 1089 674 1086 c 1,13,14
 730 1042 730 1042 763 1006 c 2,15,-1
 867 893 l 1,16,-1
 687 758 l 1,17,-1
 613 893 l 2,18,19
 597 922 597 922 561 1006 c 1,20,21
 522 914 522 914 509 893 c 2,22,-1
 434 758 l 1,23,-1
 249 893 l 1,24,-1
 361 1006 l 2,25,26
 408 1053 408 1053 453 1086 c 1,27,28
 407 1090 407 1090 332 1104 c 2,29,-1
 177 1129 l 1,30,-1
 249 1340 l 1,31,-1
 388 1277 l 2,32,33
 410 1267 410 1267 497 1215 c 1,34,35
 478 1299 478 1299 473 1340 c 2,36,-1
 453 1491 l 1,0,-1
EndSplineSet
EndChar

StartChar: plus
Encoding: 43 43 14
Width: 1352
Flags: W
LayerCount: 2
Fore
SplineSet
127 894 m 1,0,-1
 510 894 l 1,1,-1
 510 1279 l 1,2,-1
 833 1279 l 1,3,-1
 833 894 l 1,4,-1
 1218 894 l 1,5,-1
 1218 570 l 1,6,-1
 833 570 l 1,7,-1
 833 187 l 1,8,-1
 510 187 l 1,9,-1
 510 570 l 1,10,-1
 127 570 l 1,11,-1
 127 894 l 1,0,-1
EndSplineSet
EndChar

StartChar: comma
Encoding: 44 44 15
Width: 682
Flags: W
LayerCount: 2
Fore
SplineSet
124 404 m 1,0,-1
 559 404 l 1,1,-1
 559 69 l 2,2,3
 559 -116 559 -116 482 -223 c 128,-1,4
 405 -330 405 -330 219 -412 c 1,5,-1
 124 -234 l 1,6,7
 240 -180 240 -180 283.5 -126.5 c 128,-1,8
 327 -73 327 -73 332 0 c 1,9,-1
 124 0 l 1,10,-1
 124 404 l 1,0,-1
EndSplineSet
EndChar

StartChar: hyphen
Encoding: 45 45 16
AltUni2: 0000ad.ffffffff.0
Width: 682
Flags: W
LayerCount: 2
Fore
SplineSet
45 692 m 1,0,-1
 637 692 l 1,1,-1
 637 377 l 1,2,-1
 45 377 l 1,3,-1
 45 692 l 1,0,-1
EndSplineSet
EndChar

StartChar: period
Encoding: 46 46 17
Width: 682
Flags: W
LayerCount: 2
Fore
SplineSet
124 408 m 1,0,-1
 559 408 l 1,1,-1
 559 0 l 1,2,-1
 124 0 l 1,3,-1
 124 408 l 1,0,-1
EndSplineSet
EndChar

StartChar: slash
Encoding: 47 47 18
Width: 569
Flags: W
LayerCount: 2
Fore
SplineSet
367 1491 m 1,0,-1
 575 1491 l 1,1,-1
 207 -24 l 1,2,-1
 1 -24 l 1,3,-1
 367 1491 l 1,0,-1
EndSplineSet
EndChar

StartChar: zero
Encoding: 48 48 19
Width: 1366
Flags: W
LayerCount: 2
Fore
SplineSet
84 739 m 0,0,1
 84 1157 84 1157 234.5 1324 c 128,-1,2
 385 1491 385 1491 693 1491 c 0,3,4
 841 1491 841 1491 936 1454.5 c 128,-1,5
 1031 1418 1031 1418 1091 1359.5 c 128,-1,6
 1151 1301 1151 1301 1185.5 1236.5 c 128,-1,7
 1220 1172 1220 1172 1241 1086 c 0,8,9
 1282 922 1282 922 1282 744 c 0,10,11
 1282 345 1282 345 1147 160 c 128,-1,12
 1012 -25 1012 -25 682 -25 c 0,13,14
 497 -25 497 -25 383 34 c 128,-1,15
 269 93 269 93 196 207 c 0,16,17
 143 288 143 288 113.5 428.5 c 128,-1,18
 84 569 84 569 84 739 c 0,0,1
488 738 m 0,19,20
 488 458 488 458 537.5 355.5 c 128,-1,21
 587 253 587 253 681 253 c 0,22,23
 743 253 743 253 788.5 296.5 c 128,-1,24
 834 340 834 340 855.5 434 c 128,-1,25
 877 528 877 528 877 727 c 0,26,27
 877 1019 877 1019 827.5 1119.5 c 128,-1,28
 778 1220 778 1220 679 1220 c 0,29,30
 578 1220 578 1220 533 1117.5 c 128,-1,31
 488 1015 488 1015 488 738 c 0,19,20
EndSplineSet
EndChar

StartChar: one
Encoding: 49 49 20
Width: 1366
Flags: W
LayerCount: 2
Fore
SplineSet
1007 1491 m 1,0,-1
 1007 0 l 1,1,-1
 595 0 l 1,2,-1
 595 977 l 1,3,4
 495 901 495 901 401.5 854 c 128,-1,5
 308 807 308 807 167 764 c 1,6,-1
 167 1098 l 1,7,8
 375 1165 375 1165 490 1259 c 128,-1,9
 605 1353 605 1353 670 1491 c 1,10,-1
 1007 1491 l 1,0,-1
EndSplineSet
EndChar

StartChar: two
Encoding: 50 50 21
Width: 1366
Flags: W
LayerCount: 2
Fore
SplineSet
1276 0 m 1,0,-1
 54 0 l 1,1,2
 75 181 75 181 181.5 340.5 c 128,-1,3
 288 500 288 500 581 717 c 0,4,5
 760 850 760 850 810 919 c 128,-1,6
 860 988 860 988 860 1050 c 0,7,8
 860 1117 860 1117 810.5 1164.5 c 128,-1,9
 761 1212 761 1212 686 1212 c 0,10,11
 608 1212 608 1212 558.5 1163 c 128,-1,12
 509 1114 509 1114 492 990 c 1,13,-1
 84 1023 l 1,14,15
 108 1195 108 1195 172 1291.5 c 128,-1,16
 236 1388 236 1388 352.5 1439.5 c 128,-1,17
 469 1491 469 1491 675 1491 c 0,18,19
 890 1491 890 1491 1009.5 1442 c 128,-1,20
 1129 1393 1129 1393 1197.5 1291.5 c 128,-1,21
 1266 1190 1266 1190 1266 1064 c 0,22,23
 1266 930 1266 930 1187.5 808 c 128,-1,24
 1109 686 1109 686 902 540 c 0,25,26
 779 455 779 455 737.5 421 c 128,-1,27
 696 387 696 387 640 332 c 1,28,-1
 1276 332 l 1,29,-1
 1276 0 l 1,0,-1
EndSplineSet
EndChar

StartChar: three
Encoding: 51 51 22
Width: 1366
Flags: W
LayerCount: 2
Fore
SplineSet
479 1042 m 1,0,-1
 94 1111 l 1,1,2
 142 1295 142 1295 278.5 1393 c 128,-1,3
 415 1491 415 1491 665 1491 c 0,4,5
 952 1491 952 1491 1080 1384 c 128,-1,6
 1208 1277 1208 1277 1208 1115 c 0,7,8
 1208 1020 1208 1020 1156 943 c 128,-1,9
 1104 866 1104 866 999 808 c 1,10,11
 1084 787 1084 787 1129 759 c 0,12,13
 1202 714 1202 714 1242.5 640.5 c 128,-1,14
 1283 567 1283 567 1283 465 c 0,15,16
 1283 337 1283 337 1216 219.5 c 128,-1,17
 1149 102 1149 102 1023 38.5 c 128,-1,18
 897 -25 897 -25 692 -25 c 0,19,20
 492 -25 492 -25 376.5 22 c 128,-1,21
 261 69 261 69 186.5 159.5 c 128,-1,22
 112 250 112 250 72 387 c 1,23,-1
 479 441 l 1,24,25
 503 318 503 318 553.5 270.5 c 128,-1,26
 604 223 604 223 682 223 c 0,27,28
 764 223 764 223 818.5 283 c 128,-1,29
 873 343 873 343 873 443 c 0,30,31
 873 545 873 545 820.5 601 c 128,-1,32
 768 657 768 657 678 657 c 0,33,34
 630 657 630 657 546 633 c 1,35,-1
 567 924 l 1,36,37
 601 919 601 919 620 919 c 0,38,39
 700 919 700 919 753.5 970 c 128,-1,40
 807 1021 807 1021 807 1091 c 0,41,42
 807 1158 807 1158 767 1198 c 128,-1,43
 727 1238 727 1238 657 1238 c 0,44,45
 585 1238 585 1238 540 1194.5 c 128,-1,46
 495 1151 495 1151 479 1042 c 1,0,-1
EndSplineSet
EndChar

StartChar: four
Encoding: 52 52 23
Width: 1366
Flags: W
LayerCount: 2
Fore
SplineSet
784 274 m 1,0,-1
 42 274 l 1,1,-1
 42 609 l 1,2,-1
 784 1491 l 1,3,-1
 1139 1491 l 1,4,-1
 1139 590 l 1,5,-1
 1323 590 l 1,6,-1
 1323 274 l 1,7,-1
 1139 274 l 1,8,-1
 1139 0 l 1,9,-1
 784 0 l 1,10,-1
 784 274 l 1,0,-1
784 590 m 1,11,-1
 784 1051 l 1,12,-1
 392 590 l 1,13,-1
 784 590 l 1,11,-1
EndSplineSet
EndChar

StartChar: five
Encoding: 53 53 24
Width: 1366
Flags: W
LayerCount: 2
Fore
SplineSet
249 1466 m 1,0,-1
 1216 1466 l 1,1,-1
 1216 1141 l 1,2,-1
 561 1141 l 1,3,-1
 526 921 l 1,4,5
 594 953 594 953 660.5 969 c 128,-1,6
 727 985 727 985 792 985 c 0,7,8
 1012 985 1012 985 1149 852 c 128,-1,9
 1286 719 1286 719 1286 517 c 0,10,11
 1286 375 1286 375 1215.5 244 c 128,-1,12
 1145 113 1145 113 1015.5 44 c 128,-1,13
 886 -25 886 -25 684 -25 c 0,14,15
 539 -25 539 -25 435.5 2.5 c 128,-1,16
 332 30 332 30 259.5 84.5 c 128,-1,17
 187 139 187 139 142 208 c 128,-1,18
 97 277 97 277 67 380 c 1,19,-1
 479 425 l 1,20,21
 494 326 494 326 549 274.5 c 128,-1,22
 604 223 604 223 680 223 c 0,23,24
 765 223 765 223 820.5 287.5 c 128,-1,25
 876 352 876 352 876 480 c 0,26,27
 876 611 876 611 820 672 c 128,-1,28
 764 733 764 733 671 733 c 0,29,30
 612 733 612 733 557 704 c 0,31,32
 516 683 516 683 467 628 c 1,33,-1
 120 678 l 1,34,-1
 249 1466 l 1,0,-1
EndSplineSet
EndChar

StartChar: six
Encoding: 54 54 25
Width: 1366
Flags: W
LayerCount: 2
Fore
SplineSet
1263 1136 m 1,0,-1
 858 1086 l 1,1,2
 842 1171 842 1171 804.5 1206 c 128,-1,3
 767 1241 767 1241 712 1241 c 0,4,5
 613 1241 613 1241 558 1141 c 0,6,7
 518 1069 518 1069 499 833 c 1,8,9
 572 907 572 907 649 942.5 c 128,-1,10
 726 978 726 978 827 978 c 0,11,12
 1023 978 1023 978 1158.5 838 c 128,-1,13
 1294 698 1294 698 1294 483 c 0,14,15
 1294 338 1294 338 1225.5 218 c 128,-1,16
 1157 98 1157 98 1035.5 36.5 c 128,-1,17
 914 -25 914 -25 731 -25 c 0,18,19
 511 -25 511 -25 378 50 c 128,-1,20
 245 125 245 125 165.5 289.5 c 128,-1,21
 86 454 86 454 86 725 c 0,22,23
 86 1122 86 1122 253 1306.5 c 128,-1,24
 420 1491 420 1491 716 1491 c 0,25,26
 891 1491 891 1491 992.5 1450.5 c 128,-1,27
 1094 1410 1094 1410 1161 1332 c 128,-1,28
 1228 1254 1228 1254 1263 1136 c 1,0,-1
513 483 m 0,29,30
 513 364 513 364 573 296.5 c 128,-1,31
 633 229 633 229 720 229 c 0,32,33
 800 229 800 229 854 290 c 128,-1,34
 908 351 908 351 908 472 c 0,35,36
 908 596 908 596 852 661 c 128,-1,37
 796 726 796 726 713 726 c 0,38,39
 628 726 628 726 570.5 663 c 128,-1,40
 513 600 513 600 513 483 c 0,29,30
EndSplineSet
EndChar

StartChar: seven
Encoding: 55 55 26
Width: 1366
Flags: W
LayerCount: 2
Fore
SplineSet
91 1466 m 1,0,-1
 1280 1466 l 1,1,-1
 1280 1191 l 1,2,3
 1125 1051 1125 1051 1021 888 c 0,4,5
 895 690 895 690 822 447 c 0,6,7
 764 258 764 258 744 0 c 1,8,-1
 338 0 l 1,9,10
 386 359 386 359 489 602 c 128,-1,11
 592 845 592 845 815 1122 c 1,12,-1
 91 1122 l 1,13,-1
 91 1466 l 1,0,-1
EndSplineSet
EndChar

StartChar: eight
Encoding: 56 56 27
Width: 1366
Flags: W
LayerCount: 2
Fore
SplineSet
329 788 m 1,0,1
 233 839 233 839 189 902 c 0,2,3
 129 988 129 988 129 1100 c 0,4,5
 129 1284 129 1284 302 1401 c 0,6,7
 437 1491 437 1491 659 1491 c 0,8,9
 953 1491 953 1491 1093.5 1379 c 128,-1,10
 1234 1267 1234 1267 1234 1097 c 0,11,12
 1234 998 1234 998 1178 912 c 0,13,14
 1136 848 1136 848 1046 788 c 1,15,16
 1165 731 1165 731 1223.5 637 c 128,-1,17
 1282 543 1282 543 1282 429 c 0,18,19
 1282 319 1282 319 1231.5 223.5 c 128,-1,20
 1181 128 1181 128 1107.5 76 c 128,-1,21
 1034 24 1034 24 924.5 -0.5 c 128,-1,22
 815 -25 815 -25 691 -25 c 0,23,24
 458 -25 458 -25 335 30 c 128,-1,25
 212 85 212 85 148 192 c 128,-1,26
 84 299 84 299 84 431 c 0,27,28
 84 560 84 560 144 649.5 c 128,-1,29
 204 739 204 739 329 788 c 1,0,1
512 1076 m 0,30,31
 512 1000 512 1000 559.5 953.5 c 128,-1,32
 607 907 607 907 686 907 c 0,33,34
 756 907 756 907 801 953 c 128,-1,35
 846 999 846 999 846 1072 c 0,36,37
 846 1148 846 1148 799 1195.5 c 128,-1,38
 752 1243 752 1243 679 1243 c 0,39,40
 605 1243 605 1243 558.5 1196.5 c 128,-1,41
 512 1150 512 1150 512 1076 c 0,30,31
490 445 m 0,42,43
 490 348 490 348 549 286.5 c 128,-1,44
 608 225 608 225 684 225 c 0,45,46
 757 225 757 225 815 287.5 c 128,-1,47
 873 350 873 350 873 446 c 0,48,49
 873 543 873 543 814.5 605 c 128,-1,50
 756 667 756 667 679 667 c 0,51,52
 603 667 603 667 546.5 607 c 128,-1,53
 490 547 490 547 490 445 c 0,42,43
EndSplineSet
EndChar

StartChar: nine
Encoding: 57 57 28
Width: 1366
Flags: W
LayerCount: 2
Fore
SplineSet
102 329 m 1,0,-1
 507 380 l 1,1,2
 523 295 523 295 561 260 c 128,-1,3
 599 225 599 225 654 225 c 0,4,5
 752 225 752 225 807 324 c 0,6,7
 847 397 847 397 867 633 c 1,8,9
 794 558 794 558 717 523 c 128,-1,10
 640 488 640 488 539 488 c 0,11,12
 342 488 342 488 206.5 628 c 128,-1,13
 71 768 71 768 71 982 c 0,14,15
 71 1128 71 1128 140 1248 c 128,-1,16
 209 1368 209 1368 330 1429.5 c 128,-1,17
 451 1491 451 1491 634 1491 c 0,18,19
 854 1491 854 1491 987 1415.5 c 128,-1,20
 1120 1340 1120 1340 1199.5 1175.5 c 128,-1,21
 1279 1011 1279 1011 1279 741 c 0,22,23
 1279 344 1279 344 1112 159.5 c 128,-1,24
 945 -25 945 -25 649 -25 c 0,25,26
 474 -25 474 -25 373 15.5 c 128,-1,27
 272 56 272 56 205 134 c 128,-1,28
 138 212 138 212 102 329 c 1,0,-1
852 983 m 0,29,30
 852 1102 852 1102 792 1169.5 c 128,-1,31
 732 1237 732 1237 646 1237 c 0,32,33
 565 1237 565 1237 511.5 1176 c 128,-1,34
 458 1115 458 1115 458 993 c 0,35,36
 458 870 458 870 513.5 805 c 128,-1,37
 569 740 569 740 652 740 c 0,38,39
 738 740 738 740 795 803 c 128,-1,40
 852 866 852 866 852 983 c 0,29,30
EndSplineSet
EndChar

StartChar: colon
Encoding: 58 58 29
Width: 682
Flags: W
LayerCount: 2
Fore
SplineSet
124 1062 m 1,0,-1
 559 1062 l 1,1,-1
 559 654 l 1,2,-1
 124 654 l 1,3,-1
 124 1062 l 1,0,-1
124 408 m 1,4,-1
 559 408 l 1,5,-1
 559 0 l 1,6,-1
 124 0 l 1,7,-1
 124 408 l 1,4,-1
EndSplineSet
EndChar

StartChar: semicolon
Encoding: 59 59 30
AltUni2: 00037e.ffffffff.0
Width: 682
Flags: W
LayerCount: 2
Fore
SplineSet
124 1062 m 1,0,-1
 559 1062 l 1,1,-1
 559 654 l 1,2,-1
 124 654 l 1,3,-1
 124 1062 l 1,0,-1
124 404 m 1,4,-1
 559 404 l 1,5,-1
 559 69 l 2,6,7
 559 -116 559 -116 482 -223 c 128,-1,8
 405 -330 405 -330 219 -412 c 1,9,-1
 124 -234 l 1,10,11
 240 -180 240 -180 283.5 -126.5 c 128,-1,12
 327 -73 327 -73 332 0 c 1,13,-1
 124 0 l 1,14,-1
 124 404 l 1,4,-1
EndSplineSet
EndChar

StartChar: less
Encoding: 60 60 31
Width: 1352
Flags: W
LayerCount: 2
Fore
SplineSet
1244 112 m 1,0,-1
 107 585 l 1,1,-1
 107 881 l 1,2,-1
 1244 1353 l 1,3,-1
 1244 998 l 1,4,-1
 553 732 l 1,5,-1
 1244 465 l 1,6,-1
 1244 112 l 1,0,-1
EndSplineSet
EndChar

StartChar: equal
Encoding: 61 61 32
Width: 1352
Flags: W
LayerCount: 2
Fore
SplineSet
126 1141 m 1,0,-1
 1218 1141 l 1,1,-1
 1218 816 l 1,2,-1
 126 816 l 1,3,-1
 126 1141 l 1,0,-1
126 649 m 1,4,-1
 1218 649 l 1,5,-1
 1218 325 l 1,6,-1
 126 325 l 1,7,-1
 126 649 l 1,4,-1
EndSplineSet
EndChar

StartChar: greater
Encoding: 62 62 33
Width: 1352
Flags: W
LayerCount: 2
Fore
SplineSet
108 112 m 1,0,-1
 1245 585 l 1,1,-1
 1245 881 l 1,2,-1
 108 1353 l 1,3,-1
 108 998 l 1,4,-1
 799 732 l 1,5,-1
 108 465 l 1,6,-1
 108 112 l 1,0,-1
EndSplineSet
EndChar

StartChar: question
Encoding: 63 63 34
Width: 1251
Flags: W
LayerCount: 2
Fore
SplineSet
785 460 m 1,0,-1
 405 460 l 1,1,-1
 405 498 l 2,2,3
 405 595 405 595 427 655.5 c 128,-1,4
 449 716 449 716 492.5 766 c 128,-1,5
 536 816 536 816 688 942 c 0,6,7
 769 1008 769 1008 769 1063 c 256,8,9
 769 1118 769 1118 736.5 1148.5 c 128,-1,10
 704 1179 704 1179 638 1179 c 0,11,12
 567 1179 567 1179 520.5 1132 c 128,-1,13
 474 1085 474 1085 461 968 c 1,14,-1
 73 1016 l 1,15,16
 93 1230 93 1230 228.5 1360.5 c 128,-1,17
 364 1491 364 1491 644 1491 c 0,18,19
 862 1491 862 1491 996 1400 c 0,20,21
 1178 1277 1178 1277 1178 1072 c 0,22,23
 1178 987 1178 987 1131 908 c 128,-1,24
 1084 829 1084 829 939 715 c 0,25,26
 838 635 838 635 811.5 586.5 c 128,-1,27
 785 538 785 538 785 460 c 1,0,-1
392 359 m 1,28,-1
 799 359 l 1,29,-1
 799 0 l 1,30,-1
 392 0 l 1,31,-1
 392 359 l 1,28,-1
EndSplineSet
EndChar

StartChar: at
Encoding: 64 64 35
Width: 1600
Flags: W
LayerCount: 2
Fore
SplineSet
863 1490.5 m 128,-1,1
 924 1481 924 1481 994 1457 c 128,-1,2
 1064 1433 1064 1433 1106.5 1409 c 128,-1,3
 1149 1385 1149 1385 1185 1359 c 128,-1,4
 1221 1333 1221 1333 1240 1316.5 c 128,-1,5
 1259 1300 1259 1300 1297 1260 c 128,-1,6
 1335 1220 1335 1220 1364.5 1175.5 c 128,-1,7
 1394 1131 1394 1131 1414.5 1092.5 c 128,-1,8
 1435 1054 1435 1054 1452.5 1005 c 128,-1,9
 1470 956 1470 956 1479.5 915 c 128,-1,10
 1489 874 1489 874 1493.5 825 c 128,-1,11
 1498 776 1498 776 1497 737 c 128,-1,12
 1496 698 1496 698 1487 636.5 c 128,-1,13
 1478 575 1478 575 1453.5 505.5 c 128,-1,14
 1429 436 1429 436 1417 413 c 128,-1,15
 1405 390 1405 390 1383 353.5 c 128,-1,16
 1361 317 1361 317 1325.5 271.5 c 128,-1,17
 1290 226 1290 226 1237 183.5 c 128,-1,18
 1184 141 1184 141 1163.5 127 c 128,-1,19
 1143 113 1143 113 1081 81.5 c 128,-1,20
 1019 50 1019 50 985.5 39 c 128,-1,21
 952 28 952 28 921.5 20.5 c 128,-1,22
 891 13 891 13 842 7.5 c 128,-1,23
 793 2 793 2 767 1 c 128,-1,24
 741 0 741 0 707.5 2 c 128,-1,25
 674 4 674 4 654.5 6.5 c 128,-1,26
 635 9 635 9 588.5 19.5 c 128,-1,27
 542 30 542 30 507.5 41 c 128,-1,28
 473 52 473 52 430.5 72.5 c 128,-1,29
 388 93 388 93 339 125.5 c 128,-1,30
 290 158 290 158 241.5 203.5 c 128,-1,31
 193 249 193 249 154 300 c 128,-1,32
 115 351 115 351 89 399 c 128,-1,33
 63 447 63 447 50 481.5 c 128,-1,34
 37 516 37 516 24 567 c 128,-1,35
 11 618 11 618 5.5 664.5 c 128,-1,36
 0 711 0 711 0 750 c 128,-1,37
 0 789 0 789 4.5 827 c 128,-1,38
 9 865 9 865 19.5 914 c 128,-1,39
 30 963 30 963 49.5 1014.5 c 128,-1,40
 69 1066 69 1066 81 1089 c 128,-1,41
 93 1112 93 1112 110.5 1141 c 128,-1,42
 128 1170 128 1170 153.5 1203.5 c 128,-1,43
 179 1237 179 1237 213 1273 c 128,-1,44
 247 1309 247 1309 287 1339.5 c 128,-1,45
 327 1370 327 1370 365 1393 c 128,-1,46
 403 1416 403 1416 447.5 1436.5 c 128,-1,47
 492 1457 492 1457 518 1465.5 c 128,-1,48
 544 1474 544 1474 583 1482.5 c 128,-1,49
 622 1491 622 1491 665.5 1495.5 c 128,-1,50
 709 1500 709 1500 755.5 1500 c 128,-1,0
 802 1500 802 1500 863 1490.5 c 128,-1,1
614.5 1396 m 128,-1,52
 561 1385 561 1385 502.5 1361 c 128,-1,53
 444 1337 444 1337 406 1312.5 c 128,-1,54
 368 1288 368 1288 346.5 1271.5 c 128,-1,55
 325 1255 325 1255 292.5 1223.5 c 128,-1,56
 260 1192 260 1192 232 1157.5 c 128,-1,57
 204 1123 204 1123 182 1084 c 128,-1,58
 160 1045 160 1045 147 1016.5 c 128,-1,59
 134 988 134 988 124.5 960 c 128,-1,60
 115 932 115 932 106.5 895 c 128,-1,61
 98 858 98 858 94.5 812.5 c 128,-1,62
 91 767 91 767 91 744.5 c 128,-1,63
 91 722 91 722 96.5 676.5 c 128,-1,64
 102 631 102 631 109.5 597 c 128,-1,65
 117 563 117 563 134.5 518 c 128,-1,66
 152 473 152 473 173.5 433.5 c 128,-1,67
 195 394 195 394 229.5 349 c 128,-1,68
 264 304 264 304 295.5 274.5 c 128,-1,69
 327 245 327 245 365 217 c 128,-1,70
 403 189 403 189 430 174.5 c 128,-1,71
 457 160 457 160 484.5 148 c 128,-1,72
 512 136 512 136 559.5 121 c 128,-1,73
 607 106 607 106 659 98.5 c 128,-1,74
 711 91 711 91 753.5 92 c 128,-1,75
 796 93 796 93 814.5 95 c 128,-1,76
 833 97 833 97 884.5 107 c 128,-1,77
 936 117 936 117 981.5 134.5 c 128,-1,78
 1027 152 1027 152 1053.5 166 c 128,-1,79
 1080 180 1080 180 1128.5 214.5 c 128,-1,80
 1177 249 1177 249 1226 302 c 128,-1,81
 1275 355 1275 355 1300 393 c 128,-1,82
 1325 431 1325 431 1344.5 472.5 c 128,-1,83
 1364 514 1364 514 1378 561.5 c 128,-1,84
 1392 609 1392 609 1398.5 656.5 c 128,-1,85
 1405 704 1405 704 1405 751 c 128,-1,86
 1405 798 1405 798 1400.5 834.5 c 128,-1,87
 1396 871 1396 871 1388.5 904.5 c 128,-1,88
 1381 938 1381 938 1370 968.5 c 128,-1,89
 1359 999 1359 999 1338.5 1040.5 c 128,-1,90
 1318 1082 1318 1082 1302 1107 c 128,-1,91
 1286 1132 1286 1132 1267.5 1155.5 c 128,-1,92
 1249 1179 1249 1179 1221.5 1208.5 c 128,-1,93
 1194 1238 1194 1238 1157.5 1267 c 128,-1,94
 1121 1296 1121 1296 1071 1324.5 c 128,-1,95
 1021 1353 1021 1353 972.5 1371 c 128,-1,96
 924 1389 924 1389 907.5 1392.5 c 128,-1,97
 891 1396 891 1396 837 1403.5 c 128,-1,98
 783 1411 783 1411 746 1411 c 128,-1,99
 709 1411 709 1411 688.5 1409 c 128,-1,51
 668 1407 668 1407 614.5 1396 c 128,-1,52
788 1390 m 1,100,101
 763 1356 763 1356 770 1331 c 1,102,103
 803 1370 803 1370 874 1383 c 1,104,105
 843 1362 843 1362 848 1337 c 1,106,107
 883 1368 883 1368 936 1359 c 1,108,109
 920 1346 920 1346 923 1333 c 1,110,111
 967 1352 967 1352 1009 1340 c 1,112,113
 985 1331 985 1331 991 1309 c 1,114,115
 1011 1325 1011 1325 1056 1310 c 1,116,117
 1033 1305 1033 1305 1030 1288 c 1,118,119
 1080 1298 1080 1298 1096 1279 c 1,120,121
 1074 1277 1074 1277 1073 1262 c 1,122,123
 1103 1266 1103 1266 1127 1253 c 1,124,125
 1115 1248 1115 1248 1112 1238 c 1,126,127
 1134 1238 1134 1238 1146 1227 c 1,128,129
 1136 1220 1136 1220 1137.5 1216 c 128,-1,130
 1139 1212 1139 1212 1144.5 1211.5 c 128,-1,131
 1150 1211 1150 1211 1164 1203 c 1,132,-1
 1158 1198 l 1,133,134
 1182 1171 1182 1171 1219.5 1124 c 128,-1,135
 1257 1077 1257 1077 1276.5 1036 c 128,-1,136
 1296 995 1296 995 1313.5 943 c 128,-1,137
 1331 891 1331 891 1337.5 848.5 c 128,-1,138
 1344 806 1344 806 1342 748.5 c 128,-1,139
 1340 691 1340 691 1330 640.5 c 128,-1,140
 1320 590 1320 590 1307 555 c 128,-1,141
 1294 520 1294 520 1278 487.5 c 128,-1,142
 1262 455 1262 455 1234.5 411.5 c 128,-1,143
 1207 368 1207 368 1183.5 342.5 c 128,-1,144
 1160 317 1160 317 1134 295 c 128,-1,145
 1108 273 1108 273 1086.5 258 c 128,-1,146
 1065 243 1065 243 1026.5 222.5 c 128,-1,147
 988 202 988 202 967 199 c 1,148,149
 961 187 961 187 944 182 c 1,150,-1
 943 188 l 1,151,152
 935 179 935 179 918 173 c 1,153,-1
 920 181 l 1,154,155
 906 167 906 167 884 165 c 1,156,157
 862 174 862 174 843 164 c 128,-1,158
 824 154 824 154 797 151.5 c 128,-1,159
 770 149 770 149 720.5 152 c 128,-1,160
 671 155 671 155 617 168 c 1,161,162
 597 163 597 163 536 185 c 128,-1,163
 475 207 475 207 435.5 242.5 c 128,-1,164
 396 278 396 278 380 321 c 128,-1,165
 364 364 364 364 362 395.5 c 128,-1,166
 360 427 360 427 364 448.5 c 128,-1,167
 368 470 368 470 375 491 c 128,-1,168
 382 512 382 512 395 534.5 c 128,-1,169
 408 557 408 557 411 566 c 128,-1,170
 414 575 414 575 414 581.5 c 128,-1,171
 414 588 414 588 406.5 598.5 c 128,-1,172
 399 609 399 609 390 611.5 c 128,-1,173
 381 614 381 614 368.5 612 c 128,-1,174
 356 610 356 610 345 599 c 128,-1,175
 334 588 334 588 321 566 c 128,-1,176
 308 544 308 544 299 505 c 128,-1,177
 290 466 290 466 288 369 c 1,178,179
 249 421 249 421 231 452 c 128,-1,180
 213 483 213 483 202 508 c 128,-1,181
 191 533 191 533 180 566.5 c 128,-1,182
 169 600 169 600 161.5 639.5 c 128,-1,183
 154 679 154 679 152 722 c 128,-1,184
 150 765 150 765 157.5 821.5 c 128,-1,185
 165 878 165 878 172.5 906 c 128,-1,186
 180 934 180 934 194 968 c 128,-1,187
 208 1002 208 1002 229.5 1041 c 128,-1,188
 251 1080 251 1080 271 1108 c 128,-1,189
 291 1136 291 1136 315.5 1160 c 128,-1,190
 340 1184 340 1184 379 1216.5 c 128,-1,191
 418 1249 418 1249 437 1259 c 1,192,193
 375 1205 375 1205 346 1173.5 c 128,-1,194
 317 1142 317 1142 297 1115 c 128,-1,195
 277 1088 277 1088 254.5 1050 c 128,-1,196
 232 1012 232 1012 218 977.5 c 128,-1,197
 204 943 204 943 194 905 c 128,-1,198
 184 867 184 867 181 794.5 c 128,-1,199
 178 722 178 722 188.5 669 c 128,-1,200
 199 616 199 616 204.5 597.5 c 128,-1,201
 210 579 210 579 238 511 c 1,202,203
 252 542 252 542 261 566.5 c 128,-1,204
 270 591 270 591 289.5 619 c 128,-1,205
 309 647 309 647 329.5 665 c 128,-1,206
 350 683 350 683 372.5 697 c 128,-1,207
 395 711 395 711 430.5 719.5 c 128,-1,208
 466 728 466 728 499.5 728 c 128,-1,209
 533 728 533 728 567 720.5 c 128,-1,210
 601 713 601 713 633.5 698 c 128,-1,211
 666 683 666 683 689.5 670 c 128,-1,212
 713 657 713 657 764 623.5 c 128,-1,213
 815 590 815 590 840 579 c 128,-1,214
 865 568 865 568 883.5 563.5 c 128,-1,215
 902 559 902 559 937.5 558 c 128,-1,216
 973 557 973 557 1001.5 564.5 c 128,-1,217
 1030 572 1030 572 1045 580 c 128,-1,218
 1060 588 1060 588 1079.5 605 c 128,-1,219
 1099 622 1099 622 1115.5 641.5 c 128,-1,220
 1132 661 1132 661 1150 691.5 c 128,-1,221
 1168 722 1168 722 1173.5 748 c 128,-1,222
 1179 774 1179 774 1180 823.5 c 128,-1,223
 1181 873 1181 873 1178 894 c 128,-1,224
 1175 915 1175 915 1163 951.5 c 128,-1,225
 1151 988 1151 988 1138 1010 c 128,-1,226
 1125 1032 1125 1032 1114 1045 c 128,-1,227
 1103 1058 1103 1058 1083.5 1075 c 128,-1,228
 1064 1092 1064 1092 1041.5 1105.5 c 128,-1,229
 1019 1119 1019 1119 984.5 1133 c 128,-1,230
 950 1147 950 1147 924 1150 c 128,-1,231
 898 1153 898 1153 886 1152 c 128,-1,232
 874 1151 874 1151 861 1146.5 c 128,-1,233
 848 1142 848 1142 841 1142.5 c 128,-1,234
 834 1143 834 1143 835.5 1136 c 128,-1,235
 837 1129 837 1129 830.5 1119 c 128,-1,236
 824 1109 824 1109 806 1101 c 1,237,238
 809 1021 809 1021 818.5 1006 c 128,-1,239
 828 991 828 991 864.5 975 c 128,-1,240
 901 959 901 959 889 928 c 1,241,242
 907 949 907 949 934 947 c 1,243,244
 910 933 910 933 915 921 c 1,245,246
 926 923 926 923 936 933 c 1,247,248
 934 921 934 921 919 904 c 1,249,250
 950 919 950 919 976 956 c 1,251,252
 944 854 944 854 887 876 c 1,253,254
 892 836 892 836 837 833 c 128,-1,255
 782 830 782 830 761 856 c 1,256,257
 814 850 814 850 824.5 859 c 128,-1,258
 835 868 835 868 819 878 c 1,259,260
 798 865 798 865 774 889 c 1,261,262
 823 885 823 885 811 910 c 1,263,264
 800 909 800 909 806 922 c 1,265,266
 792 940 792 940 784 910 c 1,267,268
 771 924 771 924 781 939 c 1,269,270
 745 947 745 947 736.5 975.5 c 128,-1,271
 728 1004 728 1004 704.5 1026 c 128,-1,272
 681 1048 681 1048 647.5 1042 c 128,-1,273
 614 1036 614 1036 590.5 1010 c 128,-1,274
 567 984 567 984 561 967 c 128,-1,275
 555 950 555 950 555 929 c 1,276,-1
 542 926 l 1,277,278
 536 911 536 911 556 909 c 1,279,280
 539 894 539 894 525 902 c 1,281,282
 526 882 526 882 554 885 c 1,283,284
 541 867 541 867 518 876 c 1,285,286
 524 853 524 853 562 863 c 1,287,288
 541 840 541 840 522 847 c 1,289,290
 528 827 528 827 589 839 c 1,291,292
 552 809 552 809 509 822 c 1,293,294
 508 811 508 811 492.5 810 c 128,-1,295
 477 809 477 809 458 845 c 1,296,297
 443 843 443 843 437 857 c 128,-1,298
 431 871 431 871 446 878 c 1,299,-1
 518 1053 l 1,300,301
 495 1056 495 1056 505 1090 c 1,302,303
 494 1112 494 1112 488 1129 c 1,304,305
 505 1123 505 1123 520 1127 c 1,306,-1
 522 1131 l 1,307,308
 490 1146 490 1146 481 1173 c 1,309,310
 503 1167 503 1167 525 1175 c 1,311,312
 486 1220 486 1220 503 1285 c 1,313,314
 530 1239 530 1239 555 1238 c 1,315,316
 561 1338 561 1338 635 1383 c 1,317,318
 611 1316 611 1316 631 1288 c 1,319,320
 648 1355 648 1355 708 1390 c 1,321,322
 688 1351 688 1351 704 1313 c 1,323,324
 721 1367 721 1367 788 1390 c 1,100,101
582 1122.5 m 128,-1,326
 574 1108 574 1108 583 1091 c 1,327,328
 587 1109 587 1109 601.5 1112 c 128,-1,329
 616 1115 616 1115 614 1126 c 128,-1,330
 612 1137 612 1137 601 1137 c 128,-1,325
 590 1137 590 1137 582 1122.5 c 128,-1,326
1295 630 m 1,331,332
 1305 597 1305 597 1266 529 c 1,333,334
 1255 552 1255 552 1244 551 c 128,-1,335
 1233 550 1233 550 1237 514 c 128,-1,336
 1241 478 1241 478 1190 429 c 1,337,338
 1181 468 1181 468 1156 472 c 1,339,340
 1154 402 1154 402 1090 377 c 1,341,342
 1096 412 1096 412 1077 427 c 1,343,344
 1057 351 1057 351 988 347 c 1,345,346
 999 383 999 383 982 395 c 1,347,348
 955 336 955 336 891 336 c 1,349,350
 916 370 916 370 898 395 c 1,351,352
 862 349 862 349 809 362 c 1,353,354
 848 382 848 382 843 407 c 1,355,356
 810 377 810 377 769 396 c 1,357,358
 807 409 807 409 800 427 c 1,359,360
 775 407 775 407 735 416 c 1,361,362
 762 432 762 432 754 447 c 1,363,364
 718 427 718 427 689 446 c 1,365,366
 715 456 715 456 707 472 c 1,367,368
 678 460 678 460 657 472 c 1,369,370
 681 478 681 478 679 496 c 1,371,372
 657 483 657 483 637 492 c 1,373,374
 658 504 658 504 653 511 c 1,375,376
 636 507 636 507 618 516 c 1,377,378
 630 519 630 519 630 529 c 128,-1,379
 630 539 630 539 620 541 c 128,-1,380
 610 543 610 543 600 533 c 1,381,382
 593 558 593 558 570 540 c 1,383,384
 529 586 529 586 475 531 c 1,385,386
 486 523 486 523 478 508 c 1,387,388
 466 523 466 523 457 514 c 1,389,390
 481 484 481 484 460 444 c 1,391,392
 445 472 445 472 423 470 c 1,393,394
 426 452 426 452 420 438 c 1,395,396
 470 416 470 416 488 353 c 1,397,398
 442 376 442 376 426 365 c 1,399,400
 490 345 490 345 504 311 c 1,401,402
 472 315 472 315 455 293 c 1,403,404
 519 305 519 305 560 281 c 1,405,406
 518 275 518 275 510 245 c 1,407,408
 572 257 572 257 593 243 c 1,409,410
 567 228 567 228 572 215 c 1,411,412
 596 226 596 226 618 219 c 1,413,414
 602 207 602 207 611 200 c 1,415,416
 632 207 632 207 653 202 c 1,417,418
 641 192 641 192 655 188 c 1,419,420
 666 200 666 200 686.5 193 c 128,-1,421
 707 186 707 186 758 185 c 128,-1,422
 809 184 809 184 838 186.5 c 128,-1,423
 867 189 867 189 895 195.5 c 128,-1,424
 923 202 923 202 949 210.5 c 128,-1,425
 975 219 975 219 1011 235 c 128,-1,426
 1047 251 1047 251 1075.5 270 c 128,-1,427
 1104 289 1104 289 1135.5 315 c 128,-1,428
 1167 341 1167 341 1201.5 388.5 c 128,-1,429
 1236 436 1236 436 1257.5 476 c 128,-1,430
 1279 516 1279 516 1300 567.5 c 128,-1,431
 1321 619 1321 619 1295 630 c 1,331,332
EndSplineSet
EndChar

StartChar: A
Encoding: 65 65 36
Width: 2250
Flags: W
LayerCount: 2
Fore
SplineSet
4 0 m 1,0,-1
 800 1500 l 1,1,-1
 1400 1500 l 1,2,-1
 2200 0 l 1,3,-1
 1700 0 l 1,4,-1
 1100 1200 l 1,5,-1
 500 0 l 1,6,-1
 4 0 l 1,0,-1
EndSplineSet
EndChar

StartChar: B
Encoding: 66 66 37
Width: 2050
Flags: W
LayerCount: 2
Fore
SplineSet
0 0 m 1,0,-1
 0 1500 l 1,1,-1
 450 1500 l 1,2,-1
 450 0 l 1,3,-1
 0 0 l 1,0,-1
450 900 m 1,4,-1
 1300 900 l 1,5,-1
 1300 750 l 1,6,-1
 1300 600 l 1,7,-1
 450 600 l 1,8,-1
 450 900 l 1,4,-1
600 1500 m 1,9,-1
 1300 1500 l 1,10,-1
 1300 1200 l 1,11,-1
 600 1200 l 1,12,-1
 600 1500 l 1,9,-1
600 300 m 1,13,-1
 1300 300 l 1,14,-1
 1300 0 l 1,15,-1
 600 0 l 1,16,-1
 600 300 l 1,13,-1
1298 1498 m 1,17,18
 1596 1500 1596 1500 1699.5 1396.5 c 128,-1,19
 1803 1293 1803 1293 1801.5 1170.5 c 128,-1,20
 1800 1048 1800 1048 1800 941.5 c 128,-1,21
 1800 835 1800 835 1701 758 c 1,22,23
 1900 659 1900 659 1900 449 c 0,24,25
 1900 0 1900 0 1500 0 c 2,26,-1
 1303 1 l 1,27,-1
 1298 298 l 1,28,29
 1400 300 1400 300 1460.5 375 c 128,-1,30
 1521 450 1521 450 1460.5 525 c 128,-1,31
 1400 600 1400 600 1300 603 c 1,32,-1
 1300 899 l 1,33,34
 1400 900 1400 900 1439 972.5 c 128,-1,35
 1478 1045 1478 1045 1439 1122.5 c 128,-1,36
 1400 1200 1400 1200 1298 1199 c 1,37,-1
 1298 1498 l 1,17,18
EndSplineSet
EndChar

StartChar: C
Encoding: 67 67 38
Width: 2200
Flags: W
LayerCount: 2
Fore
SplineSet
0 825 m 1,0,-1
 0 1150 l 2,1,2
 0 1496 0 1496 500 1500 c 1,3,-1
 1450 1500 l 2,4,5
 1950 1500 1950 1500 1950 1150 c 2,6,-1
 1950 900 l 1,7,-1
 1500 900 l 1,8,9
 1500 1200 1500 1200 1200 1200 c 2,10,-1
 750 1200 l 2,11,12
 450 1203 450 1203 450 950 c 2,13,-1
 450 825 l 1,14,-1
 0 825 l 1,0,-1
0 675 m 1,15,-1
 0 350 l 2,16,17
 0 0 0 0 500 0 c 2,18,-1
 1300 0 l 2,19,20
 1900 0 1900 0 2000 350 c 1,21,-1
 2000 600 l 1,22,-1
 1500 600 l 1,23,24
 1500 300 1500 300 1200 300 c 2,25,-1
 750 300 l 2,26,27
 450 300 450 300 450 550 c 2,28,-1
 450 675 l 1,29,-1
 0 675 l 1,15,-1
EndSplineSet
EndChar

StartChar: D
Encoding: 68 68 39
Width: 1950
Flags: W
LayerCount: 2
Fore
SplineSet
0 0 m 1,0,-1
 0 1500 l 1,1,-1
 450 1500 l 1,2,-1
 450 0 l 1,3,-1
 0 0 l 1,0,-1
600 1500 m 1,4,-1
 1300 1500 l 1,5,-1
 1300 1200 l 1,6,-1
 600 1200 l 1,7,-1
 600 1500 l 1,4,-1
600 300 m 1,8,-1
 1300 300 l 1,9,-1
 1300 0 l 1,10,-1
 600 0 l 1,11,-1
 600 300 l 1,8,-1
1298 1498 m 1,12,-1
 1450 1500 l 1,13,14
 1800 1500 1800 1500 1800 1203 c 2,15,-1
 1800 279 l 2,16,17
 1800 0 1800 0 1450 0 c 2,18,-1
 1303 1 l 1,19,-1
 1298 298 l 1,20,21
 1450 300 1450 300 1450 452 c 2,22,-1
 1450 1050 l 2,23,24
 1450 1203 1450 1203 1298 1199 c 1,25,-1
 1298 1498 l 1,12,-1
EndSplineSet
EndChar

StartChar: E
Encoding: 69 69 40
Width: 1800
Flags: W
LayerCount: 2
Fore
SplineSet
0 0 m 1,0,-1
 0 1500 l 1,1,-1
 450 1500 l 1,2,-1
 450 0 l 1,3,-1
 0 0 l 1,0,-1
450 900 m 1,4,-1
 1300 900 l 1,5,-1
 1300 600 l 1,6,-1
 450 600 l 1,7,-1
 450 900 l 1,4,-1
600 1500 m 1,8,-1
 1600 1500 l 1,9,-1
 1600 1100 l 1,10,-1
 600 1100 l 1,11,-1
 600 1500 l 1,8,-1
600 400 m 1,12,-1
 1600 400 l 1,13,-1
 1600 0 l 1,14,-1
 600 0 l 1,15,-1
 600 400 l 1,12,-1
EndSplineSet
EndChar

StartChar: F
Encoding: 70 70 41
Width: 1600
Flags: W
LayerCount: 2
Fore
SplineSet
0 0 m 1,0,-1
 0 1500 l 1,1,-1
 450 1500 l 1,2,-1
 450 0 l 1,3,-1
 0 0 l 1,0,-1
600 900 m 1,4,-1
 1300 900 l 1,5,-1
 1300 600 l 1,6,-1
 600 596 l 1,7,-1
 600 900 l 1,4,-1
450 1500 m 1,8,-1
 1400 1500 l 1,9,-1
 1400 1200 l 1,10,-1
 450 1203 l 1,11,-1
 450 1500 l 1,8,-1
EndSplineSet
EndChar

StartChar: G
Encoding: 71 71 42
Width: 2000
Flags: W
LayerCount: 2
Fore
SplineSet
0 825 m 1,0,-1
 0 1203 l 2,1,2
 0 1496 0 1496 450 1500 c 1,3,-1
 1300 1500 l 2,4,5
 1750 1500 1750 1500 1750 1203 c 2,6,-1
 1749 946 l 1,7,-1
 1300 950 l 1,8,9
 1300 1200 1300 1200 1100 1203 c 2,10,-1
 600 1203 l 2,11,12
 450 1203 450 1203 450 950 c 2,13,-1
 450 825 l 1,14,-1
 0 825 l 1,0,-1
0 675 m 1,15,-1
 0 300 l 2,16,17
 0 0 0 0 450 0 c 2,18,-1
 1300 0 l 1,19,-1
 1800 0 l 1,20,-1
 1800 450 l 2,21,22
 1800 750 1800 750 1546 750 c 2,23,-1
 1131 750 l 1,24,-1
 1131 600 l 1,25,26
 1350 600 1350 600 1350 450 c 256,27,28
 1350 300 1350 300 1100 300 c 2,29,-1
 600 300 l 2,30,31
 450 300 450 300 450 550 c 2,32,-1
 450 675 l 1,33,-1
 0 675 l 1,15,-1
EndSplineSet
EndChar

StartChar: H
Encoding: 72 72 43
Width: 2100
Flags: W
LayerCount: 2
Fore
SplineSet
0 0 m 1,0,-1
 0 1500 l 1,1,-1
 450 1500 l 1,2,-1
 450 0 l 1,3,-1
 0 0 l 1,0,-1
600 950 m 1,4,-1
 1300 950 l 1,5,-1
 1300 550 l 1,6,-1
 600 550 l 1,7,-1
 600 950 l 1,4,-1
1450 0 m 1,8,-1
 1450 1500 l 1,9,-1
 1900 1500 l 1,10,-1
 1900 0 l 1,11,-1
 1450 0 l 1,8,-1
EndSplineSet
EndChar

StartChar: I
Encoding: 73 73 44
Width: 650
Flags: W
LayerCount: 2
Fore
SplineSet
0 0 m 1,0,-1
 0 1500 l 1,1,-1
 450 1500 l 1,2,-1
 450 0 l 1,3,-1
 0 0 l 1,0,-1
EndSplineSet
EndChar

StartChar: J
Encoding: 74 74 45
Width: 1800
Flags: W
LayerCount: 2
Fore
SplineSet
1100 0 m 2,0,-1
 875 0 l 1,1,-1
 875 450 l 1,2,3
 1100 450 1100 450 1100 600 c 2,4,-1
 1100 1500 l 1,5,-1
 1550 1500 l 1,6,-1
 1550 450 l 2,7,8
 1550 0 1550 0 1100 0 c 2,0,-1
700 0 m 1,9,-1
 451 -2 l 2,10,11
 -2 -2 -2 -2 0 450 c 2,12,-1
 0 750 l 1,13,-1
 450 750 l 1,14,-1
 450 600 l 2,15,16
 450 450 450 450 700 450 c 1,17,-1
 700 0 l 1,9,-1
EndSplineSet
EndChar

StartChar: K
Encoding: 75 75 46
Width: 2000
Flags: W
LayerCount: 2
Fore
SplineSet
0 0 m 1,0,-1
 0 1500 l 1,1,-1
 450 1500 l 1,2,-1
 450 0 l 1,3,-1
 0 0 l 1,0,-1
450 600 m 1,4,-1
 559 600 l 1,5,-1
 1300 0 l 1,6,-1
 1800 0 l 1,7,-1
 688 900 l 1,8,-1
 450 900 l 1,9,-1
 450 600 l 1,4,-1
745 1051 m 1,10,-1
 1300 1500 l 1,11,-1
 1800 1500 l 1,12,-1
 1012 841 l 1,13,-1
 745 1051 l 1,10,-1
EndSplineSet
EndChar

StartChar: L
Encoding: 76 76 47
Width: 1800
Flags: W
LayerCount: 2
Fore
SplineSet
0 0 m 1,0,-1
 0 1500 l 1,1,-1
 450 1500 l 1,2,-1
 450 0 l 1,3,-1
 0 0 l 1,0,-1
600 400 m 1,4,-1
 1600 400 l 1,5,-1
 1600 0 l 1,6,-1
 600 0 l 1,7,-1
 600 400 l 1,4,-1
EndSplineSet
EndChar

StartChar: M
Encoding: 77 77 48
Width: 2600
Flags: W
LayerCount: 2
Fore
SplineSet
0 2 m 1,0,-1
 0 1500 l 1,1,-1
 700 1500 l 1,2,-1
 1200 600 l 1,3,-1
 1700 1500 l 1,4,-1
 2400 1500 l 1,5,-1
 2400 0 l 1,6,-1
 1950 0 l 1,7,-1
 1950 1000 l 1,8,-1
 1401 2 l 1,9,-1
 1001 -4 l 1,10,-1
 450 1000 l 1,11,-1
 445 2 l 1,12,-1
 0 2 l 1,0,-1
EndSplineSet
EndChar

StartChar: N
Encoding: 78 78 49
Width: 2300
Flags: W
LayerCount: 2
Fore
SplineSet
0 0 m 1,0,-1
 0 1500 l 1,1,-1
 450 1500 l 1,2,-1
 450 0 l 1,3,-1
 0 0 l 1,0,-1
550 1500 m 1,4,-1
 850 1500 l 1,5,-1
 1550 300 l 1,6,-1
 1550 0 l 1,7,-1
 1250 0 l 1,8,-1
 550 1200 l 1,9,-1
 550 1500 l 1,4,-1
1651 0 m 1,10,-1
 1651 1500 l 1,11,-1
 2101 1500 l 1,12,-1
 2101 0 l 1,13,-1
 1651 0 l 1,10,-1
EndSplineSet
EndChar

StartChar: O
Encoding: 79 79 50
Width: 1950
Flags: W
LayerCount: 2
Fore
SplineSet
0 825 m 1,0,-1
 0 1203 l 2,1,2
 0 1496 0 1496 450 1500 c 1,3,-1
 1300 1500 l 2,4,5
 1750 1500 1750 1500 1750 1203 c 2,6,-1
 1750 825 l 1,7,-1
 1297 825 l 1,8,-1
 1297 950 l 2,9,10
 1300 1200 1300 1200 1100 1203 c 2,11,-1
 600 1203 l 2,12,13
 450 1203 450 1203 450 950 c 2,14,-1
 450 825 l 1,15,-1
 0 825 l 1,0,-1
0 675 m 1,16,-1
 0 300 l 2,17,18
 0 0 0 0 450 0 c 2,19,-1
 1300 0 l 2,20,21
 1700 0 1700 0 1750 300 c 1,22,-1
 1750 675 l 1,23,-1
 1297 675 l 1,24,-1
 1297 550 l 2,25,26
 1300 300 1300 300 1100 300 c 2,27,-1
 600 300 l 2,28,29
 450 300 450 300 450 550 c 2,30,-1
 450 675 l 1,31,-1
 0 675 l 1,16,-1
EndSplineSet
EndChar

StartChar: P
Encoding: 80 80 51
Width: 2100
Flags: W
LayerCount: 2
Fore
SplineSet
0 0 m 1,0,-1
 0 825 l 1,1,-1
 450 825 l 1,2,-1
 450 0 l 1,3,-1
 0 0 l 1,0,-1
450 825 m 1,4,-1
 1100 825 l 1,5,-1
 1095 500 l 1,6,-1
 450 500 l 1,7,-1
 450 825 l 1,4,-1
0 1500 m 1,8,-1
 1100 1500 l 1,9,-1
 1100 1200 l 1,10,-1
 0 1200 l 1,11,-1
 0 1500 l 1,8,-1
1100 1500 m 1,12,-1
 1450 1500 l 2,13,14
 1900 1500 1900 1500 1900 1000 c 256,15,16
 1900 500 1900 500 1450 500 c 2,17,-1
 1095 500 l 1,18,-1
 1100 825 l 1,19,-1
 1300 825 l 2,20,21
 1450 825 1450 825 1450 1000 c 0,22,23
 1450 1200 1450 1200 1300 1200 c 2,24,-1
 1100 1200 l 1,25,-1
 1100 1500 l 1,12,-1
EndSplineSet
EndChar

StartChar: Q
Encoding: 81 81 52
Width: 1950
Flags: W
LayerCount: 2
Fore
SplineSet
0 825 m 1,0,-1
 0 1203 l 2,1,2
 0 1496 0 1496 450 1500 c 1,3,-1
 1300 1500 l 2,4,5
 1750 1500 1750 1500 1750 1203 c 2,6,-1
 1750 825 l 1,7,-1
 1297 825 l 1,8,-1
 1297 950 l 2,9,10
 1300 1200 1300 1200 1100 1203 c 2,11,-1
 600 1203 l 2,12,13
 450 1203 450 1203 450 950 c 2,14,-1
 450 825 l 1,15,-1
 0 825 l 1,0,-1
0 675 m 1,16,-1
 0 300 l 2,17,18
 0 0 0 0 450 0 c 2,19,-1
 1300 0 l 1,20,-1
 1800 -444 l 1,21,-1
 1750 300 l 1,22,-1
 1750 675 l 1,23,-1
 1297 675 l 1,24,-1
 1297 550 l 2,25,26
 1300 300 1300 300 1100 300 c 2,27,-1
 600 300 l 2,28,29
 450 300 450 300 450 550 c 2,30,-1
 450 675 l 1,31,-1
 0 675 l 1,16,-1
EndSplineSet
EndChar

StartChar: R
Encoding: 82 82 53
Width: 2100
Flags: W
LayerCount: 2
Fore
SplineSet
0 0 m 1,0,-1
 0 825 l 1,1,-1
 450 825 l 1,2,-1
 450 0 l 1,3,-1
 0 0 l 1,0,-1
450 825 m 1,4,-1
 1100 825 l 1,5,-1
 1095 500 l 1,6,-1
 450 500 l 1,7,-1
 450 825 l 1,4,-1
0 1500 m 1,8,-1
 1100 1500 l 1,9,-1
 1100 1200 l 1,10,-1
 0 1200 l 1,11,-1
 0 1500 l 1,8,-1
1100 1500 m 1,12,-1
 1400 1500 l 2,13,14
 1900 1500 1900 1500 1900 1050 c 0,15,16
 1900 825 1900 825 1700 675 c 1,17,18
 1900 675 1900 675 1900 300 c 2,19,-1
 1900 0 l 1,20,-1
 1400 0 l 1,21,-1
 1400 300 l 2,22,23
 1400 500 1400 500 1216 500 c 2,24,-1
 1095 500 l 1,25,-1
 1100 825 l 1,26,-1
 1300 825 l 2,27,28
 1450 825 1450 825 1450 1050 c 0,29,30
 1450 1200 1450 1200 1300 1200 c 2,31,-1
 1100 1200 l 1,32,-1
 1100 1500 l 1,12,-1
EndSplineSet
EndChar

StartChar: S
Encoding: 83 83 54
Width: 2000
Flags: W
LayerCount: 2
Fore
SplineSet
3 453 m 1,0,-1
 0 300 l 1,1,2
 0 0 0 0 450 0 c 2,3,-1
 800 0 l 1,4,-1
 800 300 l 1,5,-1
 625 300 l 2,6,7
 450 300 450 300 450 450 c 1,8,-1
 3 453 l 1,0,-1
950 300 m 1,9,-1
 1125 300 l 2,10,11
 1350 300 1350 300 1350 450 c 256,12,13
 1350 600 1350 600 1125 600 c 2,14,-1
 950 600 l 1,15,-1
 950 900 l 1,16,-1
 1300 900 l 2,17,18
 1750 900 1750 900 1800 600 c 1,19,-1
 1800 300 l 1,20,21
 1750 0 1750 0 1300 0 c 2,22,-1
 950 0 l 1,23,-1
 950 300 l 1,9,-1
800 600 m 1,24,-1
 450 600 l 2,25,26
 0 600 0 600 0 900 c 2,27,-1
 0 1200 l 2,28,29
 0 1496 0 1496 450 1500 c 1,30,-1
 800 1500 l 1,31,-1
 800 1200 l 1,32,-1
 625 1200 l 2,33,34
 450 1200 450 1200 450 1050 c 256,35,36
 450 900 450 900 625 900 c 2,37,-1
 800 900 l 1,38,-1
 800 600 l 1,24,-1
950 1500 m 1,39,-1
 1300 1500 l 2,40,41
 1750 1500 1750 1500 1750 1200 c 2,42,-1
 1750 1050 l 1,43,-1
 1300 1050 l 1,44,45
 1300 1200 1300 1200 1125 1200 c 2,46,-1
 950 1200 l 1,47,-1
 950 1500 l 1,39,-1
EndSplineSet
EndChar

StartChar: T
Encoding: 84 84 55
Width: 1900
Flags: W
LayerCount: 2
Fore
SplineSet
0 1500 m 1,0,-1
 1700 1500 l 1,1,-1
 1700 1200 l 1,2,-1
 0 1200 l 1,3,-1
 0 1500 l 1,0,-1
650 1050 m 1,4,-1
 650 0 l 1,5,-1
 1050 0 l 1,6,-1
 1050 1050 l 1,7,-1
 650 1050 l 1,4,-1
EndSplineSet
EndChar

StartChar: U
Encoding: 85 85 56
Width: 2000
Flags: W
LayerCount: 2
Fore
SplineSet
0 1500 m 1,0,-1
 0 300 l 2,1,2
 0 0 0 0 450 0 c 2,3,-1
 800 0 l 1,4,-1
 800 300 l 1,5,-1
 625 300 l 2,6,7
 450 300 450 300 450 450 c 2,8,-1
 450 1500 l 1,9,-1
 0 1500 l 1,0,-1
950 300 m 1,10,-1
 1125 300 l 2,11,12
 1300 300 1300 300 1300 450 c 2,13,-1
 1300 1500 l 1,14,-1
 1750 1500 l 1,15,-1
 1750 300 l 2,16,17
 1750 0 1750 0 1300 0 c 2,18,-1
 950 0 l 1,19,-1
 950 300 l 1,10,-1
EndSplineSet
EndChar

StartChar: V
Encoding: 86 86 57
Width: 2300
Flags: W
LayerCount: 2
Fore
SplineSet
0 1500 m 1,0,-1
 800 0 l 1,1,-1
 1400 0 l 1,2,-1
 2200 1500 l 1,3,-1
 1750 1500 l 1,4,-1
 1125 300 l 1,5,-1
 500 1500 l 1,6,-1
 0 1500 l 1,0,-1
EndSplineSet
EndChar

StartChar: W
Encoding: 87 87 58
Width: 2825
Flags: W
LayerCount: 2
Fore
SplineSet
0 1500 m 1,0,-1
 450 0 l 1,1,-1
 950 0 l 1,2,-1
 1350 1200 l 1,3,-1
 1751 -6 l 1,4,-1
 2249 -4 l 1,5,-1
 2700 1500 l 1,6,-1
 2250 1500 l 1,7,-1
 1950 500 l 1,8,-1
 1597 1500 l 1,9,-1
 1099 1497 l 1,10,-1
 750 500 l 1,11,-1
 450 1500 l 1,12,-1
 0 1500 l 1,0,-1
EndSplineSet
EndChar

StartChar: X
Encoding: 88 88 59
Width: 2000
Flags: W
LayerCount: 2
Fore
SplineSet
0 0 m 1,0,-1
 650 750 l 1,1,-1
 0 1500 l 1,2,-1
 509 1500 l 1,3,-1
 1814 0 l 1,4,-1
 1312 0 l 1,5,-1
 900 450 l 1,6,-1
 500 0 l 1,7,-1
 0 0 l 1,0,-1
1000 1154 m 1,8,-1
 1300 1500 l 1,9,-1
 1800 1500 l 1,10,-1
 1258 856 l 1,11,-1
 1000 1154 l 1,8,-1
EndSplineSet
EndChar

StartChar: Y
Encoding: 89 89 60
Width: 2250
Flags: W
LayerCount: 2
Fore
SplineSet
0 1500 m 1,0,-1
 800 500 l 1,1,-1
 800 0 l 1,2,-1
 1250 0 l 1,3,-1
 1250 500 l 1,4,-1
 450 1500 l 1,5,-1
 0 1500 l 1,0,-1
1140 924 m 1,6,-1
 1600 1500 l 1,7,-1
 2050 1500 l 1,8,-1
 1354 630 l 1,9,-1
 1140 924 l 1,6,-1
EndSplineSet
EndChar

StartChar: Z
Encoding: 90 90 61
Width: 2000
Flags: W
LayerCount: 2
Fore
SplineSet
0 300 m 1,0,-1
 0 0 l 1,1,-1
 1800 0 l 1,2,-1
 1800 300 l 1,3,-1
 0 300 l 1,0,-1
225 450 m 1,4,-1
 1300 1167 l 1,5,-1
 1300 1500 l 1,6,-1
 1800 1500 l 1,7,-1
 1800 1200 l 1,8,-1
 675 450 l 1,9,-1
 225 450 l 1,4,-1
0 1500 m 1,10,-1
 0 1200 l 1,11,-1
 1150 1200 l 1,12,-1
 1150 1500 l 1,13,-1
 0 1500 l 1,10,-1
EndSplineSet
EndChar

StartChar: bracketleft
Encoding: 91 91 62
Width: 797
Flags: W
LayerCount: 2
Fore
SplineSet
135 1466 m 1,0,-1
 750 1466 l 1,1,-1
 750 1150 l 1,2,-1
 507 1150 l 1,3,-1
 507 -91 l 1,4,-1
 750 -91 l 1,5,-1
 750 -407 l 1,6,-1
 135 -407 l 1,7,-1
 135 1466 l 1,0,-1
EndSplineSet
EndChar

StartChar: backslash
Encoding: 92 92 63
Width: 569
Flags: W
LayerCount: 2
Fore
SplineSet
202 1491 m 1,0,-1
 -6 1491 l 1,1,-1
 362 -24 l 1,2,-1
 568 -24 l 1,3,-1
 202 1491 l 1,0,-1
EndSplineSet
EndChar

StartChar: bracketright
Encoding: 93 93 64
Width: 797
Flags: W
LayerCount: 2
Fore
SplineSet
662 1466 m 1,0,-1
 47 1466 l 1,1,-1
 47 1150 l 1,2,-1
 290 1150 l 1,3,-1
 290 -91 l 1,4,-1
 47 -91 l 1,5,-1
 47 -407 l 1,6,-1
 662 -407 l 1,7,-1
 662 1466 l 1,0,-1
EndSplineSet
EndChar

StartChar: asciicircum
Encoding: 94 94 65
Width: 1352
Flags: W
LayerCount: 2
Fore
SplineSet
533 1491 m 1,0,-1
 812 1491 l 1,1,-1
 1220 678 l 1,2,-1
 867 678 l 1,3,-1
 674 1169 l 1,4,-1
 479 678 l 1,5,-1
 125 678 l 1,6,-1
 533 1491 l 1,0,-1
EndSplineSet
EndChar

StartChar: underscore
Encoding: 95 95 66
Width: 1024
Flags: W
LayerCount: 2
Fore
SplineSet
-12 -154 m 1,0,-1
 1036 -154 l 1,1,-1
 1036 -256 l 1,2,-1
 -12 -256 l 1,3,-1
 -12 -154 l 1,0,-1
EndSplineSet
EndChar

StartChar: grave
Encoding: 96 96 67
Width: 682
Flags: W
LayerCount: 2
Fore
SplineSet
1 1491 m 1,0,-1
 348 1491 l 1,1,-1
 512 1193 l 1,2,-1
 320 1193 l 1,3,-1
 1 1491 l 1,0,-1
EndSplineSet
EndChar

StartChar: a
Encoding: 97 97 68
Width: 2250
Flags: W
LayerCount: 2
Fore
SplineSet
4 0 m 1,0,-1
 800 1500 l 1,1,-1
 1400 1500 l 1,2,-1
 2200 0 l 1,3,-1
 1700 0 l 1,4,-1
 1100 1200 l 1,5,-1
 500 0 l 1,6,-1
 4 0 l 1,0,-1
EndSplineSet
EndChar

StartChar: b
Encoding: 98 98 69
Width: 2050
Flags: W
LayerCount: 2
Fore
SplineSet
0 0 m 1,0,-1
 0 1500 l 1,1,-1
 450 1500 l 1,2,-1
 450 0 l 1,3,-1
 0 0 l 1,0,-1
450 900 m 1,4,-1
 1300 900 l 1,5,-1
 1300 750 l 1,6,-1
 1300 600 l 1,7,-1
 450 600 l 1,8,-1
 450 900 l 1,4,-1
600 1500 m 1,9,-1
 1300 1500 l 1,10,-1
 1300 1200 l 1,11,-1
 600 1200 l 1,12,-1
 600 1500 l 1,9,-1
600 300 m 1,13,-1
 1300 300 l 1,14,-1
 1300 0 l 1,15,-1
 600 0 l 1,16,-1
 600 300 l 1,13,-1
1298 1498 m 1,17,18
 1596 1500 1596 1500 1699.5 1396.5 c 128,-1,19
 1803 1293 1803 1293 1801.5 1170.5 c 128,-1,20
 1800 1048 1800 1048 1800 941.5 c 128,-1,21
 1800 835 1800 835 1701 758 c 1,22,23
 1900 659 1900 659 1900 449 c 0,24,25
 1900 0 1900 0 1500 0 c 2,26,-1
 1303 1 l 1,27,-1
 1298 298 l 1,28,29
 1400 300 1400 300 1460.5 375 c 128,-1,30
 1521 450 1521 450 1460.5 525 c 128,-1,31
 1400 600 1400 600 1300 603 c 1,32,-1
 1300 899 l 1,33,34
 1400 900 1400 900 1439 972.5 c 128,-1,35
 1478 1045 1478 1045 1439 1122.5 c 128,-1,36
 1400 1200 1400 1200 1298 1199 c 1,37,-1
 1298 1498 l 1,17,18
EndSplineSet
EndChar

StartChar: c
Encoding: 99 99 70
Width: 2050
Flags: W
LayerCount: 2
Fore
SplineSet
0 825 m 1,0,-1
 0 1150 l 2,1,2
 0 1496 0 1496 500 1500 c 1,3,-1
 1350 1500 l 2,4,5
 1850 1500 1850 1500 1850 1150 c 2,6,-1
 1850 900 l 1,7,-1
 1400 900 l 1,8,9
 1400 1200 1400 1200 1100 1200 c 2,10,-1
 750 1200 l 2,11,12
 450 1203 450 1203 450 950 c 2,13,-1
 450 825 l 1,14,-1
 0 825 l 1,0,-1
0 675 m 1,15,-1
 0 350 l 2,16,17
 0 0 0 0 500 0 c 2,18,-1
 1300 0 l 2,19,20
 1900 0 1900 0 1900 350 c 2,21,-1
 1900 550 l 1,22,-1
 1400 550 l 1,23,24
 1400 300 1400 300 1100 300 c 2,25,-1
 750 300 l 2,26,27
 450 300 450 300 450 550 c 2,28,-1
 450 675 l 1,29,-1
 0 675 l 1,15,-1
EndSplineSet
EndChar

StartChar: d
Encoding: 100 100 71
Width: 1950
Flags: W
LayerCount: 2
Fore
SplineSet
0 0 m 1,0,-1
 0 1500 l 1,1,-1
 450 1500 l 1,2,-1
 450 0 l 1,3,-1
 0 0 l 1,0,-1
600 1500 m 1,4,-1
 1300 1500 l 1,5,-1
 1300 1200 l 1,6,-1
 600 1200 l 1,7,-1
 600 1500 l 1,4,-1
600 300 m 1,8,-1
 1300 300 l 1,9,-1
 1300 0 l 1,10,-1
 600 0 l 1,11,-1
 600 300 l 1,8,-1
1298 1498 m 1,12,-1
 1450 1500 l 1,13,14
 1800 1500 1800 1500 1800 1203 c 2,15,-1
 1800 279 l 2,16,17
 1800 0 1800 0 1450 0 c 2,18,-1
 1303 1 l 1,19,-1
 1298 298 l 1,20,21
 1450 300 1450 300 1450 452 c 2,22,-1
 1450 1050 l 2,23,24
 1450 1203 1450 1203 1298 1199 c 1,25,-1
 1298 1498 l 1,12,-1
EndSplineSet
EndChar

StartChar: e
Encoding: 101 101 72
Width: 1800
Flags: W
LayerCount: 2
Fore
SplineSet
0 0 m 1,0,-1
 0 1500 l 1,1,-1
 450 1500 l 1,2,-1
 450 0 l 1,3,-1
 0 0 l 1,0,-1
450 900 m 1,4,-1
 1300 900 l 1,5,-1
 1300 600 l 1,6,-1
 450 600 l 1,7,-1
 450 900 l 1,4,-1
600 1500 m 1,8,-1
 1600 1500 l 1,9,-1
 1600 1100 l 1,10,-1
 600 1100 l 1,11,-1
 600 1500 l 1,8,-1
600 400 m 1,12,-1
 1600 400 l 1,13,-1
 1600 0 l 1,14,-1
 600 0 l 1,15,-1
 600 400 l 1,12,-1
EndSplineSet
EndChar

StartChar: f
Encoding: 102 102 73
Width: 1600
Flags: W
LayerCount: 2
Fore
SplineSet
0 0 m 1,0,-1
 0 1500 l 1,1,-1
 450 1500 l 1,2,-1
 450 0 l 1,3,-1
 0 0 l 1,0,-1
600 900 m 1,4,-1
 1300 900 l 1,5,-1
 1300 600 l 1,6,-1
 600 596 l 1,7,-1
 600 900 l 1,4,-1
450 1500 m 1,8,-1
 1400 1500 l 1,9,-1
 1400 1200 l 1,10,-1
 450 1203 l 1,11,-1
 450 1500 l 1,8,-1
EndSplineSet
EndChar

StartChar: g
Encoding: 103 103 74
Width: 2000
Flags: W
LayerCount: 2
Fore
SplineSet
0 825 m 1,0,-1
 0 1203 l 2,1,2
 0 1496 0 1496 450 1500 c 1,3,-1
 1300 1500 l 2,4,5
 1750 1500 1750 1500 1750 1203 c 2,6,-1
 1749 946 l 1,7,-1
 1300 950 l 1,8,9
 1300 1200 1300 1200 1100 1203 c 2,10,-1
 600 1203 l 2,11,12
 450 1203 450 1203 450 950 c 2,13,-1
 450 825 l 1,14,-1
 0 825 l 1,0,-1
0 675 m 1,15,-1
 0 300 l 2,16,17
 0 0 0 0 450 0 c 2,18,-1
 1300 0 l 1,19,-1
 1800 0 l 1,20,-1
 1800 450 l 2,21,22
 1800 750 1800 750 1546 750 c 2,23,-1
 1131 750 l 1,24,-1
 1131 600 l 1,25,26
 1350 600 1350 600 1350 450 c 256,27,28
 1350 300 1350 300 1100 300 c 2,29,-1
 600 300 l 2,30,31
 450 300 450 300 450 550 c 2,32,-1
 450 675 l 1,33,-1
 0 675 l 1,15,-1
EndSplineSet
EndChar

StartChar: h
Encoding: 104 104 75
Width: 2100
Flags: W
LayerCount: 2
Fore
SplineSet
0 0 m 1,0,-1
 0 1500 l 1,1,-1
 450 1500 l 1,2,-1
 450 0 l 1,3,-1
 0 0 l 1,0,-1
600 950 m 1,4,-1
 1300 950 l 1,5,-1
 1300 550 l 1,6,-1
 600 550 l 1,7,-1
 600 950 l 1,4,-1
1450 0 m 1,8,-1
 1450 1500 l 1,9,-1
 1900 1500 l 1,10,-1
 1900 0 l 1,11,-1
 1450 0 l 1,8,-1
EndSplineSet
EndChar

StartChar: i
Encoding: 105 105 76
Width: 650
Flags: W
LayerCount: 2
Fore
SplineSet
0 0 m 1,0,-1
 0 1500 l 1,1,-1
 450 1500 l 1,2,-1
 450 0 l 1,3,-1
 0 0 l 1,0,-1
EndSplineSet
EndChar

StartChar: j
Encoding: 106 106 77
Width: 1800
Flags: W
LayerCount: 2
Fore
SplineSet
1100 0 m 2,0,-1
 875 0 l 1,1,-1
 875 450 l 1,2,3
 1100 450 1100 450 1100 600 c 2,4,-1
 1100 1500 l 1,5,-1
 1550 1500 l 1,6,-1
 1550 450 l 2,7,8
 1550 0 1550 0 1100 0 c 2,0,-1
700 0 m 1,9,-1
 451 -2 l 2,10,11
 -2 -2 -2 -2 0 450 c 2,12,-1
 0 750 l 1,13,-1
 450 750 l 1,14,-1
 450 600 l 2,15,16
 450 450 450 450 700 450 c 1,17,-1
 700 0 l 1,9,-1
EndSplineSet
EndChar

StartChar: k
Encoding: 107 107 78
Width: 2000
Flags: W
LayerCount: 2
Fore
SplineSet
0 0 m 1,0,-1
 0 1500 l 1,1,-1
 450 1500 l 1,2,-1
 450 0 l 1,3,-1
 0 0 l 1,0,-1
450 600 m 1,4,-1
 559 600 l 1,5,-1
 1300 0 l 1,6,-1
 1800 0 l 1,7,-1
 688 900 l 1,8,-1
 450 900 l 1,9,-1
 450 600 l 1,4,-1
745 1051 m 1,10,-1
 1300 1500 l 1,11,-1
 1800 1500 l 1,12,-1
 1012 841 l 1,13,-1
 745 1051 l 1,10,-1
EndSplineSet
EndChar

StartChar: l
Encoding: 108 108 79
Width: 1800
Flags: W
LayerCount: 2
Fore
SplineSet
0 0 m 1,0,-1
 0 1500 l 1,1,-1
 450 1500 l 1,2,-1
 450 0 l 1,3,-1
 0 0 l 1,0,-1
600 400 m 1,4,-1
 1600 400 l 1,5,-1
 1600 0 l 1,6,-1
 600 0 l 1,7,-1
 600 400 l 1,4,-1
EndSplineSet
EndChar

StartChar: m
Encoding: 109 109 80
Width: 2600
Flags: W
LayerCount: 2
Fore
SplineSet
0 2 m 1,0,-1
 0 1500 l 1,1,-1
 700 1500 l 1,2,-1
 1200 600 l 1,3,-1
 1700 1500 l 1,4,-1
 2400 1500 l 1,5,-1
 2400 0 l 1,6,-1
 1950 0 l 1,7,-1
 1950 1000 l 1,8,-1
 1401 2 l 1,9,-1
 1001 -4 l 1,10,-1
 450 1000 l 1,11,-1
 445 2 l 1,12,-1
 0 2 l 1,0,-1
EndSplineSet
EndChar

StartChar: n
Encoding: 110 110 81
Width: 2300
Flags: W
LayerCount: 2
Fore
SplineSet
0 0 m 1,0,-1
 0 1500 l 1,1,-1
 450 1500 l 1,2,-1
 450 0 l 1,3,-1
 0 0 l 1,0,-1
550 1500 m 1,4,-1
 850 1500 l 1,5,-1
 1550 300 l 1,6,-1
 1550 0 l 1,7,-1
 1250 0 l 1,8,-1
 550 1200 l 1,9,-1
 550 1500 l 1,4,-1
1651 0 m 1,10,-1
 1651 1500 l 1,11,-1
 2101 1500 l 1,12,-1
 2101 0 l 1,13,-1
 1651 0 l 1,10,-1
EndSplineSet
EndChar

StartChar: o
Encoding: 111 111 82
Width: 1950
Flags: W
LayerCount: 2
Fore
SplineSet
0 825 m 1,0,-1
 0 1203 l 2,1,2
 0 1496 0 1496 450 1500 c 1,3,-1
 1300 1500 l 2,4,5
 1750 1500 1750 1500 1750 1203 c 2,6,-1
 1750 825 l 1,7,-1
 1297 825 l 1,8,-1
 1297 950 l 2,9,10
 1300 1200 1300 1200 1100 1203 c 2,11,-1
 600 1203 l 2,12,13
 450 1203 450 1203 450 950 c 2,14,-1
 450 825 l 1,15,-1
 0 825 l 1,0,-1
0 675 m 1,16,-1
 0 300 l 2,17,18
 0 0 0 0 450 0 c 2,19,-1
 1300 0 l 2,20,21
 1700 0 1700 0 1750 300 c 1,22,-1
 1750 675 l 1,23,-1
 1297 675 l 1,24,-1
 1297 550 l 2,25,26
 1300 300 1300 300 1100 300 c 2,27,-1
 600 300 l 2,28,29
 450 300 450 300 450 550 c 2,30,-1
 450 675 l 1,31,-1
 0 675 l 1,16,-1
EndSplineSet
EndChar

StartChar: p
Encoding: 112 112 83
Width: 2100
Flags: W
LayerCount: 2
Fore
SplineSet
0 0 m 1,0,-1
 0 825 l 1,1,-1
 450 825 l 1,2,-1
 450 0 l 1,3,-1
 0 0 l 1,0,-1
450 825 m 1,4,-1
 1100 825 l 1,5,-1
 1095 500 l 1,6,-1
 450 500 l 1,7,-1
 450 825 l 1,4,-1
0 1500 m 1,8,-1
 1100 1500 l 1,9,-1
 1100 1200 l 1,10,-1
 0 1200 l 1,11,-1
 0 1500 l 1,8,-1
1100 1500 m 1,12,-1
 1450 1500 l 2,13,14
 1900 1500 1900 1500 1900 1000 c 256,15,16
 1900 500 1900 500 1450 500 c 2,17,-1
 1095 500 l 1,18,-1
 1100 825 l 1,19,-1
 1300 825 l 2,20,21
 1450 825 1450 825 1450 1000 c 0,22,23
 1450 1200 1450 1200 1300 1200 c 2,24,-1
 1100 1200 l 1,25,-1
 1100 1500 l 1,12,-1
EndSplineSet
EndChar

StartChar: q
Encoding: 113 113 84
Width: 1950
Flags: W
LayerCount: 2
Fore
SplineSet
0 825 m 1,0,-1
 0 1203 l 2,1,2
 0 1496 0 1496 450 1500 c 1,3,-1
 1300 1500 l 2,4,5
 1750 1500 1750 1500 1750 1203 c 2,6,-1
 1750 825 l 1,7,-1
 1297 825 l 1,8,-1
 1297 950 l 2,9,10
 1300 1200 1300 1200 1100 1203 c 2,11,-1
 600 1203 l 2,12,13
 450 1203 450 1203 450 950 c 2,14,-1
 450 825 l 1,15,-1
 0 825 l 1,0,-1
0 675 m 1,16,-1
 0 300 l 2,17,18
 0 0 0 0 450 0 c 2,19,-1
 1300 0 l 1,20,-1
 1800 -444 l 1,21,-1
 1750 300 l 1,22,-1
 1750 675 l 1,23,-1
 1297 675 l 1,24,-1
 1297 550 l 2,25,26
 1300 300 1300 300 1100 300 c 2,27,-1
 600 300 l 2,28,29
 450 300 450 300 450 550 c 2,30,-1
 450 675 l 1,31,-1
 0 675 l 1,16,-1
EndSplineSet
EndChar

StartChar: r
Encoding: 114 114 85
Width: 2050
Flags: W
LayerCount: 2
Fore
SplineSet
0 0 m 1,0,-1
 0 1500 l 1,1,-1
 450 1500 l 1,2,-1
 450 0 l 1,3,-1
 0 0 l 1,0,-1
600 825 m 1,4,-1
 1100 825 l 1,5,-1
 1095 500 l 1,6,-1
 600 500 l 1,7,-1
 600 825 l 1,4,-1
450 1500 m 1,8,-1
 1100 1500 l 1,9,-1
 1100 1200 l 1,10,-1
 450 1203 l 1,11,-1
 450 1500 l 1,8,-1
1100 1500 m 1,12,-1
 1400 1500 l 2,13,14
 1900 1500 1900 1500 1900 1050 c 0,15,16
 1900 825 1900 825 1700 675 c 1,17,18
 1900 675 1900 675 1900 300 c 2,19,-1
 1900 0 l 1,20,-1
 1400 0 l 1,21,-1
 1400 300 l 2,22,23
 1400 500 1400 500 1210 500 c 2,24,-1
 1095 500 l 1,25,-1
 1100 825 l 1,26,-1
 1300 825 l 2,27,28
 1450 825 1450 825 1450 1050 c 0,29,30
 1450 1200 1450 1200 1300 1200 c 2,31,-1
 1100 1200 l 1,32,-1
 1100 1500 l 1,12,-1
EndSplineSet
EndChar

StartChar: s
Encoding: 115 115 86
Width: 2000
Flags: W
LayerCount: 2
Fore
SplineSet
3 453 m 1,0,-1
 0 300 l 1,1,2
 0 0 0 0 450 0 c 2,3,-1
 800 0 l 1,4,-1
 800 300 l 1,5,-1
 625 300 l 2,6,7
 450 300 450 300 450 450 c 1,8,-1
 3 453 l 1,0,-1
950 300 m 1,9,-1
 1125 300 l 2,10,11
 1350 300 1350 300 1350 450 c 256,12,13
 1350 600 1350 600 1125 600 c 2,14,-1
 950 600 l 1,15,-1
 950 900 l 1,16,-1
 1300 900 l 2,17,18
 1750 900 1750 900 1800 600 c 1,19,-1
 1800 300 l 1,20,21
 1750 0 1750 0 1300 0 c 2,22,-1
 950 0 l 1,23,-1
 950 300 l 1,9,-1
800 600 m 1,24,-1
 450 600 l 2,25,26
 0 600 0 600 0 900 c 2,27,-1
 0 1200 l 2,28,29
 0 1496 0 1496 450 1500 c 1,30,-1
 800 1500 l 1,31,-1
 800 1200 l 1,32,-1
 625 1200 l 2,33,34
 450 1200 450 1200 450 1050 c 256,35,36
 450 900 450 900 625 900 c 2,37,-1
 800 900 l 1,38,-1
 800 600 l 1,24,-1
950 1500 m 1,39,-1
 1300 1500 l 2,40,41
 1750 1500 1750 1500 1750 1200 c 2,42,-1
 1750 1050 l 1,43,-1
 1300 1050 l 1,44,45
 1300 1200 1300 1200 1125 1200 c 2,46,-1
 950 1200 l 1,47,-1
 950 1500 l 1,39,-1
EndSplineSet
EndChar

StartChar: t
Encoding: 116 116 87
Width: 1900
Flags: W
LayerCount: 2
Fore
SplineSet
0 1500 m 1,0,-1
 1700 1500 l 1,1,-1
 1700 1200 l 1,2,-1
 0 1200 l 1,3,-1
 0 1500 l 1,0,-1
650 1050 m 1,4,-1
 650 0 l 1,5,-1
 1050 0 l 1,6,-1
 1050 1050 l 1,7,-1
 650 1050 l 1,4,-1
EndSplineSet
EndChar

StartChar: u
Encoding: 117 117 88
Width: 2000
Flags: W
LayerCount: 2
Fore
SplineSet
0 1500 m 1,0,-1
 0 300 l 2,1,2
 0 0 0 0 450 0 c 2,3,-1
 800 0 l 1,4,-1
 800 300 l 1,5,-1
 625 300 l 2,6,7
 450 300 450 300 450 450 c 2,8,-1
 450 1500 l 1,9,-1
 0 1500 l 1,0,-1
950 300 m 1,10,-1
 1125 300 l 2,11,12
 1300 300 1300 300 1300 450 c 2,13,-1
 1300 1500 l 1,14,-1
 1750 1500 l 1,15,-1
 1750 300 l 2,16,17
 1750 0 1750 0 1300 0 c 2,18,-1
 950 0 l 1,19,-1
 950 300 l 1,10,-1
EndSplineSet
EndChar

StartChar: v
Encoding: 118 118 89
Width: 2300
Flags: W
LayerCount: 2
Fore
SplineSet
0 1500 m 1,0,-1
 800 0 l 1,1,-1
 1400 0 l 1,2,-1
 2200 1500 l 1,3,-1
 1750 1500 l 1,4,-1
 1125 300 l 1,5,-1
 500 1500 l 1,6,-1
 0 1500 l 1,0,-1
EndSplineSet
EndChar

StartChar: w
Encoding: 119 119 90
Width: 2825
Flags: W
LayerCount: 2
Fore
SplineSet
0 1500 m 1,0,-1
 450 0 l 1,1,-1
 950 0 l 1,2,-1
 1350 1200 l 1,3,-1
 1751 -6 l 1,4,-1
 2249 -4 l 1,5,-1
 2700 1500 l 1,6,-1
 2250 1500 l 1,7,-1
 1950 500 l 1,8,-1
 1597 1500 l 1,9,-1
 1099 1497 l 1,10,-1
 750 500 l 1,11,-1
 450 1500 l 1,12,-1
 0 1500 l 1,0,-1
EndSplineSet
EndChar

StartChar: x
Encoding: 120 120 91
Width: 2000
Flags: W
LayerCount: 2
Fore
SplineSet
0 0 m 1,0,-1
 650 750 l 1,1,-1
 0 1500 l 1,2,-1
 509 1500 l 1,3,-1
 1814 0 l 1,4,-1
 1312 0 l 1,5,-1
 900 450 l 1,6,-1
 500 0 l 1,7,-1
 0 0 l 1,0,-1
1000 1154 m 1,8,-1
 1300 1500 l 1,9,-1
 1800 1500 l 1,10,-1
 1258 856 l 1,11,-1
 1000 1154 l 1,8,-1
EndSplineSet
EndChar

StartChar: y
Encoding: 121 121 92
Width: 2250
Flags: W
LayerCount: 2
Fore
SplineSet
0 1500 m 1,0,-1
 800 500 l 1,1,-1
 800 0 l 1,2,-1
 1250 0 l 1,3,-1
 1250 500 l 1,4,-1
 450 1500 l 1,5,-1
 0 1500 l 1,0,-1
1140 924 m 1,6,-1
 1600 1500 l 1,7,-1
 2050 1500 l 1,8,-1
 1354 630 l 1,9,-1
 1140 924 l 1,6,-1
EndSplineSet
EndChar

StartChar: z
Encoding: 122 122 93
Width: 2000
Flags: W
LayerCount: 2
Fore
SplineSet
0 300 m 1,0,-1
 0 0 l 1,1,-1
 1800 0 l 1,2,-1
 1800 300 l 1,3,-1
 0 300 l 1,0,-1
225 450 m 1,4,-1
 1300 1167 l 1,5,-1
 1300 1500 l 1,6,-1
 1800 1500 l 1,7,-1
 1800 1200 l 1,8,-1
 675 450 l 1,9,-1
 225 450 l 1,4,-1
0 1500 m 1,10,-1
 0 1200 l 1,11,-1
 1150 1200 l 1,12,-1
 1150 1500 l 1,13,-1
 0 1500 l 1,10,-1
EndSplineSet
EndChar

StartChar: braceleft
Encoding: 123 123 94
Width: 797
Flags: W
LayerCount: 2
Fore
SplineSet
774 1491 m 1,0,-1
 774 1163 l 1,1,-1
 729 1163 l 2,2,3
 666 1163 666 1163 634.5 1136.5 c 128,-1,4
 603 1110 603 1110 590 1055 c 0,5,6
 583 1025 583 1025 582 890.5 c 128,-1,7
 581 756 581 756 554 679 c 0,8,9
 534 620 534 620 497 584 c 0,10,11
 469 557 469 557 405 529 c 1,12,13
 472 498 472 498 504.5 464.5 c 128,-1,14
 537 431 537 431 560 362.5 c 128,-1,15
 583 294 583 294 583 144 c 0,16,17
 583 9 583 9 597 -32 c 128,-1,18
 611 -73 611 -73 643.5 -90 c 128,-1,19
 676 -107 676 -107 774 -107 c 1,20,-1
 774 -431 l 1,21,-1
 648 -431 l 2,22,23
 453 -431 453 -431 371 -388.5 c 128,-1,24
 289 -346 289 -346 254 -264.5 c 128,-1,25
 219 -183 219 -183 219 -20 c 0,26,27
 219 16 219 16 221 52 c 0,28,29
 222 74 222 74 222 97 c 0,30,31
 222 213 222 213 201 262 c 128,-1,32
 180 311 180 311 140.5 333 c 128,-1,33
 101 355 101 355 26 357 c 1,34,-1
 26 700 l 1,35,36
 103 700 103 700 141.5 724 c 128,-1,37
 180 748 180 748 200 797.5 c 128,-1,38
 220 847 220 847 220 965 c 2,39,-1
 220 999 l 2,40,41
 219 1022 219 1022 219 1045 c 0,42,43
 219 1222 219 1222 248.5 1301 c 128,-1,44
 278 1380 278 1380 330 1422 c 0,45,46
 369 1454 369 1454 436 1470 c 0,47,48
 525 1491 525 1491 639 1491 c 2,49,-1
 774 1491 l 1,0,-1
EndSplineSet
EndChar

StartChar: bar
Encoding: 124 124 95
Width: 569
Flags: W
LayerCount: 2
Fore
SplineSet
160 1466 m 1,0,-1
 415 1466 l 1,1,-1
 415 -404 l 1,2,-1
 160 -404 l 1,3,-1
 160 1466 l 1,0,-1
EndSplineSet
EndChar

StartChar: braceright
Encoding: 125 125 96
Width: 797
Flags: W
LayerCount: 2
Fore
SplineSet
23 1491 m 1,0,-1
 23 1163 l 1,1,-1
 68 1163 l 2,2,3
 131 1163 131 1163 162.5 1136.5 c 128,-1,4
 194 1110 194 1110 207 1055 c 0,5,6
 214 1025 214 1025 215 890.5 c 128,-1,7
 216 756 216 756 243 679 c 0,8,9
 263 620 263 620 300 584 c 0,10,11
 328 557 328 557 392 529 c 1,12,13
 325 498 325 498 292.5 464.5 c 128,-1,14
 260 431 260 431 237 362.5 c 128,-1,15
 214 294 214 294 214 144 c 0,16,17
 214 9 214 9 200 -32 c 128,-1,18
 186 -73 186 -73 153.5 -90 c 128,-1,19
 121 -107 121 -107 23 -107 c 1,20,-1
 23 -431 l 1,21,-1
 149 -431 l 2,22,23
 344 -431 344 -431 426 -388.5 c 128,-1,24
 508 -346 508 -346 543 -264.5 c 128,-1,25
 578 -183 578 -183 578 -20 c 0,26,27
 578 16 578 16 576 52 c 0,28,29
 575 74 575 74 575 97 c 0,30,31
 575 213 575 213 596 262 c 128,-1,32
 617 311 617 311 656.5 333 c 128,-1,33
 696 355 696 355 771 357 c 1,34,-1
 771 700 l 1,35,36
 694 700 694 700 655.5 724 c 128,-1,37
 617 748 617 748 597 797.5 c 128,-1,38
 577 847 577 847 577 965 c 2,39,-1
 577 999 l 2,40,41
 578 1022 578 1022 578 1045 c 0,42,43
 578 1222 578 1222 548.5 1301 c 128,-1,44
 519 1380 519 1380 467 1422 c 0,45,46
 428 1454 428 1454 361 1470 c 0,47,48
 272 1491 272 1491 158 1491 c 2,49,-1
 23 1491 l 1,0,-1
EndSplineSet
EndChar

StartChar: asciitilde
Encoding: 126 126 97
Width: 1352
Flags: W
LayerCount: 2
Fore
SplineSet
1246 972 m 1,0,-1
 1246 646 l 1,1,2
 1131 554 1131 554 1060 523 c 128,-1,3
 989 492 989 492 913 492 c 0,4,5
 855 492 855 492 796.5 509 c 128,-1,6
 738 526 738 526 613.5 589 c 128,-1,7
 489 652 489 652 417 652 c 0,8,9
 263 652 263 652 99 492 c 1,10,-1
 99 821 l 1,11,12
 192 904 192 904 273 939 c 128,-1,13
 354 974 354 974 450 974 c 0,14,15
 499 974 499 974 553 958.5 c 128,-1,16
 607 943 607 943 711.5 892 c 128,-1,17
 816 841 816 841 860 828 c 128,-1,18
 904 815 904 815 943 815 c 0,19,20
 1077 815 1077 815 1246 972 c 1,0,-1
EndSplineSet
EndChar

StartChar: registered
Encoding: 174 174 138
Width: 1638
Flags: W
LayerCount: 2
Fore
SplineSet
1585 728 m 0,0,1
 1585 523 1585 523 1482.5 346 c 128,-1,2
 1380 169 1380 169 1203 67 c 128,-1,3
 1026 -35 1026 -35 821 -35 c 0,4,5
 617 -35 617 -35 440 67 c 128,-1,6
 263 169 263 169 160.5 346 c 128,-1,7
 58 523 58 523 58 728 c 0,8,9
 58 932 58 932 160.5 1109.5 c 128,-1,10
 263 1287 263 1287 440 1389 c 128,-1,11
 617 1491 617 1491 821 1491 c 0,12,13
 1026 1491 1026 1491 1203 1389 c 128,-1,14
 1380 1287 1380 1287 1482.5 1109.5 c 128,-1,15
 1585 932 1585 932 1585 728 c 0,0,1
1437 728 m 256,16,17
 1437 983 1437 983 1256.5 1163.5 c 128,-1,18
 1076 1344 1076 1344 821 1344 c 256,19,20
 566 1344 566 1344 385.5 1163.5 c 128,-1,21
 205 983 205 983 205 728 c 256,22,23
 205 473 205 473 385.5 292.5 c 128,-1,24
 566 112 566 112 821 112 c 256,25,26
 1076 112 1076 112 1256.5 292.5 c 128,-1,27
 1437 473 1437 473 1437 728 c 256,16,17
475 1136 m 1,28,-1
 840 1136 l 2,29,30
 995 1136 995 1136 1064.5 1073.5 c 128,-1,31
 1134 1011 1134 1011 1134 906 c 0,32,33
 1134 824 1134 824 1081 764 c 128,-1,34
 1028 704 1028 704 914 677 c 1,35,36
 961 659 961 659 983 639 c 0,37,38
 1014 611 1014 611 1048 556 c 0,39,40
 1050 552 1050 552 1180 320 c 1,41,-1
 940 320 l 1,42,43
 823 553 823 553 783 598.5 c 128,-1,44
 743 644 743 644 703 644 c 0,45,46
 694 644 694 644 678 641 c 1,47,-1
 678 320 l 1,48,-1
 475 320 l 1,49,-1
 475 1136 l 1,28,-1
678 790 m 1,50,-1
 766 790 l 2,51,52
 854 790 854 790 890 818.5 c 128,-1,53
 926 847 926 847 926 892 c 256,54,55
 926 937 926 937 891.5 965.5 c 128,-1,56
 857 994 857 994 774 994 c 2,57,-1
 678 994 l 1,58,-1
 678 790 l 1,50,-1
EndSplineSet
EndChar

StartChar: copyright
Encoding: 169 169 139
Width: 1638
Flags: W
LayerCount: 2
Fore
SplineSet
1585 728 m 0,0,1
 1585 523 1585 523 1482.5 346 c 128,-1,2
 1380 169 1380 169 1203 67 c 128,-1,3
 1026 -35 1026 -35 821 -35 c 0,4,5
 617 -35 617 -35 440 67 c 128,-1,6
 263 169 263 169 160.5 346 c 128,-1,7
 58 523 58 523 58 728 c 0,8,9
 58 932 58 932 160.5 1109.5 c 128,-1,10
 263 1287 263 1287 440 1389 c 128,-1,11
 617 1491 617 1491 821 1491 c 0,12,13
 1026 1491 1026 1491 1203 1389 c 128,-1,14
 1380 1287 1380 1287 1482.5 1109.5 c 128,-1,15
 1585 932 1585 932 1585 728 c 0,0,1
1437 728 m 256,16,17
 1437 983 1437 983 1256.5 1163.5 c 128,-1,18
 1076 1344 1076 1344 821 1344 c 256,19,20
 566 1344 566 1344 385.5 1163.5 c 128,-1,21
 205 983 205 983 205 728 c 256,22,23
 205 473 205 473 385.5 292.5 c 128,-1,24
 566 112 566 112 821 112 c 256,25,26
 1076 112 1076 112 1256.5 292.5 c 128,-1,27
 1437 473 1437 473 1437 728 c 256,16,17
999 634 m 1,28,-1
 1205 585 l 1,29,30
 1167 464 1167 464 1100 399 c 0,31,32
 995 298 995 298 826 298 c 0,33,34
 642 298 642 298 526 416.5 c 128,-1,35
 410 535 410 535 410 730 c 0,36,37
 410 915 410 915 529 1035.5 c 128,-1,38
 648 1156 648 1156 827 1156 c 0,39,40
 972 1156 972 1156 1071 1079 c 128,-1,41
 1170 1002 1170 1002 1196 880 c 1,42,-1
 999 850 l 1,43,44
 981 931 981 931 933.5 970.5 c 128,-1,45
 886 1010 886 1010 818 1010 c 0,46,47
 740 1010 740 1010 687 943.5 c 128,-1,48
 634 877 634 877 634 735 c 0,49,50
 634 592 634 592 670 531 c 0,51,52
 723 443 723 443 820 443 c 0,53,54
 881 443 881 443 929.5 488 c 128,-1,55
 978 533 978 533 999 634 c 1,28,-1
EndSplineSet
EndChar

StartChar: trademark
Encoding: 8482 8482 140
Width: 1946
Flags: W
LayerCount: 2
Fore
SplineSet
36 1466 m 1,0,-1
 837 1466 l 1,1,-1
 837 1272 l 1,2,-1
 552 1272 l 1,3,-1
 552 651 l 1,4,-1
 317 651 l 1,5,-1
 317 1272 l 1,6,-1
 36 1272 l 1,7,-1
 36 1466 l 1,0,-1
930 1466 m 1,8,-1
 1287 1466 l 1,9,-1
 1400 1021 l 1,10,-1
 1519 1466 l 1,11,-1
 1865 1466 l 1,12,-1
 1865 651 l 1,13,-1
 1644 651 l 1,14,-1
 1644 1227 l 1,15,-1
 1491 651 l 1,16,-1
 1306 651 l 1,17,-1
 1155 1227 l 1,18,-1
 1155 651 l 1,19,-1
 930 651 l 1,20,-1
 930 1466 l 1,8,-1
EndSplineSet
EndChar

StartChar: afii10053
Encoding: 1028 1028 559
Width: 2200
Flags: W
LayerCount: 2
Fore
SplineSet
604 828 m 1,0,-1
 1126 828 l 1,1,-1
 1126 670 l 1,2,-1
 604 670 l 1,3,-1
 604 828 l 1,0,-1
0 825 m 1,4,-1
 0 1150 l 2,5,6
 0 1496 0 1496 500 1500 c 1,7,-1
 1450 1500 l 2,8,9
 1950 1500 1950 1500 1950 1150 c 2,10,-1
 1950 900 l 1,11,-1
 1500 900 l 1,12,13
 1500 1200 1500 1200 1200 1200 c 2,14,-1
 750 1200 l 2,15,16
 450 1203 450 1203 450 950 c 2,17,-1
 450 825 l 1,18,-1
 0 825 l 1,4,-1
0 675 m 1,19,-1
 0 350 l 2,20,21
 0 0 0 0 500 0 c 2,22,-1
 1300 0 l 2,23,24
 1900 0 1900 0 2000 350 c 1,25,-1
 2000 600 l 1,26,-1
 1500 600 l 1,27,28
 1500 300 1500 300 1200 300 c 2,29,-1
 750 300 l 2,30,31
 450 300 450 300 450 550 c 2,32,-1
 450 675 l 1,33,-1
 0 675 l 1,19,-1
EndSplineSet
EndChar

StartChar: afii10055
Encoding: 1030 1030 561
Width: 650
Flags: W
LayerCount: 2
Fore
SplineSet
0 0 m 1,0,-1
 0 1500 l 1,1,-1
 450 1500 l 1,2,-1
 450 0 l 1,3,-1
 0 0 l 1,0,-1
EndSplineSet
EndChar

StartChar: afii10056
Encoding: 1031 1031 562
Width: 650
Flags: W
LayerCount: 2
Fore
SplineSet
301 1634 m 1,0,-1
 452 1634 l 1,1,-1
 452 1532 l 1,2,-1
 301 1532 l 1,3,-1
 301 1634 l 1,0,-1
0 1634 m 1,4,-1
 151 1634 l 1,5,-1
 151 1532 l 1,6,-1
 0 1532 l 1,7,-1
 0 1634 l 1,4,-1
0 0 m 1,8,-1
 0 1450 l 1,9,-1
 450 1450 l 1,10,-1
 450 0 l 1,11,-1
 0 0 l 1,8,-1
EndSplineSet
EndChar

StartChar: afii10017
Encoding: 1040 1040 570
Width: 2250
Flags: W
LayerCount: 2
Fore
SplineSet
4 0 m 1,0,-1
 800 1500 l 1,1,-1
 1400 1500 l 1,2,-1
 2200 0 l 1,3,-1
 1700 0 l 1,4,-1
 1100 1200 l 1,5,-1
 500 0 l 1,6,-1
 4 0 l 1,0,-1
EndSplineSet
EndChar

StartChar: afii10018
Encoding: 1041 1041 571
Width: 2050
Flags: W
LayerCount: 2
Fore
SplineSet
0 0 m 1,0,-1
 0 1500 l 1,1,-1
 450 1500 l 1,2,-1
 450 0 l 1,3,-1
 0 0 l 1,0,-1
450 900 m 1,4,-1
 1300 900 l 1,5,-1
 1300 750 l 1,6,-1
 1300 600 l 1,7,-1
 450 600 l 1,8,-1
 450 900 l 1,4,-1
600 1500 m 1,9,-1
 1812 1500 l 1,10,-1
 1812 1200 l 1,11,-1
 600 1200 l 1,12,-1
 600 1500 l 1,9,-1
600 300 m 1,13,-1
 1300 300 l 1,14,-1
 1300 0 l 1,15,-1
 600 0 l 1,16,-1
 600 300 l 1,13,-1
1300 899 m 0,17,18
 1300 603 l 1,19,20
 1400 600 1400 600 1460.5 525 c 128,-1,21
 1521 450 1521 450 1460.5 375 c 128,-1,22
 1400 300 1400 300 1298 298 c 1,23,-1
 1303 1 l 1,24,-1
 1500 0 l 2,25,26
 1900 -2.03045685279 1900 -2.03045685279 1900 449 c 0,27,28
 1900 659 1900 659 1701 758 c 1,29,30
 1527 861 1527 861 1300 899 c 0,17,18
1810 1199 m 1025,31,-1
EndSplineSet
EndChar

StartChar: afii10019
Encoding: 1042 1042 572
Width: 2050
Flags: W
LayerCount: 2
Fore
SplineSet
0 0 m 1,0,-1
 0 1500 l 1,1,-1
 450 1500 l 1,2,-1
 450 0 l 1,3,-1
 0 0 l 1,0,-1
450 900 m 1,4,-1
 1300 900 l 1,5,-1
 1300 750 l 1,6,-1
 1300 600 l 1,7,-1
 450 600 l 1,8,-1
 450 900 l 1,4,-1
600 1500 m 1,9,-1
 1300 1500 l 1,10,-1
 1300 1200 l 1,11,-1
 600 1200 l 1,12,-1
 600 1500 l 1,9,-1
600 300 m 1,13,-1
 1300 300 l 1,14,-1
 1300 0 l 1,15,-1
 600 0 l 1,16,-1
 600 300 l 1,13,-1
1298 1498 m 1,17,18
 1596 1500 1596 1500 1699.5 1396.5 c 128,-1,19
 1803 1293 1803 1293 1801.5 1170.5 c 128,-1,20
 1800 1048 1800 1048 1800 941.5 c 128,-1,21
 1800 835 1800 835 1701 758 c 1,22,23
 1900 659 1900 659 1900 449 c 0,24,25
 1900 0 1900 0 1500 0 c 2,26,-1
 1303 1 l 1,27,-1
 1298 298 l 1,28,29
 1400 300 1400 300 1460.5 375 c 128,-1,30
 1521 450 1521 450 1460.5 525 c 128,-1,31
 1400 600 1400 600 1300 603 c 1,32,-1
 1300 899 l 1,33,34
 1400 900 1400 900 1439 972.5 c 128,-1,35
 1478 1045 1478 1045 1439 1122.5 c 128,-1,36
 1400 1200 1400 1200 1298 1199 c 1,37,-1
 1298 1498 l 1,17,18
EndSplineSet
EndChar

StartChar: afii10020
Encoding: 1043 1043 573
Width: 1800
Flags: W
LayerCount: 2
Fore
SplineSet
0 1500 m 1,0,-1
 0 0 l 1,1,-1
 450 0 l 1,2,-1
 450 1500 l 1,3,-1
 0 1500 l 1,0,-1
600 1100 m 1,4,-1
 1600 1100 l 1,5,-1
 1600 1500 l 1,6,-1
 600 1500 l 1,7,-1
 600 1100 l 1,4,-1
EndSplineSet
EndChar

StartChar: afii10021
Encoding: 1044 1044 574
Width: 1950
Flags: W
LayerCount: 2
Fore
SplineSet
0 0 m 1,0,-1
 0 1500 l 1,1,-1
 450 1500 l 1,2,-1
 450 0 l 1,3,-1
 0 0 l 1,0,-1
600 1500 m 1,4,-1
 1300 1500 l 1,5,-1
 1300 1200 l 1,6,-1
 600 1200 l 1,7,-1
 600 1500 l 1,4,-1
600 300 m 1,8,-1
 1300 300 l 1,9,-1
 1300 0 l 1,10,-1
 600 0 l 1,11,-1
 600 300 l 1,8,-1
1298 1498 m 1,12,-1
 1450 1500 l 1,13,14
 1800 1500 1800 1500 1800 1203 c 2,15,-1
 1800 279 l 2,16,17
 1800 0 1800 0 1450 0 c 2,18,-1
 1303 1 l 1,19,-1
 1298 298 l 1,20,21
 1450 300 1450 300 1450 452 c 2,22,-1
 1450 1050 l 2,23,24
 1450 1203 1450 1203 1298 1199 c 1,25,-1
 1298 1498 l 1,12,-1
EndSplineSet
EndChar

StartChar: afii10022
Encoding: 1045 1045 575
Width: 1800
Flags: W
LayerCount: 2
Fore
SplineSet
0 0 m 1,0,-1
 0 1500 l 1,1,-1
 450 1500 l 1,2,-1
 450 0 l 1,3,-1
 0 0 l 1,0,-1
450 900 m 1,4,-1
 1300 900 l 1,5,-1
 1300 600 l 1,6,-1
 450 600 l 1,7,-1
 450 900 l 1,4,-1
600 1500 m 1,8,-1
 1600 1500 l 1,9,-1
 1600 1100 l 1,10,-1
 600 1100 l 1,11,-1
 600 1500 l 1,8,-1
600 400 m 1,12,-1
 1600 400 l 1,13,-1
 1600 0 l 1,14,-1
 600 0 l 1,15,-1
 600 400 l 1,12,-1
EndSplineSet
EndChar

StartChar: afii10024
Encoding: 1046 1046 576
Width: 2000
Flags: W
LayerCount: 2
Fore
SplineSet
1339 1500 m 9,0,-1
 1846 1500 l 1,1,-1
 1341 750 l 1,2,-1
 1846 0 l 1,3,-1
 1346 0 l 1,4,-1
 1341 750 l 1,5,-1
 1339 1500 l 9,0,-1
1175 0 m 1,6,-1
 1175 1502 l 1025,7,-1
507 1500 m 9,8,-1
 0 1500 l 1,9,-1
 505 750 l 1,10,-1
 0 0 l 1,11,-1
 500 0 l 1,12,-1
 505 750 l 1,13,-1
 507 1500 l 9,8,-1
671 0 m 1,14,-1
 671 1502 l 1,15,-1
 1175 1502 l 1,16,-1
 1175 0 l 1,17,-1
 671 0 l 1,14,-1
EndSplineSet
EndChar

StartChar: afii10025
Encoding: 1047 1047 577
Width: 2050
Flags: W
LayerCount: 2
Fore
SplineSet
1300 900 m 1,0,-1
 1300 608 l 1,1,-1
 644 608 l 5,2,-1
 644 900 l 5,3,-1
 1300 900 l 1,0,-1
1300 900 m 1,4,-1
 1300 750 l 1,5,-1
 1300 600 l 1025,6,-1
350 1500 m 1,7,-1
 1300 1500 l 1,8,-1
 1300 1200 l 1,9,-1
 350 1200 l 1,10,-1
 350 1500 l 1,7,-1
350 300 m 1,11,-1
 1300 300 l 1,12,-1
 1300 0 l 1,13,-1
 350 0 l 1,14,-1
 350 300 l 1,11,-1
1298 1498 m 1,15,16
 1596 1500 1596 1500 1699.5 1396.5 c 128,-1,17
 1803 1293 1803 1293 1801.5 1170.5 c 128,-1,18
 1800 1048 1800 1048 1800 941.5 c 128,-1,19
 1800 835 1800 835 1701 758 c 1,20,21
 1900 659 1900 659 1900 449 c 0,22,23
 1900 0 1900 0 1500 0 c 2,24,-1
 1303 1 l 1,25,-1
 1298 298 l 1,26,27
 1400 300 1400 300 1460.5 375 c 128,-1,28
 1521 450 1521 450 1460.5 525 c 128,-1,29
 1400 600 1400 600 1300 603 c 1,30,-1
 1300 899 l 1,31,32
 1400 900 1400 900 1439 972.5 c 128,-1,33
 1478 1045 1478 1045 1439 1122.5 c 128,-1,34
 1400 1200 1400 1200 1298 1199 c 1,35,-1
 1298 1498 l 1,15,16
EndSplineSet
EndChar

StartChar: afii10026
Encoding: 1048 1048 578
Width: 2300
Flags: W
LayerCount: 2
Fore
SplineSet
2101 0 m 1,0,-1
 2101 1500 l 1,1,-1
 1651 1500 l 1,2,-1
 1651 0 l 1,3,-1
 2101 0 l 1,0,-1
1551 1500 m 1,4,-1
 1251 1500 l 1,5,-1
 551 300 l 1,6,-1
 551 0 l 1,7,-1
 851 0 l 1,8,-1
 1551 1200 l 1,9,-1
 1551 1500 l 1,4,-1
450 0 m 1,10,-1
 450 1500 l 1,11,-1
 0 1500 l 1,12,-1
 0 0 l 1,13,-1
 450 0 l 1,10,-1
EndSplineSet
EndChar

StartChar: afii10027
Encoding: 1049 1049 579
Width: 2300
Flags: W
LayerCount: 2
Fore
SplineSet
848 1638 m 1,0,-1
 1251 1638 l 1,1,-1
 1251 1640 l 1,2,-1
 848 1340 l 1,3,-1
 848 1638 l 1,0,-1
2101 0 m 1,4,-1
 2101 1500 l 1,5,-1
 1651 1500 l 1,6,-1
 1651 0 l 1,7,-1
 2101 0 l 1,4,-1
1551 1500 m 1,8,-1
 1251 1500 l 1,9,-1
 551 300 l 1,10,-1
 551 0 l 1,11,-1
 851 0 l 1,12,-1
 1551 1200 l 1,13,-1
 1551 1500 l 1,8,-1
450 0 m 1,14,-1
 450 1500 l 1,15,-1
 0 1500 l 1,16,-1
 0 0 l 1,17,-1
 450 0 l 1,14,-1
EndSplineSet
EndChar

StartChar: afii10028
Encoding: 1050 1050 580
Width: 2000
Flags: W
LayerCount: 2
Fore
SplineSet
0 0 m 1,0,-1
 0 1500 l 1,1,-1
 450 1500 l 1,2,-1
 450 0 l 1,3,-1
 0 0 l 1,0,-1
450 600 m 1,4,-1
 559 600 l 1,5,-1
 1300 0 l 1,6,-1
 1800 0 l 1,7,-1
 688 900 l 1,8,-1
 450 900 l 1,9,-1
 450 600 l 1,4,-1
745 1051 m 1,10,-1
 1300 1500 l 1,11,-1
 1800 1500 l 1,12,-1
 1012 841 l 1,13,-1
 745 1051 l 1,10,-1
EndSplineSet
EndChar

StartChar: afii10029
Encoding: 1051 1051 581
Width: 2300
Flags: W
LayerCount: 2
Fore
SplineSet
0 0 m 1,0,-1
 800 1500 l 1,1,-1
 1400 1500 l 1,2,-1
 2200 0 l 1,3,-1
 1750 0 l 1,4,-1
 1125 1200 l 1,5,-1
 500 0 l 1,6,-1
 0 0 l 1,0,-1
EndSplineSet
EndChar

StartChar: afii10030
Encoding: 1052 1052 582
Width: 2600
Flags: W
LayerCount: 2
Fore
SplineSet
0 2 m 1,0,-1
 0 1500 l 1,1,-1
 700 1500 l 1,2,-1
 1200 600 l 1,3,-1
 1700 1500 l 1,4,-1
 2400 1500 l 1,5,-1
 2400 0 l 1,6,-1
 1950 0 l 1,7,-1
 1950 1000 l 1,8,-1
 1401 2 l 1,9,-1
 1001 -4 l 1,10,-1
 450 1000 l 1,11,-1
 445 2 l 1,12,-1
 0 2 l 1,0,-1
EndSplineSet
EndChar

StartChar: afii10031
Encoding: 1053 1053 583
Width: 2100
Flags: W
LayerCount: 2
Fore
SplineSet
0 0 m 1,0,-1
 0 1500 l 1,1,-1
 450 1500 l 1,2,-1
 450 0 l 1,3,-1
 0 0 l 1,0,-1
600 950 m 1,4,-1
 1300 950 l 1,5,-1
 1300 550 l 1,6,-1
 600 550 l 1,7,-1
 600 950 l 1,4,-1
1450 0 m 1,8,-1
 1450 1500 l 1,9,-1
 1900 1500 l 1,10,-1
 1900 0 l 1,11,-1
 1450 0 l 1,8,-1
EndSplineSet
EndChar

StartChar: afii10032
Encoding: 1054 1054 584
Width: 1950
Flags: W
LayerCount: 2
Fore
SplineSet
0 825 m 1,0,-1
 0 1203 l 2,1,2
 0 1496 0 1496 450 1500 c 1,3,-1
 1300 1500 l 2,4,5
 1750 1500 1750 1500 1750 1203 c 2,6,-1
 1750 825 l 1,7,-1
 1297 825 l 1,8,-1
 1297 950 l 2,9,10
 1300 1200 1300 1200 1100 1203 c 2,11,-1
 600 1203 l 2,12,13
 450 1203 450 1203 450 950 c 2,14,-1
 450 825 l 1,15,-1
 0 825 l 1,0,-1
0 675 m 1,16,-1
 0 300 l 2,17,18
 0 0 0 0 450 0 c 2,19,-1
 1300 0 l 2,20,21
 1700 0 1700 0 1750 300 c 1,22,-1
 1750 675 l 1,23,-1
 1297 675 l 1,24,-1
 1297 550 l 2,25,26
 1300 300 1300 300 1100 300 c 2,27,-1
 600 300 l 2,28,29
 450 300 450 300 450 550 c 2,30,-1
 450 675 l 1,31,-1
 0 675 l 1,16,-1
EndSplineSet
EndChar

StartChar: afii10033
Encoding: 1055 1055 585
Width: 2100
Flags: W
LayerCount: 2
Fore
SplineSet
0 0 m 1,0,-1
 0 960 l 1,1,-1
 450 960 l 1,2,-1
 450 0 l 1,3,-1
 0 0 l 1,0,-1
0 1500 m 1,4,-1
 1898 1500 l 1,5,-1
 1898 1100 l 1,6,-1
 0 1100 l 1,7,-1
 0 1500 l 1,4,-1
1450 0 m 1,8,-1
 1450 960 l 1,9,-1
 1900 960 l 1,10,-1
 1900 0 l 1,11,-1
 1450 0 l 1,8,-1
EndSplineSet
EndChar

StartChar: afii10034
Encoding: 1056 1056 586
Width: 2100
Flags: W
LayerCount: 2
Fore
SplineSet
0 0 m 1,0,-1
 0 825 l 1,1,-1
 450 825 l 1,2,-1
 450 0 l 1,3,-1
 0 0 l 1,0,-1
450 825 m 1,4,-1
 1100 825 l 1,5,-1
 1095 500 l 1,6,-1
 450 500 l 1,7,-1
 450 825 l 1,4,-1
0 1500 m 1,8,-1
 1100 1500 l 1,9,-1
 1100 1200 l 1,10,-1
 0 1200 l 1,11,-1
 0 1500 l 1,8,-1
1100 1500 m 1,12,-1
 1450 1500 l 2,13,14
 1900 1500 1900 1500 1900 1000 c 256,15,16
 1900 500 1900 500 1450 500 c 2,17,-1
 1095 500 l 1,18,-1
 1100 825 l 1,19,-1
 1300 825 l 2,20,21
 1450 825 1450 825 1450 1000 c 0,22,23
 1450 1200 1450 1200 1300 1200 c 2,24,-1
 1100 1200 l 1,25,-1
 1100 1500 l 1,12,-1
EndSplineSet
EndChar

StartChar: afii10035
Encoding: 1057 1057 587
Width: 2200
Flags: W
LayerCount: 2
Fore
SplineSet
0 825 m 1,0,-1
 0 1150 l 2,1,2
 0 1496 0 1496 500 1500 c 1,3,-1
 1450 1500 l 2,4,5
 1950 1500 1950 1500 1950 1150 c 2,6,-1
 1950 900 l 1,7,-1
 1500 900 l 1,8,9
 1500 1200 1500 1200 1200 1200 c 2,10,-1
 750 1200 l 2,11,12
 450 1203 450 1203 450 950 c 2,13,-1
 450 825 l 1,14,-1
 0 825 l 1,0,-1
0 675 m 1,15,-1
 0 350 l 2,16,17
 0 0 0 0 500 0 c 2,18,-1
 1300 0 l 2,19,20
 1900 0 1900 0 2000 350 c 1,21,-1
 2000 600 l 1,22,-1
 1500 600 l 1,23,24
 1500 300 1500 300 1200 300 c 2,25,-1
 750 300 l 2,26,27
 450 300 450 300 450 550 c 2,28,-1
 450 675 l 1,29,-1
 0 675 l 1,15,-1
EndSplineSet
EndChar

StartChar: afii10036
Encoding: 1058 1058 588
Width: 1900
Flags: W
LayerCount: 2
Fore
SplineSet
0 1500 m 1,0,-1
 1700 1500 l 1,1,-1
 1700 1200 l 1,2,-1
 0 1200 l 1,3,-1
 0 1500 l 1,0,-1
650 1050 m 1,4,-1
 650 0 l 1,5,-1
 1050 0 l 1,6,-1
 1050 1050 l 1,7,-1
 650 1050 l 1,4,-1
EndSplineSet
EndChar

StartChar: afii10037
Encoding: 1059 1059 589
Width: 2250
Flags: W
LayerCount: 2
Fore
SplineSet
0 1500 m 1,0,-1
 800 500 l 1,1,-1
 400 0 l 1,2,-1
 850 0 l 1,3,-1
 1250 500 l 1,4,-1
 450 1500 l 1,5,-1
 0 1500 l 1,0,-1
1140 924 m 1,6,-1
 1600 1500 l 1,7,-1
 2050 1500 l 1,8,-1
 1354 630 l 1,9,-1
 1140 924 l 1,6,-1
EndSplineSet
EndChar

StartChar: afii10038
Encoding: 1060 1060 590
Width: 2100
Flags: W
LayerCount: 2
Fore
SplineSet
496 825 m 5,0,-1
 496 825 l 5,1,-1
 501 500 l 5,2,-1
 496 500 l 5,3,-1
 496 825 l 5,0,-1
496 1500 m 5,4,-1
 496 1200 l 1029,5,-1
496 1500 m 5,6,-1
 296 1500 l 6,7,8
 -4 1500 -4 1500 -4 1000 c 256,9,10
 -4 500 -4 500 296 500 c 6,11,-1
 501 500 l 5,12,-1
 496 825 l 5,13,-1
 446 825 l 6,14,15
 296 825 296 825 296 1000 c 4,16,17
 296 1200 296 1200 446 1200 c 6,18,-1
 496 1200 l 5,19,-1
 496 1500 l 5,6,-1
650 0 m 1,20,-1
 650 1495 l 1,21,-1
 1100 1495 l 1,22,-1
 1100 0 l 1,23,-1
 650 0 l 1,20,-1
1250 825 m 1,24,-1
 1250 825 l 1,25,-1
 1245 500 l 1,26,-1
 1250 500 l 1,27,-1
 1250 825 l 1,24,-1
1250 1500 m 1,28,-1
 1250 1200 l 1025,29,-1
1250 1500 m 1,30,-1
 1450 1500 l 2,31,32
 1800 1500 1800 1500 1800 1000 c 256,33,34
 1800 500 1800 500 1450 500 c 2,35,-1
 1245 500 l 1,36,-1
 1250 825 l 1,37,-1
 1300 825 l 2,38,39
 1450 825 1450 825 1450 1000 c 0,40,41
 1450 1200 1450 1200 1300 1200 c 2,42,-1
 1250 1200 l 1,43,-1
 1250 1500 l 1,30,-1
EndSplineSet
EndChar

StartChar: afii10039
Encoding: 1061 1061 591
Width: 2000
Flags: W
LayerCount: 2
Fore
SplineSet
0 0 m 1,0,-1
 650 750 l 1,1,-1
 0 1500 l 1,2,-1
 509 1500 l 1,3,-1
 1814 0 l 1,4,-1
 1312 0 l 1,5,-1
 900 450 l 1,6,-1
 500 0 l 1,7,-1
 0 0 l 1,0,-1
1000 1154 m 1,8,-1
 1300 1500 l 1,9,-1
 1800 1500 l 1,10,-1
 1258 856 l 1,11,-1
 1000 1154 l 1,8,-1
EndSplineSet
EndChar

StartChar: afii10040
Encoding: 1062 1062 592
Width: 2000
Flags: W
LayerCount: 2
Fore
SplineSet
1999 -410 m 1,0,-1
 1305 -410 l 1,1,-1
 1305 -116 l 1,2,-1
 1789 -116 l 0,3,-1
 1941 -178 l 0,4,-1
 1999 -316 l 1,5,-1
 1999 -410 l 1,0,-1
0 1500 m 1,6,-1
 0 300 l 2,7,8
 0 0 0 0 450 0 c 2,9,-1
 800 0 l 1,10,-1
 800 300 l 1,11,-1
 625 300 l 2,12,13
 450 300 450 300 450 450 c 2,14,-1
 450 1500 l 1,15,-1
 0 1500 l 1,6,-1
950 300 m 1,16,-1
 1125 300 l 2,17,18
 1300 300 1300 300 1300 450 c 2,19,-1
 1300 1500 l 1,20,-1
 1750 1500 l 1,21,-1
 1750 300 l 2,22,23
 1750 0 1750 0 1300 0 c 2,24,-1
 950 0 l 1,25,-1
 950 300 l 1,16,-1
EndSplineSet
EndChar

StartChar: afii10041
Encoding: 1063 1063 593
Width: 2000
Flags: W
LayerCount: 2
Fore
SplineSet
950 620 m 16,0,1
 950 920 l 1,2,-1
 1125 920 l 2,3,4
 1300 920 1300 920 1300 1070 c 2,5,6
 1300 1500 l 1,7,-1
 1750 1500 l 0,8,-1
 1741.5 620 l 0,9,-1
 950 620 l 16,0,1
1309 540 m 1,10,-1
 1747 540 l 1,11,-1
 1747 0 l 1,12,-1
 1309 0 l 1,13,-1
 1309 540 l 1,10,-1
0 1500 m 1,14,-1
 0 920 l 2,15,16
 0 620 0 620 450 620 c 2,17,-1
 800 620 l 1,18,-1
 800 920 l 1,19,-1
 625 920 l 2,20,21
 450 920 450 920 450 1070 c 2,22,-1
 450 1500 l 1,23,-1
 0 1500 l 1,14,-1
EndSplineSet
EndChar

StartChar: afii10042
Encoding: 1064 1064 594
Width: 2825
Flags: W
LayerCount: 2
Fore
SplineSet
1068 1399 m 1,0,-1
 1626 1399 l 1,1,-1
 1626 685 l 5,2,-1
 1068 685 l 5,3,-1
 1068 1399 l 1,0,-1
1650 0 m 1,4,-1
 2709 -4 l 1,5,-1
 2700 1500 l 1,6,-1
 2250 1500 l 1,7,-1
 2250 500 l 1,8,-1
 450 500 l 1,9,-1
 450 1500 l 1,10,-1
 0 1500 l 1,11,-1
 0 0 l 1,12,-1
 1650 0 l 1,4,-1
EndSplineSet
EndChar

StartChar: afii10043
Encoding: 1065 1065 595
Width: 2825
Flags: W
LayerCount: 2
Fore
SplineSet
2706 -128 m 5,0,-1
 2706 -406 l 1,1,-1
 1876 -406 l 1,2,-1
 1876 -128 l 5,3,-1
 2706 -128 l 5,0,-1
1068 1399 m 1,4,-1
 1626 1399 l 1,5,-1
 1626 685 l 1,6,-1
 1068 685 l 1,7,-1
 1068 1399 l 1,4,-1
1650 0 m 1,8,-1
 2709 -4 l 1,9,-1
 2700 1500 l 1,10,-1
 2250 1500 l 1,11,-1
 2250 500 l 1,12,-1
 450 500 l 1,13,-1
 450 1500 l 1,14,-1
 0 1500 l 1,15,-1
 0 0 l 1,16,-1
 1650 0 l 1,8,-1
EndSplineSet
EndChar

StartChar: afii10046
Encoding: 1068 1068 598
Width: 2100
Flags: W
LayerCount: 2
Fore
SplineSet
0 1500 m 1,0,-1
 0 675 l 1,1,-1
 450 675 l 1,2,-1
 450 1500 l 1,3,-1
 0 1500 l 1,0,-1
450 675 m 1,4,-1
 1100 675 l 1,5,-1
 1095 1000 l 1,6,-1
 450 1000 l 1,7,-1
 450 675 l 1,4,-1
0 0 m 1,8,-1
 1100 0 l 1,9,-1
 1100 300 l 1,10,-1
 0 300 l 1,11,-1
 0 0 l 1,8,-1
1100 0 m 1,12,-1
 1450 0 l 2,13,14
 1900 0 1900 0 1900 500 c 256,15,16
 1900 1000 1900 1000 1450 1000 c 2,17,-1
 1095 1000 l 1,18,-1
 1100 675 l 1,19,-1
 1300 675 l 2,20,21
 1450 675 1450 675 1450 500 c 0,22,23
 1450 300 1450 300 1300 300 c 2,24,-1
 1100 300 l 1,25,-1
 1100 0 l 1,12,-1
EndSplineSet
EndChar

StartChar: afii10048
Encoding: 1070 1070 600
Width: 1950
Flags: W
LayerCount: 2
Fore
SplineSet
577 916 m 1,0,-1
 577 568 l 1,1,-1
 305 568 l 1,2,-1
 305 916 l 1,3,-1
 577 916 l 1,0,-1
383 1496 m 1,4,-1
 383 0 l 1,5,-1
 0 0 l 1,6,-1
 0 1496 l 1,7,-1
 383 1496 l 1,4,-1
690 825 m 1,8,-1
 690 1203 l 2,9,10
 690 1496 690 1496 940 1500 c 1,11,-1
 1500 1500 l 2,12,13
 1750 1500 1750 1500 1750 1203 c 2,14,-1
 1750 825 l 1,15,-1
 1497 825 l 1,16,-1
 1497 950 l 2,17,18
 1497 1203 1497 1203 1220 1203 c 0,19,20
 940 1203 940 1203 940 950 c 2,21,-1
 940 825 l 1,22,-1
 690 825 l 1,8,-1
690 675 m 1,23,-1
 690 300 l 2,24,25
 690 0 690 0 940 0 c 2,26,-1
 1500 0 l 2,27,28
 1700 0 1700 0 1750 300 c 1,29,-1
 1750 675 l 1,30,-1
 1497 675 l 1,31,-1
 1497 550 l 2,32,33
 1497 300 1497 300 1220 300 c 0,34,35
 940 300 940 300 940 550 c 2,36,-1
 940 675 l 1,37,-1
 690 675 l 1,23,-1
EndSplineSet
EndChar

StartChar: afii10049
Encoding: 1071 1071 601
Width: 2100
Flags: W
LayerCount: 2
Fore
SplineSet
1900 0 m 1,0,-1
 1900 825 l 1,1,-1
 1450 825 l 1,2,-1
 1450 0 l 1,3,-1
 1900 0 l 1,0,-1
1450 825 m 1,4,-1
 800 825 l 1,5,-1
 805 500 l 1,6,-1
 1450 500 l 1,7,-1
 1450 825 l 1,4,-1
1900 1500 m 1,8,-1
 800 1500 l 1,9,-1
 800 1200 l 1,10,-1
 1900 1200 l 1,11,-1
 1900 1500 l 1,8,-1
800 1500 m 1,12,-1
 500 1500 l 2,13,14
 0 1500 0 1500 0 1050 c 0,15,16
 0 825 0 825 200 675 c 1,17,18
 0 675 0 675 0 300 c 2,19,-1
 0 0 l 1,20,-1
 500 0 l 1,21,-1
 500 300 l 2,22,23
 500 500 500 500 684 500 c 2,24,-1
 805 500 l 1,25,-1
 800 825 l 1,26,-1
 600 825 l 2,27,28
 450 825 450 825 450 1050 c 0,29,30
 450 1200 450 1200 600 1200 c 2,31,-1
 800 1200 l 1,32,-1
 800 1500 l 1,12,-1
EndSplineSet
EndChar

StartChar: afii10065
Encoding: 1072 1072 602
Width: 2250
Flags: W
LayerCount: 2
Fore
SplineSet
4 0 m 1,0,-1
 800 1500 l 1,1,-1
 1400 1500 l 1,2,-1
 2200 0 l 1,3,-1
 1700 0 l 1,4,-1
 1100 1200 l 1,5,-1
 500 0 l 1,6,-1
 4 0 l 1,0,-1
EndSplineSet
EndChar

StartChar: afii10066
Encoding: 1073 1073 603
Width: 2050
Flags: W
LayerCount: 2
Fore
SplineSet
0 0 m 1,0,-1
 0 1500 l 1,1,-1
 450 1500 l 1,2,-1
 450 0 l 1,3,-1
 0 0 l 1,0,-1
450 900 m 1,4,-1
 1300 900 l 1,5,-1
 1300 750 l 1,6,-1
 1300 600 l 1,7,-1
 450 600 l 1,8,-1
 450 900 l 1,4,-1
600 1500 m 1,9,-1
 1812 1500 l 1,10,-1
 1812 1200 l 1,11,-1
 600 1200 l 1,12,-1
 600 1500 l 1,9,-1
600 300 m 1,13,-1
 1300 300 l 1,14,-1
 1300 0 l 1,15,-1
 600 0 l 1,16,-1
 600 300 l 1,13,-1
1300 899 m 0,17,18
 1300 603 l 1,19,20
 1400 600 1400 600 1460.5 525 c 128,-1,21
 1521 450 1521 450 1460.5 375 c 128,-1,22
 1400 300 1400 300 1298 298 c 1,23,-1
 1303 1 l 1,24,-1
 1500 0 l 2,25,26
 1900 -2.03045685279 1900 -2.03045685279 1900 449 c 0,27,28
 1900 659 1900 659 1701 758 c 1,29,30
 1527 861 1527 861 1300 899 c 0,17,18
1810 1199 m 1025,31,-1
EndSplineSet
EndChar

StartChar: afii10067
Encoding: 1074 1074 604
Width: 2050
Flags: W
LayerCount: 2
Fore
SplineSet
0 0 m 1,0,-1
 0 1500 l 1,1,-1
 450 1500 l 1,2,-1
 450 0 l 1,3,-1
 0 0 l 1,0,-1
450 900 m 1,4,-1
 1300 900 l 1,5,-1
 1300 750 l 1,6,-1
 1300 600 l 1,7,-1
 450 600 l 1,8,-1
 450 900 l 1,4,-1
600 1500 m 1,9,-1
 1300 1500 l 1,10,-1
 1300 1200 l 1,11,-1
 600 1200 l 1,12,-1
 600 1500 l 1,9,-1
600 300 m 1,13,-1
 1300 300 l 1,14,-1
 1300 0 l 1,15,-1
 600 0 l 1,16,-1
 600 300 l 1,13,-1
1298 1498 m 1,17,18
 1596 1500 1596 1500 1699.5 1396.5 c 128,-1,19
 1803 1293 1803 1293 1801.5 1170.5 c 128,-1,20
 1800 1048 1800 1048 1800 941.5 c 128,-1,21
 1800 835 1800 835 1701 758 c 1,22,23
 1900 659 1900 659 1900 449 c 0,24,25
 1900 0 1900 0 1500 0 c 2,26,-1
 1303 1 l 1,27,-1
 1298 298 l 1,28,29
 1400 300 1400 300 1460.5 375 c 128,-1,30
 1521 450 1521 450 1460.5 525 c 128,-1,31
 1400 600 1400 600 1300 603 c 1,32,-1
 1300 899 l 1,33,34
 1400 900 1400 900 1439 972.5 c 128,-1,35
 1478 1045 1478 1045 1439 1122.5 c 128,-1,36
 1400 1200 1400 1200 1298 1199 c 1,37,-1
 1298 1498 l 1,17,18
EndSplineSet
EndChar

StartChar: afii10068
Encoding: 1075 1075 605
Width: 1800
Flags: W
LayerCount: 2
Fore
SplineSet
0 1500 m 1,0,-1
 0 0 l 1,1,-1
 450 0 l 1,2,-1
 450 1500 l 1,3,-1
 0 1500 l 1,0,-1
600 1100 m 1,4,-1
 1600 1100 l 1,5,-1
 1600 1500 l 1,6,-1
 600 1500 l 1,7,-1
 600 1100 l 1,4,-1
EndSplineSet
EndChar

StartChar: afii10069
Encoding: 1076 1076 606
Width: 1950
Flags: W
LayerCount: 2
Fore
SplineSet
0 0 m 1,0,-1
 0 1500 l 1,1,-1
 450 1500 l 1,2,-1
 450 0 l 1,3,-1
 0 0 l 1,0,-1
600 1500 m 1,4,-1
 1300 1500 l 1,5,-1
 1300 1200 l 1,6,-1
 600 1200 l 1,7,-1
 600 1500 l 1,4,-1
600 300 m 1,8,-1
 1300 300 l 1,9,-1
 1300 0 l 1,10,-1
 600 0 l 1,11,-1
 600 300 l 1,8,-1
1298 1498 m 1,12,-1
 1450 1500 l 1,13,14
 1800 1500 1800 1500 1800 1203 c 2,15,-1
 1800 279 l 2,16,17
 1800 0 1800 0 1450 0 c 2,18,-1
 1303 1 l 1,19,-1
 1298 298 l 1,20,21
 1450 300 1450 300 1450 452 c 2,22,-1
 1450 1050 l 2,23,24
 1450 1203 1450 1203 1298 1199 c 1,25,-1
 1298 1498 l 1,12,-1
EndSplineSet
EndChar

StartChar: afii10070
Encoding: 1077 1077 607
Width: 1800
Flags: W
LayerCount: 2
Fore
SplineSet
0 0 m 1,0,-1
 0 1500 l 1,1,-1
 450 1500 l 1,2,-1
 450 0 l 1,3,-1
 0 0 l 1,0,-1
450 900 m 1,4,-1
 1300 900 l 1,5,-1
 1300 600 l 1,6,-1
 450 600 l 1,7,-1
 450 900 l 1,4,-1
600 1500 m 1,8,-1
 1600 1500 l 1,9,-1
 1600 1100 l 1,10,-1
 600 1100 l 1,11,-1
 600 1500 l 1,8,-1
600 400 m 1,12,-1
 1600 400 l 1,13,-1
 1600 0 l 1,14,-1
 600 0 l 1,15,-1
 600 400 l 1,12,-1
EndSplineSet
EndChar

StartChar: afii10072
Encoding: 1078 1078 608
Width: 2000
Flags: W
LayerCount: 2
Fore
SplineSet
1339 1500 m 9,0,-1
 1846 1500 l 1,1,-1
 1341 750 l 1,2,-1
 1846 0 l 1,3,-1
 1346 0 l 1,4,-1
 1341 750 l 1,5,-1
 1339 1500 l 9,0,-1
1175 0 m 1,6,-1
 1175 1502 l 1025,7,-1
507 1500 m 9,8,-1
 0 1500 l 1,9,-1
 505 750 l 1,10,-1
 0 0 l 1,11,-1
 500 0 l 1,12,-1
 505 750 l 1,13,-1
 507 1500 l 9,8,-1
671 0 m 1,14,-1
 671 1502 l 1,15,-1
 1175 1502 l 1,16,-1
 1175 0 l 1,17,-1
 671 0 l 1,14,-1
EndSplineSet
EndChar

StartChar: afii10073
Encoding: 1079 1079 609
Width: 2050
Flags: W
LayerCount: 2
Fore
SplineSet
1300 900 m 1,0,-1
 1300 608 l 1,1,-1
 644 608 l 5,2,-1
 644 900 l 5,3,-1
 1300 900 l 1,0,-1
1300 900 m 1,4,-1
 1300 750 l 1,5,-1
 1300 600 l 1025,6,-1
350 1500 m 1,7,-1
 1300 1500 l 1,8,-1
 1300 1200 l 1,9,-1
 350 1200 l 1,10,-1
 350 1500 l 1,7,-1
350 300 m 1,11,-1
 1300 300 l 1,12,-1
 1300 0 l 1,13,-1
 350 0 l 1,14,-1
 350 300 l 1,11,-1
1298 1498 m 1,15,16
 1596 1500 1596 1500 1699.5 1396.5 c 128,-1,17
 1803 1293 1803 1293 1801.5 1170.5 c 128,-1,18
 1800 1048 1800 1048 1800 941.5 c 128,-1,19
 1800 835 1800 835 1701 758 c 1,20,21
 1900 659 1900 659 1900 449 c 0,22,23
 1900 0 1900 0 1500 0 c 2,24,-1
 1303 1 l 1,25,-1
 1298 298 l 1,26,27
 1400 300 1400 300 1460.5 375 c 128,-1,28
 1521 450 1521 450 1460.5 525 c 128,-1,29
 1400 600 1400 600 1300 603 c 1,30,-1
 1300 899 l 1,31,32
 1400 900 1400 900 1439 972.5 c 128,-1,33
 1478 1045 1478 1045 1439 1122.5 c 128,-1,34
 1400 1200 1400 1200 1298 1199 c 1,35,-1
 1298 1498 l 1,15,16
EndSplineSet
EndChar

StartChar: afii10074
Encoding: 1080 1080 610
Width: 2300
Flags: W
LayerCount: 2
Fore
SplineSet
2101 0 m 1,0,-1
 2101 1500 l 1,1,-1
 1651 1500 l 1,2,-1
 1651 0 l 1,3,-1
 2101 0 l 1,0,-1
1551 1500 m 1,4,-1
 1251 1500 l 1,5,-1
 551 300 l 1,6,-1
 551 0 l 1,7,-1
 851 0 l 1,8,-1
 1551 1200 l 1,9,-1
 1551 1500 l 1,4,-1
450 0 m 1,10,-1
 450 1500 l 1,11,-1
 0 1500 l 1,12,-1
 0 0 l 1,13,-1
 450 0 l 1,10,-1
EndSplineSet
EndChar

StartChar: afii10075
Encoding: 1081 1081 611
Width: 2300
Flags: W
LayerCount: 2
Fore
SplineSet
848 1638 m 1,0,-1
 1251 1638 l 1,1,-1
 1251 1640 l 1,2,-1
 848 1340 l 1,3,-1
 848 1638 l 1,0,-1
2101 0 m 1,4,-1
 2101 1500 l 1,5,-1
 1651 1500 l 1,6,-1
 1651 0 l 1,7,-1
 2101 0 l 1,4,-1
1551 1500 m 1,8,-1
 1251 1500 l 1,9,-1
 551 300 l 1,10,-1
 551 0 l 1,11,-1
 851 0 l 1,12,-1
 1551 1200 l 1,13,-1
 1551 1500 l 1,8,-1
450 0 m 1,14,-1
 450 1500 l 1,15,-1
 0 1500 l 1,16,-1
 0 0 l 1,17,-1
 450 0 l 1,14,-1
EndSplineSet
EndChar

StartChar: afii10076
Encoding: 1082 1082 612
Width: 2000
Flags: W
LayerCount: 2
Fore
SplineSet
0 0 m 1,0,-1
 0 1500 l 1,1,-1
 450 1500 l 1,2,-1
 450 0 l 1,3,-1
 0 0 l 1,0,-1
450 600 m 1,4,-1
 559 600 l 1,5,-1
 1300 0 l 1,6,-1
 1800 0 l 1,7,-1
 688 900 l 1,8,-1
 450 900 l 1,9,-1
 450 600 l 1,4,-1
745 1051 m 1,10,-1
 1300 1500 l 1,11,-1
 1800 1500 l 1,12,-1
 1012 841 l 1,13,-1
 745 1051 l 1,10,-1
EndSplineSet
EndChar

StartChar: afii10077
Encoding: 1083 1083 613
Width: 2300
Flags: W
LayerCount: 2
Fore
SplineSet
0 0 m 1,0,-1
 800 1500 l 1,1,-1
 1400 1500 l 1,2,-1
 2200 0 l 1,3,-1
 1750 0 l 1,4,-1
 1125 1200 l 1,5,-1
 500 0 l 1,6,-1
 0 0 l 1,0,-1
EndSplineSet
EndChar

StartChar: afii10078
Encoding: 1084 1084 614
Width: 2600
Flags: W
LayerCount: 2
Fore
SplineSet
0 2 m 1,0,-1
 0 1500 l 1,1,-1
 700 1500 l 1,2,-1
 1200 600 l 1,3,-1
 1700 1500 l 1,4,-1
 2400 1500 l 1,5,-1
 2400 0 l 1,6,-1
 1950 0 l 1,7,-1
 1950 1000 l 1,8,-1
 1401 2 l 1,9,-1
 1001 -4 l 1,10,-1
 450 1000 l 1,11,-1
 445 2 l 1,12,-1
 0 2 l 1,0,-1
EndSplineSet
EndChar

StartChar: afii10079
Encoding: 1085 1085 615
Width: 2100
Flags: W
LayerCount: 2
Fore
SplineSet
0 0 m 1,0,-1
 0 1500 l 1,1,-1
 450 1500 l 1,2,-1
 450 0 l 1,3,-1
 0 0 l 1,0,-1
600 950 m 1,4,-1
 1300 950 l 1,5,-1
 1300 550 l 1,6,-1
 600 550 l 1,7,-1
 600 950 l 1,4,-1
1450 0 m 1,8,-1
 1450 1500 l 1,9,-1
 1900 1500 l 1,10,-1
 1900 0 l 1,11,-1
 1450 0 l 1,8,-1
EndSplineSet
EndChar

StartChar: afii10080
Encoding: 1086 1086 616
Width: 1950
Flags: W
LayerCount: 2
Fore
SplineSet
0 825 m 1,0,-1
 0 1203 l 2,1,2
 0 1496 0 1496 450 1500 c 1,3,-1
 1300 1500 l 2,4,5
 1750 1500 1750 1500 1750 1203 c 2,6,-1
 1750 825 l 1,7,-1
 1297 825 l 1,8,-1
 1297 950 l 2,9,10
 1300 1200 1300 1200 1100 1203 c 2,11,-1
 600 1203 l 2,12,13
 450 1203 450 1203 450 950 c 2,14,-1
 450 825 l 1,15,-1
 0 825 l 1,0,-1
0 675 m 1,16,-1
 0 300 l 2,17,18
 0 0 0 0 450 0 c 2,19,-1
 1300 0 l 2,20,21
 1700 0 1700 0 1750 300 c 1,22,-1
 1750 675 l 1,23,-1
 1297 675 l 1,24,-1
 1297 550 l 2,25,26
 1300 300 1300 300 1100 300 c 2,27,-1
 600 300 l 2,28,29
 450 300 450 300 450 550 c 2,30,-1
 450 675 l 1,31,-1
 0 675 l 1,16,-1
EndSplineSet
EndChar

StartChar: afii10081
Encoding: 1087 1087 617
Width: 2100
Flags: W
LayerCount: 2
Fore
SplineSet
0 0 m 1,0,-1
 0 960 l 1,1,-1
 450 960 l 1,2,-1
 450 0 l 1,3,-1
 0 0 l 1,0,-1
0 1500 m 1,4,-1
 1898 1500 l 1,5,-1
 1898 1100 l 1,6,-1
 0 1100 l 1,7,-1
 0 1500 l 1,4,-1
1450 0 m 1,8,-1
 1450 960 l 1,9,-1
 1900 960 l 1,10,-1
 1900 0 l 1,11,-1
 1450 0 l 1,8,-1
EndSplineSet
EndChar

StartChar: afii10082
Encoding: 1088 1088 618
Width: 2100
Flags: W
LayerCount: 2
Fore
SplineSet
0 0 m 1,0,-1
 0 825 l 1,1,-1
 450 825 l 1,2,-1
 450 0 l 1,3,-1
 0 0 l 1,0,-1
450 825 m 1,4,-1
 1100 825 l 1,5,-1
 1095 500 l 1,6,-1
 450 500 l 1,7,-1
 450 825 l 1,4,-1
0 1500 m 1,8,-1
 1100 1500 l 1,9,-1
 1100 1200 l 1,10,-1
 0 1200 l 1,11,-1
 0 1500 l 1,8,-1
1100 1500 m 1,12,-1
 1450 1500 l 2,13,14
 1900 1500 1900 1500 1900 1000 c 256,15,16
 1900 500 1900 500 1450 500 c 2,17,-1
 1095 500 l 1,18,-1
 1100 825 l 1,19,-1
 1300 825 l 2,20,21
 1450 825 1450 825 1450 1000 c 0,22,23
 1450 1200 1450 1200 1300 1200 c 2,24,-1
 1100 1200 l 1,25,-1
 1100 1500 l 1,12,-1
EndSplineSet
EndChar

StartChar: afii10083
Encoding: 1089 1089 619
Width: 2200
Flags: W
LayerCount: 2
Fore
SplineSet
0 825 m 1,0,-1
 0 1150 l 2,1,2
 0 1496 0 1496 500 1500 c 1,3,-1
 1450 1500 l 2,4,5
 1950 1500 1950 1500 1950 1150 c 2,6,-1
 1950 900 l 1,7,-1
 1500 900 l 1,8,9
 1500 1200 1500 1200 1200 1200 c 2,10,-1
 750 1200 l 2,11,12
 450 1203 450 1203 450 950 c 2,13,-1
 450 825 l 1,14,-1
 0 825 l 1,0,-1
0 675 m 1,15,-1
 0 350 l 2,16,17
 0 0 0 0 500 0 c 2,18,-1
 1300 0 l 2,19,20
 1900 0 1900 0 2000 350 c 1,21,-1
 2000 600 l 1,22,-1
 1500 600 l 1,23,24
 1500 300 1500 300 1200 300 c 2,25,-1
 750 300 l 2,26,27
 450 300 450 300 450 550 c 2,28,-1
 450 675 l 1,29,-1
 0 675 l 1,15,-1
EndSplineSet
EndChar

StartChar: afii10084
Encoding: 1090 1090 620
Width: 1900
Flags: W
LayerCount: 2
Fore
SplineSet
0 1500 m 1,0,-1
 1700 1500 l 1,1,-1
 1700 1200 l 1,2,-1
 0 1200 l 1,3,-1
 0 1500 l 1,0,-1
650 1050 m 1,4,-1
 650 0 l 1,5,-1
 1050 0 l 1,6,-1
 1050 1050 l 1,7,-1
 650 1050 l 1,4,-1
EndSplineSet
EndChar

StartChar: afii10085
Encoding: 1091 1091 621
Width: 2250
Flags: W
LayerCount: 2
Fore
SplineSet
0 1500 m 1,0,-1
 800 500 l 1,1,-1
 400 0 l 1,2,-1
 850 0 l 1,3,-1
 1250 500 l 1,4,-1
 450 1500 l 1,5,-1
 0 1500 l 1,0,-1
1140 924 m 1,6,-1
 1600 1500 l 1,7,-1
 2050 1500 l 1,8,-1
 1354 630 l 1,9,-1
 1140 924 l 1,6,-1
EndSplineSet
EndChar

StartChar: afii10086
Encoding: 1092 1092 622
Width: 2100
Flags: W
LayerCount: 2
Fore
SplineSet
496 825 m 5,0,-1
 496 825 l 5,1,-1
 501 500 l 5,2,-1
 496 500 l 5,3,-1
 496 825 l 5,0,-1
496 1500 m 5,4,-1
 496 1200 l 1029,5,-1
496 1500 m 5,6,-1
 296 1500 l 6,7,8
 -4 1500 -4 1500 -4 1000 c 256,9,10
 -4 500 -4 500 296 500 c 6,11,-1
 501 500 l 5,12,-1
 496 825 l 5,13,-1
 446 825 l 6,14,15
 296 825 296 825 296 1000 c 4,16,17
 296 1200 296 1200 446 1200 c 6,18,-1
 496 1200 l 5,19,-1
 496 1500 l 5,6,-1
650 0 m 1,20,-1
 650 1495 l 1,21,-1
 1100 1495 l 1,22,-1
 1100 0 l 1,23,-1
 650 0 l 1,20,-1
1250 825 m 1,24,-1
 1250 825 l 1,25,-1
 1245 500 l 1,26,-1
 1250 500 l 1,27,-1
 1250 825 l 1,24,-1
1250 1500 m 1,28,-1
 1250 1200 l 1025,29,-1
1250 1500 m 1,30,-1
 1450 1500 l 2,31,32
 1800 1500 1800 1500 1800 1000 c 256,33,34
 1800 500 1800 500 1450 500 c 2,35,-1
 1245 500 l 1,36,-1
 1250 825 l 1,37,-1
 1300 825 l 2,38,39
 1450 825 1450 825 1450 1000 c 0,40,41
 1450 1200 1450 1200 1300 1200 c 2,42,-1
 1250 1200 l 1,43,-1
 1250 1500 l 1,30,-1
EndSplineSet
EndChar

StartChar: afii10087
Encoding: 1093 1093 623
Width: 2000
Flags: W
LayerCount: 2
Fore
SplineSet
0 0 m 1,0,-1
 650 750 l 1,1,-1
 0 1500 l 1,2,-1
 509 1500 l 1,3,-1
 1814 0 l 1,4,-1
 1312 0 l 1,5,-1
 900 450 l 1,6,-1
 500 0 l 1,7,-1
 0 0 l 1,0,-1
1000 1154 m 1,8,-1
 1300 1500 l 1,9,-1
 1800 1500 l 1,10,-1
 1258 856 l 1,11,-1
 1000 1154 l 1,8,-1
EndSplineSet
EndChar

StartChar: afii10088
Encoding: 1094 1094 624
Width: 2000
Flags: W
LayerCount: 2
Fore
SplineSet
1999 -410 m 1,0,-1
 1305 -410 l 1,1,-1
 1305 -116 l 1,2,-1
 1789 -116 l 0,3,-1
 1941 -178 l 0,4,-1
 1999 -316 l 1,5,-1
 1999 -410 l 1,0,-1
0 1500 m 1,6,-1
 0 300 l 2,7,8
 0 0 0 0 450 0 c 2,9,-1
 800 0 l 1,10,-1
 800 300 l 1,11,-1
 625 300 l 2,12,13
 450 300 450 300 450 450 c 2,14,-1
 450 1500 l 1,15,-1
 0 1500 l 1,6,-1
950 300 m 1,16,-1
 1125 300 l 2,17,18
 1300 300 1300 300 1300 450 c 2,19,-1
 1300 1500 l 1,20,-1
 1750 1500 l 1,21,-1
 1750 300 l 2,22,23
 1750 0 1750 0 1300 0 c 2,24,-1
 950 0 l 1,25,-1
 950 300 l 1,16,-1
EndSplineSet
EndChar

StartChar: afii10089
Encoding: 1095 1095 625
Width: 2000
Flags: W
LayerCount: 2
Fore
SplineSet
950 620 m 16,0,1
 950 920 l 1,2,-1
 1125 920 l 2,3,4
 1300 920 1300 920 1300 1070 c 2,5,6
 1300 1500 l 1,7,-1
 1750 1500 l 0,8,-1
 1741.5 620 l 0,9,-1
 950 620 l 16,0,1
1309 540 m 1,10,-1
 1747 540 l 1,11,-1
 1747 0 l 1,12,-1
 1309 0 l 1,13,-1
 1309 540 l 1,10,-1
0 1500 m 1,14,-1
 0 920 l 2,15,16
 0 620 0 620 450 620 c 2,17,-1
 800 620 l 1,18,-1
 800 920 l 1,19,-1
 625 920 l 2,20,21
 450 920 450 920 450 1070 c 2,22,-1
 450 1500 l 1,23,-1
 0 1500 l 1,14,-1
EndSplineSet
EndChar

StartChar: afii10090
Encoding: 1096 1096 626
Width: 2825
Flags: W
LayerCount: 2
Fore
SplineSet
1068 1399 m 1,0,-1
 1626 1399 l 1,1,-1
 1626 685 l 5,2,-1
 1068 685 l 5,3,-1
 1068 1399 l 1,0,-1
1650 0 m 1,4,-1
 2709 -4 l 1,5,-1
 2700 1500 l 1,6,-1
 2250 1500 l 1,7,-1
 2250 500 l 1,8,-1
 450 500 l 1,9,-1
 450 1500 l 1,10,-1
 0 1500 l 1,11,-1
 0 0 l 1,12,-1
 1650 0 l 1,4,-1
EndSplineSet
EndChar

StartChar: afii10091
Encoding: 1097 1097 627
Width: 2825
Flags: W
LayerCount: 2
Fore
SplineSet
2706 -128 m 5,0,-1
 2706 -406 l 1,1,-1
 1876 -406 l 1,2,-1
 1876 -128 l 5,3,-1
 2706 -128 l 5,0,-1
1068 1399 m 1,4,-1
 1626 1399 l 1,5,-1
 1626 685 l 1,6,-1
 1068 685 l 1,7,-1
 1068 1399 l 1,4,-1
1650 0 m 1,8,-1
 2709 -4 l 1,9,-1
 2700 1500 l 1,10,-1
 2250 1500 l 1,11,-1
 2250 500 l 1,12,-1
 450 500 l 1,13,-1
 450 1500 l 1,14,-1
 0 1500 l 1,15,-1
 0 0 l 1,16,-1
 1650 0 l 1,8,-1
EndSplineSet
EndChar

StartChar: afii10094
Encoding: 1100 1100 630
Width: 2100
Flags: W
LayerCount: 2
Fore
SplineSet
0 1500 m 1,0,-1
 0 675 l 1,1,-1
 450 675 l 1,2,-1
 450 1500 l 1,3,-1
 0 1500 l 1,0,-1
450 675 m 1,4,-1
 1100 675 l 1,5,-1
 1095 1000 l 1,6,-1
 450 1000 l 1,7,-1
 450 675 l 1,4,-1
0 0 m 1,8,-1
 1100 0 l 1,9,-1
 1100 300 l 1,10,-1
 0 300 l 1,11,-1
 0 0 l 1,8,-1
1100 0 m 1,12,-1
 1450 0 l 2,13,14
 1900 0 1900 0 1900 500 c 256,15,16
 1900 1000 1900 1000 1450 1000 c 2,17,-1
 1095 1000 l 1,18,-1
 1100 675 l 1,19,-1
 1300 675 l 2,20,21
 1450 675 1450 675 1450 500 c 0,22,23
 1450 300 1450 300 1300 300 c 2,24,-1
 1100 300 l 1,25,-1
 1100 0 l 1,12,-1
EndSplineSet
EndChar

StartChar: afii10096
Encoding: 1102 1102 632
Width: 1950
Flags: W
LayerCount: 2
Fore
SplineSet
577 916 m 1,0,-1
 577 568 l 1,1,-1
 305 568 l 1,2,-1
 305 916 l 1,3,-1
 577 916 l 1,0,-1
383 1496 m 1,4,-1
 383 0 l 1,5,-1
 0 0 l 1,6,-1
 0 1496 l 1,7,-1
 383 1496 l 1,4,-1
690 825 m 1,8,-1
 690 1203 l 2,9,10
 690 1496 690 1496 940 1500 c 1,11,-1
 1500 1500 l 2,12,13
 1750 1500 1750 1500 1750 1203 c 2,14,-1
 1750 825 l 1,15,-1
 1497 825 l 1,16,-1
 1497 950 l 2,17,18
 1497 1203 1497 1203 1220 1203 c 0,19,20
 940 1203 940 1203 940 950 c 2,21,-1
 940 825 l 1,22,-1
 690 825 l 1,8,-1
690 675 m 1,23,-1
 690 300 l 2,24,25
 690 0 690 0 940 0 c 2,26,-1
 1500 0 l 2,27,28
 1700 0 1700 0 1750 300 c 1,29,-1
 1750 675 l 1,30,-1
 1497 675 l 1,31,-1
 1497 550 l 2,32,33
 1497 300 1497 300 1220 300 c 0,34,35
 940 300 940 300 940 550 c 2,36,-1
 940 675 l 1,37,-1
 690 675 l 1,23,-1
EndSplineSet
EndChar

StartChar: afii10097
Encoding: 1103 1103 633
Width: 2100
Flags: W
LayerCount: 2
Fore
SplineSet
1900 0 m 1,0,-1
 1900 825 l 1,1,-1
 1450 825 l 1,2,-1
 1450 0 l 1,3,-1
 1900 0 l 1,0,-1
1450 825 m 1,4,-1
 800 825 l 1,5,-1
 805 500 l 1,6,-1
 1450 500 l 1,7,-1
 1450 825 l 1,4,-1
1900 1500 m 1,8,-1
 800 1500 l 1,9,-1
 800 1200 l 1,10,-1
 1900 1200 l 1,11,-1
 1900 1500 l 1,8,-1
800 1500 m 1,12,-1
 500 1500 l 2,13,14
 0 1500 0 1500 0 1050 c 0,15,16
 0 825 0 825 200 675 c 1,17,18
 0 675 0 675 0 300 c 2,19,-1
 0 0 l 1,20,-1
 500 0 l 1,21,-1
 500 300 l 2,22,23
 500 500 500 500 684 500 c 2,24,-1
 805 500 l 1,25,-1
 800 825 l 1,26,-1
 600 825 l 2,27,28
 450 825 450 825 450 1050 c 0,29,30
 450 1200 450 1200 600 1200 c 2,31,-1
 800 1200 l 1,32,-1
 800 1500 l 1,12,-1
EndSplineSet
EndChar

StartChar: afii10101
Encoding: 1108 1108 637
Width: 2200
Flags: W
LayerCount: 2
Fore
SplineSet
604 828 m 1,0,-1
 1126 828 l 1,1,-1
 1126 670 l 1,2,-1
 604 670 l 1,3,-1
 604 828 l 1,0,-1
0 825 m 1,4,-1
 0 1150 l 2,5,6
 0 1496 0 1496 500 1500 c 1,7,-1
 1450 1500 l 2,8,9
 1950 1500 1950 1500 1950 1150 c 2,10,-1
 1950 900 l 1,11,-1
 1500 900 l 1,12,13
 1500 1200 1500 1200 1200 1200 c 2,14,-1
 750 1200 l 2,15,16
 450 1203 450 1203 450 950 c 2,17,-1
 450 825 l 1,18,-1
 0 825 l 1,4,-1
0 675 m 1,19,-1
 0 350 l 2,20,21
 0 0 0 0 500 0 c 2,22,-1
 1300 0 l 2,23,24
 1900 0 1900 0 2000 350 c 1,25,-1
 2000 600 l 1,26,-1
 1500 600 l 1,27,28
 1500 300 1500 300 1200 300 c 2,29,-1
 750 300 l 2,30,31
 450 300 450 300 450 550 c 2,32,-1
 450 675 l 1,33,-1
 0 675 l 1,19,-1
EndSplineSet
EndChar

StartChar: afii10103
Encoding: 1110 1110 639
Width: 650
Flags: W
LayerCount: 2
Fore
SplineSet
0 0 m 1,0,-1
 0 1500 l 1,1,-1
 450 1500 l 1,2,-1
 450 0 l 1,3,-1
 0 0 l 1,0,-1
EndSplineSet
EndChar

StartChar: afii10104
Encoding: 1111 1111 640
Width: 650
Flags: W
LayerCount: 2
Fore
SplineSet
301 1634 m 1,0,-1
 452 1634 l 1,1,-1
 452 1532 l 1,2,-1
 301 1532 l 1,3,-1
 301 1634 l 1,0,-1
0 1634 m 1,4,-1
 151 1634 l 1,5,-1
 151 1532 l 1,6,-1
 0 1532 l 1,7,-1
 0 1634 l 1,4,-1
0 0 m 1,8,-1
 0 1450 l 1,9,-1
 450 1450 l 1,10,-1
 450 0 l 1,11,-1
 0 0 l 1,8,-1
EndSplineSet
EndChar

StartChar: afii10050
Encoding: 1168 1168 648
Width: 2050
Flags: W
LayerCount: 2
Fore
SplineSet
0 0 m 1,0,-1
 0 1500 l 1,1,-1
 450 1500 l 1,2,-1
 450 0 l 1,3,-1
 0 0 l 1,0,-1
600 1500 m 1,4,-1
 1416 1500.1171875 l 5,5,-1
 1416 1638 l 1,6,-1
 1812 1638 l 1,7,-1
 1812 1200 l 1,8,-1
 600 1200 l 1,9,-1
 600 1500 l 1,4,-1
1810 1199 m 1025,10,-1
EndSplineSet
EndChar

StartChar: afii10098
Encoding: 1169 1169 649
Width: 2050
Flags: W
LayerCount: 2
Fore
SplineSet
0 0 m 1,0,-1
 0 1500 l 1,1,-1
 450 1500 l 1,2,-1
 450 0 l 1,3,-1
 0 0 l 1,0,-1
600 1500 m 1,4,-1
 1416 1500.1171875 l 5,5,-1
 1416 1638 l 1,6,-1
 1812 1638 l 1,7,-1
 1812 1200 l 1,8,-1
 600 1200 l 1,9,-1
 600 1500 l 1,4,-1
1810 1199 m 1025,10,-1
EndSplineSet
EndChar

